<?xml version="1.0" encoding="UTF-8"?>
<svg width="254px" height="261px" viewBox="0 0 254 261" xmlns="http://www.w3.org/2000/svg" xmlns:xlink="http://www.w3.org/1999/xlink" version="1.1">
 <!-- Generated by Pixelmator Pro 2.2 -->
 <path id="Path" d="M125.135 255.403 C65.555 255.403 19.909 214.697 5.981 197.809 2.166 193.427 6.564 191.449 9.151 193.053 50.958 218.504 116.268 260.408 221.503 210.325 225.957 208.466 229.07 211.569 224.663 217.196 220.226 222.871 184.756 255.403 125.135 255.403 Z M232.27 237.559 C231.007 237.556 230.51 236.322 231.528 234.022 233.213 230.342 242.438 207.523 238.782 202.733 235.143 197.976 217.68 200.181 211.446 200.803 205.229 201.362 203.991 201.92 203.385 200.676 202.204 197.355 215.788 191.825 224.838 190.747 233.874 189.637 248.231 190.323 251.057 194.003 253.205 196.805 250.985 209.398 247.346 218.426 243.682 227.405 238.224 233.75 235.208 236.2 234.061 237.119 233.028 237.561 232.27 237.559 Z M101.833 193.192 C73.463 193.192 51.354 175.687 51.354 140.628 51.354 113.255 66.203 94.609 87.313 85.501 105.626 77.435 131.199 76.013 150.745 73.784 L150.745 69.419 C150.745 61.401 151.361 51.911 146.665 44.985 142.537 38.77 134.662 36.21 127.735 36.21 114.879 36.21 103.397 42.803 100.598 56.465 100.028 59.503 97.798 62.491 94.762 62.633 L62.028 59.124 C59.277 58.506 56.242 56.276 57.001 52.053 64.544 12.393 100.36 0.438 132.43 0.438 148.845 0.438 170.289 4.803 183.241 17.233 199.656 32.556 198.088 53.003 198.088 75.253 L198.088 127.817 C198.088 143.615 204.636 150.543 210.803 159.083 212.985 162.119 213.46 165.772 210.708 168.048 203.829 173.788 191.588 184.462 184.852 190.44 L184.758 190.346 C182.528 192.338 179.304 192.48 176.79 191.151 165.594 181.853 163.599 177.537 157.432 168.665 138.93 187.547 125.838 193.192 101.833 193.192 Z M121.092 159.223 C130.58 159.223 139.073 153.388 144.434 143.899 151.076 132.229 150.745 121.271 150.745 108.13 L150.745 100.825 C126.359 100.825 100.598 106.042 100.598 134.792 100.598 149.356 108.14 159.223 121.092 159.223 Z" fill="#000000" fill-opacity="1" stroke="none"/>
</svg>
