<?xml version="1.0" encoding="UTF-8"?>
<svg width="254px" height="261px" viewBox="0 0 254 261" xmlns="http://www.w3.org/2000/svg" xmlns:xlink="http://www.w3.org/1999/xlink" version="1.1">
 <!-- Generated by Pixelmator Pro 2.2 -->
 <path id="Apple_logo_black" d="M183.319 250.49 C169.162 264.229 153.542 262.087 138.654 255.609 122.825 249.001 108.355 248.583 91.638 255.609 70.82 264.594 59.772 261.982 47.234 250.49 -23.551 177.615 -13.103 66.606 67.346 62.426 86.858 63.471 100.519 73.214 112.011 74.024 129.094 70.55 145.445 60.598 163.729 61.904 185.696 63.68 202.125 72.352 213.095 87.946 167.908 115.11 178.617 174.664 220.122 191.38 211.815 213.19 201.159 234.739 183.293 250.672 Z M110.444 61.643 C108.329 29.254 134.579 2.612 164.774 0 168.927 37.351 130.818 65.3 110.444 61.643 Z" fill="#000000" fill-opacity="1" stroke="none"/>
</svg>
