<?xml version="1.0" ?>
<svg xmlns="http://www.w3.org/2000/svg" xmlns:ev="http://www.w3.org/2001/xml-events" xmlns:xlink="http://www.w3.org/1999/xlink" baseProfile="full" height="247px" version="1.1" viewBox="154.86909375 208.82846875 479.5743125 196.9368125" width="600px">
	<defs/>
	<path d="M 195.0,225.40625 L 195.0,389.1875 L 594.3125,389.1875 L 594.3125,377.59375 L 594.3125,225.40625 L 195.0,225.40625 M 250.8125,239.40625 L 368.40625,239.40625 C 349.90625,251.80625 337.093709,277.512507 337.09375,307.3125 C 337.09375,337.112501 349.906291,362.787384 368.40625,375.1875 L 250.8125,375.1875 C 247.4125,353.787501 230.493685,336.900045 209.09375,333.5 L 209.09375,281.09375 C 230.493749,277.69375 247.412526,260.806257 250.8125,239.40625 M 418.3125,239.40625 L 538.5,239.40625 C 541.9,260.806249 558.787493,277.693705 580.1875,281.09375 L 580.1875,333.5 C 558.787501,336.9 541.899963,353.787453 538.5,375.1875 L 418.3125,375.1875 C 436.8125,362.7875 449.59373,337.112595 449.59375,307.3125 C 449.59375,277.512499 436.81252,251.806285 418.3125,239.40625 M 279.0,285.1875 C 273.241741,285.187503 267.487137,287.387824 263.09375,291.78125 C 254.306986,300.568064 254.306997,314.838196 263.09375,323.625 C 271.880564,332.411794 286.119446,332.411804 294.90625,323.625 C 303.693044,314.838186 303.693054,300.568054 294.90625,291.78125 C 290.512843,287.387853 284.75826,285.1875 279.0,285.1875 M 507.6875,285.1875 C 501.929241,285.187503 496.174637,287.387824 491.78125,291.78125 C 482.994375,300.568064 482.994446,314.838196 491.78125,323.625 C 500.568064,332.411794 514.838196,332.411804 523.625,323.625 C 532.411814,314.838186 532.411784,300.568054 523.625,291.78125 C 519.231593,287.387853 513.445699,285.1875 507.6875,285.1875" fill="black"/>
</svg>
