<?xml version="1.0" encoding="UTF-8"?>
<!-- Generated by Pixelmator Pro 3.3 -->
<svg width="874" height="874" viewBox="0 0 874 874" xmlns="http://www.w3.org/2000/svg" xmlns:xlink="http://www.w3.org/1999/xlink">
    <path id="Shape" fill="#000000" stroke="none" d="M 200.5 352.5 C 188.467896 351.587341 186.372208 350.867859 181.908356 347.88031 C 178.933762 345.889465 173.574997 342.105103 170 339.47052 C 166.425003 336.835999 160.16507 331.714844 156.08905 328.09021 C 152.013031 324.465576 146.950531 319.322083 144.83905 316.660217 C 141.552841 312.517334 141 311.105774 141 306.857605 C 141 304.128052 141.722382 298.656006 142.605286 294.697388 C 143.48819 290.738831 145.517181 284.727295 147.114151 281.33844 C 149.496399 276.283203 149.836609 274.700439 149.008881 272.523315 C 148.453995 271.063904 148 267.496277 148 264.595276 C 148 259.788086 148.556488 258.486816 154.279953 249.910339 C 157.733917 244.73468 165.661118 233.375793 171.89595 224.668396 C 178.130768 215.96106 184.291763 206.940674 185.587051 204.623169 C 187.111954 201.894836 188.255905 197.605469 188.832306 192.454773 C 189.501312 186.476624 190.632904 182.692322 193.386383 177.225098 C 195.401505 173.223877 198.645844 168.184021 200.595993 166.025452 C 203.125183 163.225891 205.6707 161.65625 209.474777 160.550354 C 212.84758 159.569885 218.824066 159 225.734497 159 C 232.314392 159 241.005051 159.79126 247.580582 160.989014 C 253.586258 162.082947 259.0625 162.772034 259.75 162.520386 C 260.46936 162.257019 261 160.340759 261 158.006409 C 261 155.775391 261.83194 151.583008 262.848755 148.690002 C 263.86557 145.796936 266.53717 140.520691 268.785645 136.964966 C 271.034119 133.409241 274.374237 129.04895 276.20816 127.275513 C 278.72052 124.846008 281.509644 123.55542 287.521301 122.040894 C 291.909576 120.935303 296.850006 120.025452 298.5 120.019104 C 300.149994 120.012695 302.948883 120.89093 304.719757 121.970642 C 306.490631 123.050415 309.314575 125.832031 310.995209 128.1521 C 312.675842 130.472168 316.593079 137.349548 319.700165 143.435181 C 322.80722 149.520813 327.717804 159.224976 330.612549 165 C 333.507294 170.775024 337.11322 178.650024 338.625702 182.5 C 340.138184 186.349976 342.284637 191.506042 343.39563 193.957825 C 344.506622 196.409607 347.106781 200.106812 349.173798 202.173767 C 351.240784 204.240784 354.763702 207.088318 357.002502 208.501587 C 359.241302 209.914856 362.911407 212.732056 365.158295 214.761963 C 367.405182 216.791931 370.384491 219.948608 371.778992 221.776855 C 373.855377 224.499146 374.447357 226.705994 375.048737 233.965881 C 375.452606 238.841553 376.574951 245.231323 377.542816 248.165405 C 378.510681 251.099426 381.196808 255.974976 383.511993 259 C 385.827179 262.025024 388.980804 266.974976 390.520081 270 C 392.059326 273.025024 393.912048 277.450867 394.637177 279.835205 C 395.73349 283.440063 395.729279 284.703613 394.61203 287.335205 C 393.805542 289.234924 389.946167 293.098328 384.957458 297 C 380.386383 300.575012 374.363495 306.2724 371.573212 309.660828 C 368.782959 313.049316 364.074799 320.417542 361.110687 326.034729 C 358.146545 331.651917 354.41156 337.739563 352.810699 339.562805 C 351.209839 341.386108 348.307251 343.403564 346.360504 344.046021 C 344.413757 344.688538 341.623749 344.951843 340.160492 344.631165 C 338.697205 344.310486 336.487488 343.759827 335.25 343.407471 C 333 342.766724 333 342.766724 333 472.521545 C 333 602.276367 333 602.276367 337.062073 606.683167 C 340.098999 609.977844 341.04541 611.772705 340.812073 613.795044 C 340.568359 615.907593 339.897308 616.569336 337.747925 616.81665 C 336.113068 617.0047 333.677368 616.234436 331.747925 614.919067 C 329.961578 613.701294 327.899902 611.897339 327.166412 610.910278 C 325.915253 609.226563 325.243011 609.430786 316.287964 614.215576 C 311.0383 617.020508 304.888397 619.661377 302.621552 620.084045 C 298.983307 620.762451 298.206848 620.553528 296 618.302185 C 294.625 616.899414 290.350006 613.721802 286.5 611.240723 C 282.649994 608.759644 278.812439 606.539185 277.972046 606.306274 C 276.924408 606.015991 273.662231 609.980225 267.594025 618.917725 C 258.743896 631.952576 258.743896 631.952576 263.055237 639.209595 C 265.426453 643.200989 267.547333 647.412292 267.76825 648.568115 C 268.034393 649.960205 266.407776 653.003662 262.94928 657.584778 C 260.077911 661.388123 254.077164 668.45105 249.614304 673.28009 C 245.151443 678.109131 240.218445 683.578796 238.6521 685.434937 C 235.804214 688.809753 235.804214 688.809753 238.511902 693.430115 C 240.333344 696.538147 241.058746 698.942261 240.728149 700.775208 C 240.457855 702.273865 238.594284 707.325012 236.586884 712 C 234.579498 716.674988 231.831406 722.669067 230.480026 725.320129 C 228.288101 729.620178 228.135391 730.641968 229.064865 734.789429 C 229.637894 737.346436 229.873291 740.368774 229.587936 741.505676 C 229.302582 742.642578 227.816071 744.491089 226.284561 745.613403 C 224.753052 746.735779 221.475006 748.810181 219 750.223206 C 216.524994 751.63623 213.485291 753.095093 212.245071 753.465088 C 210.649948 753.94104 209.808105 753.663513 209.367981 752.516602 C 208.976654 751.496765 210.462494 748.405457 213.37291 744.184326 C 218 737.473389 218 737.473389 218 701.236694 C 218 681.306519 217.662506 665.013123 217.25 665.029175 C 216.837494 665.045166 214.587494 667.693542 212.25 670.914368 C 208.303986 676.351563 208 677.227661 208 683.16272 C 208 687.091797 207.448105 690.342896 206.567795 691.599731 C 205.78009 692.724365 203.250732 694.891846 200.946991 696.416382 C 198.643265 697.940918 195.423904 699.653442 193.792847 700.222046 C 191.475739 701.029785 190.505203 700.933777 189.354263 699.782837 C 188.056885 698.485474 188.305023 697.605652 191.435043 692.404907 C 193.389648 689.157227 196.342728 684.696655 197.997452 682.492554 C 201.006027 678.485107 201.006027 678.485107 200.753021 515.492554 Z M 678 423.229462 C 678 557.334229 678.370239 591.110779 678.925049 591.453674 C 679.433838 591.768127 681.061707 591.473389 682.542542 590.798645 C 684.997559 589.680054 685.453247 589.825623 687.7099 592.449097 C 689.617798 594.667236 690.046448 596.0177 689.581116 598.344543 C 689.249084 600.004578 687.86908 603.254028 686.514404 605.565613 C 685.159729 607.877197 681.770325 611.819336 678.982422 614.325928 C 674.197632 618.627808 674.028015 618.944641 675.956726 619.976807 C 677.471924 620.78772 678 622.06665 678 624.92511 C 678 627.045227 677.102478 633.216858 676.005554 638.639893 C 674.908569 644.062988 673.108582 651.021179 672.005554 654.102661 C 670.902466 657.184143 670 661.146545 670 662.907959 C 670 665.81073 669.494568 666.342041 664.602539 668.581665 C 661.633911 669.940796 656.346436 671.469727 652.852539 671.97937 C 649.358643 672.489014 644.700012 673.273193 642.5 673.721985 C 638.5 674.537964 638.5 674.537964 638.391541 699.948853 C 638.283081 725.359741 638.283081 725.359741 635.816406 727.481506 C 634.459717 728.648499 631.133484 730.556152 628.424866 731.720825 C 625.716187 732.885437 622.311584 734.136169 620.85907 734.500183 C 619.307251 734.889099 617.936951 734.707031 617.536255 734.058594 C 617.161133 733.451782 618.929871 728.659912 621.466736 723.410095 C 626.079163 713.864929 626.079163 713.864929 621.636292 707.682495 C 619.192688 704.282104 614.455322 698.125 611.108826 694 C 607.762268 689.875 604.10199 684.635803 602.974854 682.357361 C 600.925537 678.214722 600.925537 678.214722 604.966614 667.357361 C 607.189209 661.385803 610.375793 653.638794 612.047913 650.141724 C 614.849365 644.282837 614.970337 643.603699 613.588806 641.495239 C 612.764221 640.236694 608.900452 636.347961 605.002686 632.853516 C 601.104858 629.35907 597.519409 626.361572 597.034973 626.192383 C 596.550537 626.023193 596.007019 626.854797 595.827087 628.040466 C 595.578125 629.681274 590.880005 632.800171 576.157715 641.098145 C 565.519409 647.094116 556.012024 652 555.030151 652 C 554.048279 652 552.694885 651.33728 552.022705 650.527344 C 551.06311 649.371094 551.05719 646.739319 551.9953 638.277344 C 552.705627 631.869751 553.759705 626.906311 554.595032 626.035706 C 555.828003 624.750671 556.188721 624.760132 557.541321 626.112793 C 558.389099 626.96051 560.130005 630.230957 561.410034 633.380432 C 562.690063 636.529907 564.048767 639.108032 564.429382 639.109558 C 564.809998 639.111084 567.947632 636.049561 571.401917 632.306152 C 574.856201 628.562805 580.006104 622.232788 582.846069 618.239563 C 588.009705 610.979126 588.009705 610.979126 587.754822 511.87207 C 587.5 412.764954 587.5 412.764954 582.64386 410.857483 C 579.972961 409.80838 575.697998 407.517883 573.14386 405.767517 C 570.589722 404.01712 566.372498 400.40863 563.772217 397.748627 C 561.171875 395.088623 557.451538 390.194489 555.504761 386.872772 C 553.557922 383.551056 551.041077 378.058289 549.911682 374.666656 C 548.782288 371.274994 547.102661 367.763428 546.179138 366.86319 C 545.255615 365.962921 540.588806 363.416962 535.808472 361.205444 C 531.028137 358.993958 524.666748 355.558167 521.671936 353.570374 C 518.677185 351.582581 513.913757 347.679199 511.086517 344.896179 C 508.259308 342.11322 504.620209 337.209595 502.999664 333.999329 C 501.37912 330.789063 499.642792 325.545105 499.141144 322.346191 C 498.580383 318.770325 498.59613 313.881042 499.181946 309.653564 C 499.706055 305.871582 501.505402 298.889893 503.180511 294.138611 C 504.855621 289.38739 508.475403 281.674988 511.224518 277 C 513.973633 272.325012 518.470886 265.455017 521.218445 261.733337 C 523.966003 258.011658 529.424072 252.036926 533.347412 248.456177 C 537.270752 244.875366 542.510132 240.945374 544.990417 239.722839 C 548.489685 237.997986 551.25708 237.5 557.343079 237.5 C 565.186218 237.5 565.186218 237.5 571.071716 231 C 574.308777 227.424988 579.940247 219.815857 583.586121 214.09082 C 587.231995 208.365723 591.79126 200.540771 593.717834 196.701965 C 595.644409 192.863159 598.535645 185.84729 600.142761 181.111145 C 601.749939 176.375 604.440369 167.795288 606.12146 162.045044 C 607.802612 156.294861 610.539612 148.893005 612.203674 145.596558 C 613.867737 142.30011 617.566101 137.329834 620.422302 134.551514 C 623.278564 131.773193 627.635437 128.501648 630.10437 127.281433 C 632.573303 126.061157 637.497314 124.3172 641.046631 123.405884 C 645.730408 122.203308 649.643372 121.91333 655.316589 122.348328 C 661.129517 122.794006 664.410767 123.643005 668.117249 125.660339 C 670.858459 127.152283 674.38739 130.121826 675.95929 132.259277 C 677.531189 134.396729 679.610901 139.15033 680.580811 142.822815 C 681.55072 146.495239 683.334473 151.788879 684.544739 154.586365 C 685.755005 157.38385 689.285034 162.666626 692.389282 166.325928 C 695.49353 169.985168 698.532532 174.074646 699.142639 175.413635 C 700.046875 177.398315 699.848633 178.681274 698.069763 182.355957 C 696.590027 185.412659 694.362976 187.84198 691.151123 189.903015 C 688.546021 191.574707 684.408813 193.653259 681.957336 194.521973 C 679.045471 195.553833 674.726135 196.029846 669.5 195.894836 C 661.5 195.688171 661.5 195.688171 661.219116 208.479858 C 661.064636 215.515259 661.144531 221.477844 661.396667 221.72998 C 661.648804 221.982117 664.326416 219.717041 667.346924 216.696533 C 670.47406 213.569397 675.564636 209.874817 679.169373 208.116211 C 682.651245 206.417542 688.508789 204.249512 692.186218 203.298279 C 698.541199 201.654419 699.054688 201.65564 702.550781 203.322815 C 704.573853 204.287537 708.92627 207.647095 712.222839 210.788452 C 715.519409 213.92981 720.458435 219.314819 723.198486 222.755066 C 725.938477 226.195374 729.481567 231.370361 731.072021 234.255066 C 732.662476 237.139771 733.971924 240.928162 733.981873 242.673706 C 733.991821 244.41925 733.472229 248.133911 732.827148 250.928528 C 731.783325 255.450684 730.875793 256.663635 724.577148 261.954834 C 720.684692 265.22467 714.349976 271.067566 710.5 274.939026 C 706.650024 278.810486 703.087158 282.602722 702.582581 283.366211 C 701.925781 284.360046 702.688354 285.807861 705.267151 288.463257 C 707.248291 290.503113 711.08374 295.395874 713.790466 299.33606 C 716.497192 303.276245 719.858765 308.576599 721.260559 311.114746 C 722.662415 313.652832 724.915527 318.82782 726.267578 322.614746 C 727.619568 326.401611 729.297607 332.586182 729.996521 336.358154 C 731.095642 342.289917 731.057251 343.656677 729.712585 346.476501 C 728.857544 348.269592 726.073914 351.444397 723.526794 353.531555 C 720.979675 355.618713 718.484314 358.095093 717.981506 359.034546 C 717.297485 360.312622 717.954224 361.971008 720.589905 365.621338 C 722.527283 368.304596 725.270386 372.438934 726.685669 374.808777 C 728.100952 377.178589 729.475281 381.036804 729.739685 383.382599 C 730.085388 386.450134 729.641907 388.781647 728.159973 391.686401 C 727.026733 393.907715 723.900269 397.699463 721.212219 400.112579 C 718.52417 402.525665 714.339233 405.479889 711.912415 406.677521 C 709.485596 407.875153 703.900024 410.266815 699.5 411.99231 C 695.099976 413.717834 688.462524 416.952087 684.75 419.179535 Z M 221.848465 726 C 222.315109 726 223.208923 722.287476 223.834702 717.75 C 224.46048 713.212524 225.469467 703.875 226.076889 697 C 227.010193 686.436768 227.525711 684.112671 229.404022 682 C 230.626526 680.625 233.779343 675.674988 236.410309 671 C 239.041275 666.325012 243.062744 659.349976 245.346939 655.5 C 247.631119 651.650024 249.656616 647.879761 249.848022 647.121765 C 250.127838 646.013611 249.245972 645.898743 245.348022 646.535583 C 242.68161 646.971252 236.937622 647.591431 232.583618 647.913818 C 224.926682 648.480774 224.663635 648.584656 224.557892 651.083252 C 224.497757 652.504028 223.672638 654.850708 222.724274 656.298035 C 221.178497 658.657227 221 662.401245 221 692.464844 C 221 710.90918 221.381805 726 221.848465 726 Z M 633.940796 714 C 634.658447 714 634.982544 703.168396 634.958069 680 C 634.938293 661.299988 634.602112 646.004578 634.21106 646.010193 C 633.819946 646.015808 631.474976 648.805176 629 652.20874 C 626.525024 655.612305 621.575012 662.008423 618 666.422363 C 614.424988 670.836304 611.377991 674.909485 611.228882 675.473877 C 611.079773 676.038208 613.060791 677.611328 615.631104 678.969727 C 619.397461 680.960083 620.72644 682.415588 622.479187 686.469727 C 623.675354 689.236328 625.679504 694.650024 626.932861 698.5 C 628.186279 702.349976 630.038818 707.412476 631.049622 709.75 C 632.060486 712.087524 633.361511 714 633.940796 714 Z M 642.223816 663.692871 C 645.5 662.358582 645.5 662.358582 645.789673 653.018921 C 645.948975 647.882141 645.713196 643.313171 645.265686 642.865662 C 644.818176 642.418213 643.112854 642.40918 641.476013 642.845642 C 638.5 643.63916 638.5 643.63916 638.210144 652.994568 C 638.05072 658.140015 638.151489 662.952332 638.43396 663.688538 C 638.86261 664.805542 639.489807 664.806274 642.223816 663.692871 Z M 650.326782 664.704834 C 651.092529 664.411011 654.594788 662.200562 658.109558 659.792725 C 664.5 655.414917 664.5 655.414917 664.137329 645.957458 C 663.937805 640.755859 663.610657 636.322815 663.410278 636.106262 C 663.209839 635.889709 659.998047 637.073975 656.272949 638.737854 C 649.5 641.763184 649.5 641.763184 649.217224 653.50116 C 648.983582 663.200928 649.176208 665.146362 650.326782 664.704834 Z M 204.805984 664 C 205.252731 664 206.310593 661.862488 207.156769 659.25 C 208.00296 656.637512 209.937042 651.349976 211.454742 647.5 C 212.972443 643.650024 215.065994 639.882629 216.107101 639.128052 C 217.949234 637.792847 218 633.881714 218 493.294708 C 218 413.840942 217.662506 349.00708 217.25 349.219421 C 216.837494 349.431763 214.925003 350.325562 213 351.205627 C 211.074997 352.085754 208.375 352.962036 207 353.152893 C 204.5 353.5 204.5 353.5 204.246857 508.75 C 204.10762 594.137512 204.359238 664 204.805984 664 Z M 244.5 343.658508 C 235.975006 341.878784 231.364151 340.331848 228.753677 339.072632 C 226.143204 337.813477 223.330704 337.042847 222.503677 337.360229 C 221.174744 337.870178 221 355.270935 221 487.096436 C 221 636.255615 221 636.255615 225.25 635.595581 C 227.587494 635.232544 233.550003 634.252625 238.5 633.41803 C 243.533585 632.569336 247.984055 631.268555 248.598358 630.466553 C 249.202438 629.677856 250.470078 621.636108 251.415314 612.596069 C 253.040222 597.055908 253.040207 595.978394 251.415039 592.835693 C 250.46965 591.007568 247.875015 587.034058 245.64917 584.005859 C 243.42334 580.977661 240.682434 577.740601 239.558258 576.8125 C 237.817749 575.375549 237.67334 574.703735 238.585495 572.287231 C 239.174637 570.726379 242.728638 564.285767 246.483276 557.97467 C 250.237915 551.663574 253.352661 545.636475 253.404938 544.580994 C 253.473618 543.194458 252.528763 542.409668 250 541.752686 C 248.074997 541.252563 246.138901 540.495056 245.69754 540.069275 C 245.256195 539.643433 244.806198 495.276855 244.69754 441.476776 Z M 631.714844 633.882324 C 632.382996 633.947021 633.395447 633.129578 633.964844 632.065735 C 634.661926 630.763245 635 590.936096 635 510.124756 C 635 444.121063 634.632629 389.890961 634.183533 389.613434 C 633.734497 389.335907 631.552734 390.321869 629.335205 391.804413 C 627.117615 393.286987 621.972534 397.488525 617.901611 401.141144 C 613.83075 404.793793 608.578186 408.781586 606.229309 410.002899 C 603.880432 411.224213 599.605469 412.510712 596.729309 412.861755 C 591.5 413.5 591.5 413.5 591.5 512.486511 C 591.5 611.473022 591.5 611.473022 594.5 612.750244 C 596.150024 613.452759 601.224365 615.930054 605.776428 618.255371 C 610.328491 620.58075 617.753479 625.021606 622.276428 628.123962 C 626.799377 631.226318 631.046692 633.817566 631.714844 633.882324 Z M 638.839478 624.833313 C 639.301208 624.650024 641.101196 622.865601 642.839478 620.867981 C 646 617.235962 646 617.235962 646 515.653198 C 646 419.075165 645.911804 414.023193 644.210388 413.11261 C 643.226135 412.585846 641.80011 410.995026 641.041443 409.577423 C 640.282776 408.159851 639.288086 407 638.830994 407 C 638.373962 407 638 456.087494 638 516.083374 C 638 576.079163 638.377747 625.016663 638.839478 624.833313 Z M 652.427673 616.386475 C 653.567444 616.036865 655.338135 615.314026 656.362549 614.780029 C 657.882019 613.987976 658.110291 613.090332 657.601685 609.906311 C 657.258789 607.759766 656.054626 600.040161 654.92572 592.751709 C 653.796753 585.463257 652.37561 578.487488 651.767578 577.25 C 651.159546 576.012512 650.288086 575 649.830994 575 C 649.373962 575 649 584.150024 649 595.333374 C 649 606.516663 649.304932 615.971619 649.677673 616.34436 C 650.050354 616.717041 651.287903 616.735962 652.427673 616.386475 Z M 329.5 602.493225 L 330.007416 339.762817 L 324.101044 333.448853 C 319.239685 328.252075 317.997467 326.194092 317.080078 321.817444 C 316.467072 318.892883 315.762665 315.938293 315.514801 315.251709 C 315.200378 314.38092 313.654785 314.897156 310.404236 316.958557 C 307.841339 318.583923 303.439423 320.428162 300.622223 321.056885 C 296.864685 321.895447 293.937195 321.910278 289.634216 321.112549 C 286.40802 320.514465 283.370514 320.270996 282.884216 320.571533 C 282.379944 320.88324 282 372.227661 282 440.059021 C 282 559 282 559 286.799988 559 C 289.440002 559 292.140015 559.540039 292.799988 560.200012 C 293.459991 560.859985 294 562.677917 294 564.239868 C 294 565.801758 293.063019 568.916382 291.917786 571.161133 C 290.772583 573.406006 287.285065 577.83136 284.167786 580.995361 C 281.050507 584.159424 277.830292 586.953064 277.011749 587.203491 C 275.791504 587.576843 275.73291 588.118408 276.686462 590.211182 C 277.526154 592.054138 278.788971 592.873291 281.229553 593.158203 C 283.402832 593.411926 286.488068 595.150085 289.870605 598.026428 C 292.76413 600.486877 296.277985 604.426636 297.679199 606.781372 C 299.45343 609.763062 300.723663 610.906128 301.863403 610.546875 C 302.76355 610.263184 309.350006 608.335022 316.5 606.262146 Z M 668.631775 598.786011 C 669.315918 598.628662 671.028625 597.409058 672.437805 596.075684 C 675 593.651367 675 593.651367 675 508.794312 C 675 428.853119 674.898621 423.905548 673.25 423.390167 C 672.287476 423.089264 669.363831 421.9021 666.75293 420.751984 C 664.142029 419.601868 661.753235 418.913422 661.444519 419.222137 C 661.135803 419.530853 660.969604 448.969666 661.075134 484.641724 C 661.180664 520.313782 660.970093 556.541687 660.607178 565.148193 C 660.002136 579.496643 660.10791 581.074829 661.880249 584.148193 C 662.943298 585.991699 664.617432 590.103699 665.600525 593.286011 C 666.664856 596.731323 667.891113 598.956299 668.631775 598.786011 Z M 278.974762 560.5 C 278.994446 376.83786 278.6185 324.980469 278.13559 325.166687 C 277.660187 325.349976 275.741241 326.849976 273.871277 328.5 C 272.001312 330.150024 268.002777 333.27655 264.985657 335.447876 C 261.968536 337.619263 257.024994 340.40863 254 341.646484 L 248.5 343.897217 L 248.5 437.698608 C 248.5 531.5 248.5 531.5 251.5 531.781372 C 253.149994 531.936157 256.174164 532.786011 258.220367 533.669922 C 260.266571 534.553833 262.669098 536.081909 263.559357 537.065552 C 265.062164 538.726196 264.926697 539.413818 261.66568 546.677063 C 259.733948 550.979675 256.934601 557.650024 255.444916 561.5 C 253.955231 565.349976 252.164551 569.71875 251.465607 571.208374 C 250.513596 573.237366 250.483948 574.11792 251.347397 574.718628 C 251.981323 575.159668 254.074997 576.376953 256 577.423706 C 257.924988 578.470459 260.372864 579.917969 261.439667 580.640442 C 262.50647 581.362915 263.593262 581.740112 263.854736 581.478638 C 264.116211 581.217163 264.44519 579.924072 264.585785 578.605225 C 264.72641 577.286377 265.546631 574.843628 266.408478 573.177002 C 267.270325 571.510376 270.450317 567.976196 273.475128 565.323364 Z M 649.841675 569 C 650.304565 569 651.496399 566.314758 652.490051 563.032837 C 654.211182 557.348328 654.214783 556.850891 652.565674 552.532837 C 651.613586 550.039795 650.421814 548 649.917297 548 C 649.412781 548 649 552.724976 649 558.5 C 649 564.275024 649.378723 569 649.841675 569 Z M 649.75 540.78064 C 650.162476 540.568237 652.1875 539.624756 654.25 538.683838 C 658 536.973145 658 536.973145 658 477.686584 C 658 432.908142 657.70636 418.106354 656.799988 417.200012 C 656.140015 416.540009 654.11499 416 652.299988 416 C 649 416 649 416 649 478.583344 C 649 513.00415 649.337524 540.99292 649.75 540.78064 Z M 673.477295 418.675476 C 674.094604 418.470428 674.609497 412.556244 674.776245 403.754211 C 675.05249 389.172668 675.05249 389.172668 671.876404 387.588226 C 669.919617 386.612061 668.278015 386.350189 667.600159 386.906097 C 666.995056 387.402344 665.375 387.963989 664 388.154175 C 661.982056 388.433319 661.438232 389.144714 661.179688 391.843536 C 660.972595 394.004944 661.486328 395.879944 662.632813 397.146729 C 663.65686 398.27832 664.406738 400.668518 664.40741 402.803192 C 664.408081 404.836456 664.204163 408.299988 663.954285 410.5 C 663.513 414.385468 663.628174 414.564636 667.977295 416.757568 C 670.439758 417.999237 672.914734 418.862305 673.477295 418.675476 Z M 688.799561 412.390015 C 691.934814 411.039185 697.650024 408.52832 701.5 406.810333 C 705.349976 405.092346 711.539307 401.740112 715.254028 399.360931 C 718.968689 396.98175 722.904541 393.564758 724.000244 391.767578 C 725.147095 389.886597 725.994141 386.728607 725.996277 384.325562 C 725.999268 380.946747 724.99939 378.659668 720.75 372.325562 C 716.992432 366.724579 714.920349 364.516113 713.460999 364.556732 C 712.3396 364.587921 708.289612 366.980133 704.460999 369.872711 C 700.632446 372.765289 697.254761 376.114777 696.955017 377.315979 C 696.586243 378.794037 695.616516 379.520325 693.955017 379.562897 C 692.604797 379.597473 688.575012 381.251953 685 383.239441 C 678.5 386.853119 678.5 386.853119 678.220947 399.926544 C 678.0401 408.40213 678.303833 413 678.970947 413 C 679.536926 413 680 410.9375 680 408.416656 C 680 405.19696 680.371887 403.955902 681.25 404.24527 C 681.975037 404.484222 682.625793 406.7966 682.799561 409.751648 C 683.099182 414.846069 683.099182 414.846069 688.799561 412.390015 Z M 655.795715 411.863831 C 658.003662 411.994781 658.080078 411.742035 657.795715 405.25 C 657.5 398.5 657.5 398.5 653 398.217957 C 650.525024 398.062836 647.886841 397.720001 647.13739 397.456116 C 646.046997 397.072205 646.021545 396.679016 647.009827 395.488159 C 647.79834 394.538055 650.031311 394 653.185791 394 C 658.126709 394 658.126709 394 657.813354 390.75 C 657.538635 387.900696 657.025635 387.382843 653.652161 386.549744 C 650.722839 385.826294 649.179626 385.950073 647.187561 387.068207 C 645.313232 388.120239 644.069336 390.184204 642.803162 394.343109 C 641.26825 399.384796 641.213745 400.567352 642.388916 403.324646 C 643.13324 405.071075 644.812744 407.473053 646.121094 408.662323 C 647.429504 409.851624 649.625 411.027832 651 411.276154 C 652.375 411.524475 654.533081 411.78891 655.795715 411.863831 Z M 596.993652 408.508575 C 599.472168 408.153595 603.31366 407.001648 605.530334 405.9487 C 607.747009 404.895782 611.346985 402.177979 613.530334 399.909149 C 615.713623 397.640289 619.75 394.121429 622.5 392.089447 C 625.25 390.057434 629.1875 387.609924 631.25 386.650543 C 635 384.906158 635 384.906158 635 371.420959 C 635 362.293793 635.440796 356.880737 636.364014 354.671204 C 637.114258 352.875671 639.159546 350.202087 640.909119 348.729919 C 642.658691 347.257751 645.757324 345.594421 647.795044 345.033569 C 649.832764 344.472717 652.849976 343.898193 654.5 343.756897 C 657.5 343.5 657.5 343.5 657.828674 320 C 658.09375 301.045654 657.851929 295.307678 656.578674 290.335876 C 655.710388 286.945618 655 281.193665 655 277.553772 C 655 273.913879 655.674988 269.320251 656.5 267.345764 C 657.325012 265.371277 658 261.355103 658 258.420959 C 658 253.086182 658 253.086182 651.216064 247.605042 C 647.484924 244.590393 639.758118 239.262329 634.045349 235.764893 C 628.332642 232.267395 623.188843 228.661133 622.614685 227.750916 C 622.040527 226.840637 621.854919 225.811768 622.202271 225.464417 C 622.549622 225.117065 624.980591 225.782532 627.604431 226.943176 C 631.441101 228.64032 632.598511 228.803528 633.516113 227.776733 C 634.143738 227.074524 636.246704 222.900024 638.189453 218.5 C 640.132263 214.099976 642.97998 205.360596 644.517761 199.079102 C 647.313782 187.658203 647.313782 187.658203 644.44928 182.579102 C 642.00238 178.240417 641.524353 176.14032 641.169739 168.172668 C 640.890564 161.898376 641.135803 158.464233 641.919006 157.68103 C 642.804688 156.795288 643.308899 156.873596 644.026306 158.008362 C 644.544983 158.828735 644.986145 162.650024 645.006653 166.5 C 645.031067 171.084045 645.6745 174.880554 646.871033 177.5 C 647.875916 179.700012 650.756409 183.389893 653.272156 185.699707 C 656.364929 188.539368 659.693115 190.43634 663.549255 191.557373 C 667.211121 192.621887 670.728271 192.987671 673.37616 192.579407 C 675.644287 192.229736 679.539246 191.277771 682.031677 190.463928 C 684.524109 189.650146 688.236633 187.605042 690.281677 185.919373 C 692.326782 184.233643 694 182.229614 694 181.465942 C 694 180.657959 691.833801 179.434204 688.818481 178.538757 C 685.968689 177.692444 680.433655 177 676.518494 177 C 672.394653 177 668.90509 177.494873 668.223633 178.176392 C 667.321777 179.078186 666.591492 178.940308 665.094421 177.585449 C 664.020386 176.613464 662.434753 174.328552 661.570801 172.507935 C 660.706848 170.687317 660 167.323669 660 165.033142 C 660 162.742615 660.431702 160.061829 660.959412 159.075867 C 661.487061 158.089905 663.110168 156.502625 664.566284 155.548523 C 666.237305 154.453613 667.563965 154.164001 668.163208 154.763245 C 668.762451 155.362488 668.1698 156.833191 666.556335 158.750671 C 665.033936 160.559937 664 163.025818 664 164.84729 C 664 166.529541 664.522217 169.052063 665.160522 170.452942 C 666.283081 172.916687 666.625305 173 675.625549 173 C 681.455017 173 686.659241 173.587036 689.559875 174.571838 C 692.106262 175.43634 694.435547 175.897766 694.736084 175.597229 C 695.036621 175.296692 693.531494 172.97998 691.391296 170.448975 C 689.251099 167.917908 685.997498 163.744019 684.161133 161.173523 C 681.891479 157.996582 679.860413 156.294189 677.818481 155.857361 C 676.166443 155.503906 674.331116 154.73114 673.740112 154.140137 C 672.97406 153.374023 673.144165 152.912598 674.332764 152.532776 C 675.249756 152.239746 676.656982 151.796021 677.459961 151.546753 C 678.732788 151.151611 678.721191 150.414368 677.369751 145.796753 C 676.51709 142.883545 674.847656 138.717407 673.659729 136.538696 C 672.471863 134.359985 670.073547 131.616638 668.330078 130.442322 C 666.58667 129.268066 662.410828 127.723816 659.050537 127.010742 C 654.371155 126.0177 651.407776 125.968201 646.392639 126.799255 C 642.791077 127.395996 637.066895 129.205505 633.67218 130.820313 C 630.277466 132.435059 625.700012 135.524658 623.5 137.685974 C 621.299988 139.84729 618.306946 143.8396 616.848816 146.5578 C 615.390686 149.276001 612.766785 156.224976 611.018005 162 C 609.269165 167.775024 606.469055 176.549988 604.795532 181.5 C 603.121948 186.450012 599.74646 194.501892 597.294434 199.393066 C 594.842407 204.284241 590.400879 212.223145 587.424316 217.035095 C 584.447815 221.847046 578.791077 229.233459 574.853821 233.449463 C 567.69519 241.114807 567.69519 241.114807 569.881042 243.807434 C 571.083252 245.28833 573.136108 248.75 574.442932 251.5 C 575.749756 254.25 577.360596 259.875 578.022644 264 C 578.684631 268.125 579.781921 272.849976 580.460999 274.5 C 581.140076 276.150024 584.750549 280.179443 588.484253 283.454285 C 592.2453 286.753174 595.930603 290.983032 596.747864 292.939026 C 597.738159 295.309021 598.027832 298.117188 597.629272 301.482666 C 597.241577 304.756104 595.976746 307.997864 593.98468 310.824036 C 590.986572 315.077515 590.938782 315.336609 591.216919 325.826111 C 591.488403 336.062988 591.599365 336.540955 593.926819 337.5 C 595.261597 338.049988 599.311584 339.896729 602.926819 341.603821 C 606.542053 343.310913 611.827148 346.80835 614.671509 349.375916 C 617.515808 351.94342 620.834717 356.092834 622.046814 358.596741 C 623.767517 362.151215 623.984985 363.406982 623.038818 364.324646 C 622.105347 365.230011 621.49884 365.040588 620.398621 363.5 C 619.613037 362.399994 617.514465 359.514282 615.735168 357.087341 C 613.955811 354.6604 610.110596 351.034973 607.190186 349.030884 C 604.269775 347.026794 599.833618 344.628479 597.332092 343.701355 C 594.830505 342.77417 592.382385 342.263672 591.891846 342.566833 C 591.39917 342.871338 591 357.563293 591 375.392365 C 591 393.143219 591.334656 408.001312 591.743652 408.410339 C 592.15271 408.819366 594.515198 408.863556 596.993652 408.508575 Z M 587.263916 407.097321 C 587.684021 406.698486 587.909058 391.550964 587.763916 373.436096 C 587.5 340.5 587.5 340.5 581.75 338.520264 C 578.587524 337.431396 576 336.152283 576 335.677856 C 576 335.203369 578.587524 334.969299 581.75 335.157593 C 587.5 335.5 587.5 335.5 587.794983 327.588379 C 587.957214 323.237 587.864502 319.089233 587.588867 318.371094 C 587.186462 317.322388 586.344055 317.376099 583.309204 318.644165 C 580.837952 319.676697 577.968262 320.036926 575.015259 319.685181 C 572.53186 319.389404 569.150024 318.570679 567.5 317.865784 C 565.849976 317.160889 563.903503 316.413208 563.1745 316.204224 C 562.445435 315.995239 561.320435 316.521179 560.6745 317.372925 C 560.028503 318.22467 557.388855 319.385254 554.808594 319.951904 C 552.228333 320.518555 549.39679 320.70575 548.516357 320.36792 C 547.635864 320.030029 547.078674 319.263977 547.278137 318.665527 C 547.4776 318.067139 549.822693 317.110046 552.48938 316.538757 C 555.156067 315.967407 557.547119 314.869263 557.802856 314.098328 C 558.156067 313.033447 557.695129 312.875244 555.883911 313.439941 C 554.572754 313.848694 550.879028 314.423401 547.675598 314.717102 C 544.044434 315.050049 541.433594 314.833557 540.742249 314.142212 C 540.132324 313.532349 539.941345 312.725342 540.31781 312.348816 C 540.694275 311.972351 543.495239 311.457642 546.542053 311.204956 C 549.588928 310.952271 551.950928 310.397644 551.790955 309.972412 C 551.63092 309.54718 549.348206 306.908447 546.718323 304.108582 C 544.088379 301.308716 541.015259 296.876343 539.889221 294.258972 C 538.763123 291.641541 537.764893 287.700012 537.670898 285.5 C 537.549683 282.662964 537.90564 281.5 538.895203 281.5 C 539.707764 281.5 540.897095 283.580444 541.742981 286.481445 C 542.54187 289.221191 544.014343 293.046204 545.015198 294.981445 C 546.016052 296.916626 548.784607 300.342285 551.16748 302.593933 C 553.550354 304.845581 557.845215 308.093262 560.711609 309.811035 C 563.578003 311.528809 568.187134 313.674744 570.954163 314.579834 C 574.20575 315.643372 577.257446 315.986694 579.582336 315.550537 C 581.757263 315.142517 584.929932 313.262207 587.606567 310.794983 C 590.041443 308.550598 592.308105 305.620667 592.643555 304.283936 C 592.979065 302.947205 592.77533 301.375366 592.190857 300.790833 C 591.440552 300.040527 588.491455 300.416016 582.159485 302.068054 C 574.758118 303.999023 572.736816 304.201111 570.593079 303.224365 C 569.164368 302.573425 567.098145 300.569092 566.001465 298.770386 C 564.904785 296.97168 564.005798 294.256897 564.003723 292.737549 C 564.000671 290.483582 565.003418 289.333252 569.451965 286.487549 C 572.450562 284.569397 575.825562 283 576.951965 283 C 578.078369 283 579 283.572693 579 284.272583 C 579 284.972534 577.329102 286.434998 575.286926 287.522583 C 573.244751 288.610168 570.46582 290.444641 569.111511 291.599243 C 566.64917 293.698547 566.64917 293.698547 568.8927 296.849243 C 570.652832 299.321167 571.865479 300 574.521057 300 C 576.38269 300 578.940308 299.528687 580.204651 298.952637 C 581.468933 298.376587 584.752625 297.572571 587.501709 297.166016 C 591.640564 296.553833 592.471008 296.089172 592.33136 294.463379 C 592.238586 293.383545 589.313599 289.948547 585.83136 286.830078 C 582.349121 283.711609 578.715088 279.849487 577.755737 278.247559 C 576.796448 276.64563 575.068665 270.647095 573.916321 264.91748 C 572.752014 259.128662 570.748291 252.640686 569.406677 250.315369 C 568.078735 248.013794 565.531494 245.088806 563.746155 243.815369 C 561.438293 242.16925 559.199219 241.523987 556 241.582947 C 553.409607 241.630737 549.590393 242.646484 547 243.976685 C 544.525024 245.247559 539.33197 249.485229 535.459961 253.393677 C 531.587952 257.302185 526.106934 263.622803 523.279846 267.439575 C 520.45282 271.256287 516.230225 277.716614 513.896301 281.795776 C 511.562378 285.874939 508.317932 293.7771 506.686432 299.356201 C 504.563751 306.614868 503.696014 311.775391 503.635468 317.5 C 503.558563 324.774597 503.858948 326.072388 506.94812 331.812561 C 508.81665 335.284607 512.630127 340.187012 515.422668 342.707214 C 518.21521 345.227356 523.424988 349.238037 527 351.619934 C 530.740845 354.112244 539.230591 358.082275 547 360.972412 C 554.424988 363.734436 561.123169 366.349396 561.884766 366.783447 C 562.646423 367.217499 563.190491 368.006287 563.093872 368.536316 C 562.997192 369.066345 562.149048 369.43808 561.209045 369.362427 C 560.269104 369.286774 557.967163 368.878937 556.09375 368.456177 C 552.6875 367.6875 552.6875 367.6875 553.350647 371.003113 C 553.715332 372.826691 555.555359 377.509491 557.439575 381.409363 C 559.323792 385.309204 563.216492 391.126556 566.090027 394.336761 C 568.963562 397.546997 572.931335 401.179016 574.907349 402.407928 C 576.883301 403.636841 580.299988 405.357849 582.5 406.232391 C 584.700012 407.106903 586.84375 407.496124 587.263916 407.097321 Z M 674.278503 383.017303 C 674.706665 382.646423 674.931702 375.890076 674.778503 368.003204 C 674.515991 354.488037 674.38501 353.653748 672.5 353.495483 C 671.400024 353.403137 668.71698 352.359375 666.53772 351.176086 C 664.358459 349.992737 662.20697 349.393066 661.756592 349.843445 C 661.306213 350.293762 661.064209 356.429443 661.218872 363.478149 C 661.5 376.294037 661.5 376.294037 667.5 379.992828 C 670.799988 382.02713 673.850342 383.388153 674.278503 383.017303 Z M 641.96991 382.509033 C 643.36145 382.18045 645.962524 381.446594 647.75 380.878265 C 649.537476 380.309906 651 379.429779 651 378.922455 C 651 378.4151 649.860535 378 648.467896 378 C 647.075195 378 644.411926 377.363312 642.549438 376.585114 C 640.686951 375.806915 638.901428 375.431915 638.581543 375.75177 C 638.261719 376.071625 638 377.533325 638 379 C 638 380.466675 638.323975 381.990601 638.71991 382.386566 C 639.115845 382.782501 640.578308 382.837616 641.96991 382.509033 Z M 679 379 C 679.549988 379 680 377.649994 680 376 C 680 374.350006 679.549988 373 679 373 C 678.450012 373 678 374.350006 678 376 C 678 377.649994 678.450012 379 679 379 Z M 684.11554 378 C 684.729065 378 688.245117 375.996216 691.929077 373.54715 C 695.612976 371.098114 701.508301 366.791138 705.029846 363.976166 C 708.551331 361.161194 714.768188 355.87262 718.845093 352.223816 C 726.257629 345.5896 726.257629 345.5896 725.713318 338.5448 C 725.390747 334.370056 723.886475 327.970093 722.020874 322.83551 C 720.289368 318.070007 717.425476 311.767517 715.656555 308.830017 C 713.887695 305.892517 709.842163 299.975708 706.666504 295.68158 C 702.78241 290.429565 700.33905 287.980652 699.201538 288.199707 C 698.271484 288.378845 695.630493 291.444641 693.332642 295.012695 C 691.034851 298.580688 688.412964 302.527039 687.506348 303.782288 C 686.59967 305.037598 684.089844 307.180725 681.928955 308.544861 C 678 311.025085 678 311.025085 678 321.595886 C 678 327.40979 678.389099 332.016663 678.864624 331.833313 C 679.34021 331.650024 681.387207 330.222778 683.413574 328.661804 C 685.439941 327.100769 687.750854 326.074158 688.54895 326.380432 C 689.347046 326.686646 690 327.363586 690 327.884705 C 690 328.405823 687.287964 331.286438 683.973267 334.286072 C 677.946533 339.73999 677.946533 339.73999 678.223267 354.872375 C 678.375488 363.195221 678.864563 369.9711 679.310181 369.929901 C 679.755798 369.888702 680.76825 370.392731 681.560181 371.049927 C 682.352051 371.707153 683 373.539795 683 375.122437 C 683 376.705109 683.501953 378 684.11554 378 Z M 655.845032 374.371552 C 656.03479 374.246002 656.230103 371.137726 656.278992 367.464325 C 656.350098 362.123352 656.022888 360.592346 654.645752 359.821655 C 653.698547 359.291565 651.587036 359.151428 649.953491 359.510193 C 648.319946 359.869019 646.521301 361.026001 645.956482 362.081268 C 645.391724 363.136566 644.217957 364 643.348206 364 C 642.246033 364 641.92926 363.378479 642.30304 361.94928 C 642.597961 360.821411 643.377869 359.249634 644.036133 358.456482 C 644.694397 357.66333 646.868042 356.600708 648.866516 356.095093 C 650.864929 355.589539 653.625 355.248779 655 355.337952 C 657.221375 355.481934 657.5 355.109863 657.5 352 C 657.5 348.580322 657.411072 348.502869 653.623047 348.625305 C 651.490723 348.694275 648.225159 349.475952 646.366211 350.362427 C 644.507263 351.248901 642.064331 353.442505 640.9375 355.237061 C 639.385498 357.708801 638.989746 359.672058 639.305542 363.333435 C 639.582397 366.543365 640.448242 368.894623 641.883301 370.333435 C 643.18689 371.640503 646.316467 372.916504 649.772034 373.549927 C 652.922424 374.12738 655.655273 374.497131 655.845032 374.371552 Z M 674.191101 350 C 674.635986 350 675 348.424988 675 346.5 C 675 344.575012 674.619751 343 674.154968 343 C 673.690247 343 672.458679 343.940674 671.418274 345.090332 C 669.561951 347.141541 669.562622 347.207031 671.454407 348.590332 C 672.514709 349.365662 673.746277 350 674.191101 350 Z M 200.5 347.895691 C 208.451981 347.92511 212.013855 347.547119 213.354462 346.531555 C 214.374405 345.758911 215.049408 344.760742 214.854462 344.313354 C 214.6595 343.866028 213.600006 343.389343 212.5 343.254028 C 211.399994 343.118774 209.733368 343.447021 208.796356 343.983582 C 207.85936 344.520081 206.861267 344.584534 206.5784 344.126831 C 206.295517 343.669128 206.688293 342.440979 207.451233 341.397583 C 208.67865 339.718994 209.214371 339.642456 212.103256 340.732849 C 213.898926 341.410645 215.606873 341.72644 215.898682 341.434631 C 216.190506 341.142822 215.947495 340.138184 215.358673 339.202026 C 214.769806 338.265869 212.481186 337.252441 210.272339 336.949829 C 208.06369 336.647217 203.683044 334.847229 200.537582 332.949829 C 197.392136 331.052429 192.04689 327.202087 188.659286 324.393555 C 185.271683 321.585083 177.74437 314.385071 171.931931 308.393555 C 166.119507 302.4021 160.632889 296.375 159.739471 295 C 158.846054 293.625 157.81604 291.712524 157.450546 290.75 C 157.007629 289.583618 157.268417 289 158.232544 289 C 159.028137 289 161.709152 291.587524 164.190353 294.75 C 166.67157 297.912476 173.910187 305.563721 180.276184 311.752747 C 186.642166 317.941772 192.544327 323.271667 193.392075 323.596985 C 194.321747 323.953735 196.713394 322.729919 199.41861 320.513184 C 201.885452 318.49176 204.825424 316.596924 205.951889 316.302307 C 207.078354 316.007751 208 316.215027 208 316.762878 C 208 317.310791 205.975006 319.418396 203.5 321.446472 C 201.024994 323.474548 199 325.759827 199 326.52478 C 199 327.289795 201.12587 329.16156 203.724136 330.684204 C 207.094162 332.65918 210.032211 333.516968 213.974136 333.676819 C 217.013367 333.800049 220.797287 333.39386 222.382858 332.774109 C 223.96843 332.154358 226.574799 330.545776 228.174789 329.199463 C 229.774796 327.853149 230.915009 326.244995 230.708603 325.625793 C 230.502213 325.006592 229.920837 324.461121 229.416672 324.413635 C 228.912506 324.36615 227.738785 323.990601 226.808411 323.579041 C 225.878036 323.167542 224.380554 322.981384 223.480667 323.165405 C 222.58078 323.349426 220.564117 325.072144 218.999191 326.993591 C 217.434265 328.9151 215.855209 330.188538 215.490189 329.823486 C 215.125153 329.458496 215.907288 326.986389 217.228287 324.329895 C 219.168594 320.42804 220.192383 319.434753 222.556549 319.160278 C 224.166092 318.97345 226.274323 319.314758 227.241501 319.918762 C 228.611786 320.774475 229 320.701111 229 319.586426 C 229 318.799622 227.220917 316.632996 225.046478 314.77179 C 222.87204 312.910522 219.834534 310.79834 218.296478 310.077942 C 216.758408 309.357605 214.824997 308.443481 214 308.046631 C 213.175003 307.649719 210.6194 304.223938 208.320892 300.433716 C 206.022385 296.643494 201.460144 290.583801 198.182602 286.967773 C 194.905045 283.351746 190.764969 278.022888 188.982422 275.125854 C 186.715622 271.441833 186.057541 269.54248 186.793091 268.806885 C 187.528641 268.07135 188.694687 268.982971 190.672379 271.839661 C 192.22757 274.086121 194.053391 275.941162 194.729767 275.962036 C 195.406143 275.98291 197.29039 273.6698 198.916977 270.821716 C 200.543579 267.973633 202.652603 262.768616 203.603699 259.254944 C 205.332977 252.866516 205.332977 252.866516 197.799179 245.683228 C 191.095795 239.291748 190.140533 237.915894 189.13269 233.200806 C 188.509705 230.286194 187.946762 225.336182 187.881683 222.200806 C 187.816605 219.065369 187.479111 215.234558 187.131683 213.687927 C 186.540482 211.056091 185.979294 211.664917 178.375214 223.187927 C 173.906586 229.959595 166.144089 241.061401 161.125214 247.858643 C 153.764252 257.827881 152 260.886292 152 263.677429 C 152 265.580505 153.146423 271.660156 154.547607 277.187805 C 155.948807 282.715454 156.810059 287.522034 156.461533 287.86908 C 156.113007 288.216064 155.002075 287.481506 153.992798 286.236633 C 152.983521 284.99176 151.931519 283.416748 151.654999 282.736633 C 151.280777 281.816101 150.876022 281.883423 150.071594 283 C 149.477234 283.825012 148.051636 287.424988 146.903595 291 C 145.755569 294.575012 144.566971 300.36261 144.262283 303.861328 C 143.708298 310.222717 143.708298 310.222717 150.990448 317.125305 C 154.995636 320.921692 162.373764 327.349243 167.386307 331.408691 C 172.398834 335.46814 179.425003 340.829224 183 343.322205 C 189.5 347.854919 189.5 347.854919 200.5 347.895691 Z M 194.587631 344.840942 C 193.235443 346.193115 193.008652 346.186096 192.467255 344.775269 C 192.13382 343.906372 192.450531 342.251465 193.171051 341.097717 C 193.891571 339.94397 195.100327 339 195.857178 339 C 196.775574 339 197.045105 339.719543 196.667526 341.163391 C 196.356369 342.353271 195.42041 344.008179 194.587631 344.840942 Z M 720.065979 346 C 719.617188 346 718.999512 344.747559 718.693359 343.216858 C 718.387207 341.686157 717.216614 339.601013 716.09198 338.583191 C 714.967346 337.56543 714.288879 336.341614 714.58429 335.863647 C 714.8797 335.385681 716.032166 335.482056 717.145325 336.077759 C 718.258545 336.673523 719.820557 338.719543 720.616455 340.624512 C 721.412415 342.52948 721.797729 344.51825 721.472778 345.044006 C 721.147827 345.569824 720.514771 346 720.065979 346 Z M 663.558533 345 C 664.232361 345 667.082336 342.933289 669.891846 340.407349 C 675 335.814636 675 335.814636 675 323.432983 C 675 311.051331 675 311.051331 671.75 309.411499 C 669.962524 308.509583 667.238037 306.585571 665.695679 305.135864 C 664.15332 303.686157 662.46582 302.349976 661.945679 302.166687 C 661.370972 301.964111 661 310.038086 661 322.75 C 661 334.25415 661.299988 343.966675 661.666687 344.333313 C 662.033325 344.700012 662.884644 345 663.558533 345 Z M 342.230621 340 C 345.378143 340 346.8703 339.327087 349.437347 336.75 C 351.217926 334.962524 354.0979 330.510681 355.837372 326.857056 C 357.576813 323.20343 359 318.733154 359 316.923218 C 359 314.301025 358.031525 312.704468 354.233765 309.066162 C 351.612335 306.554749 347.83252 303.634521 345.834137 302.57666 C 342.200775 300.65332 342.200775 300.65332 337.350372 304.922791 C 334.682678 307.270996 332.5 309.583557 332.5 310.061768 C 332.5 310.539978 334.618988 312.275085 337.208893 313.917542 C 339.798767 315.559998 343.235779 318.723267 344.84668 320.947021 C 346.457581 323.170837 348.083496 326.631531 348.459808 328.637451 C 348.957642 331.291138 348.72699 332.701599 347.613098 333.815491 C 346.238556 335.190002 345.990814 335.098877 345.187531 332.923218 C 344.695465 331.590454 344.002106 329.29718 343.646729 327.827087 C 343.291351 326.356934 341.818848 323.749756 340.374512 322.033203 C 338.930145 320.316711 336.117523 318.079895 334.124207 317.062561 C 332.13089 316.045227 329.600006 314.199219 328.5 312.960327 C 327.000946 311.271973 326.829285 310.592896 327.814636 310.249023 C 328.537659 309.996704 329.506561 308.824951 329.967743 307.645142 C 330.428925 306.465332 332.312347 304.089294 334.153107 302.365173 C 335.993896 300.640991 338.414459 298.681458 339.532104 298.010681 C 341.169525 297.027954 342.284149 297.091858 345.271057 298.339905 C 347.309814 299.191772 351.054901 301.317749 353.593445 303.06427 C 356.131989 304.810852 359.117584 307.779846 360.228119 309.662048 C 361.338654 311.54425 362.592621 312.95282 363.014709 312.792114 C 363.436798 312.63147 365.642944 310.135803 367.917236 307.246277 C 370.191559 304.35675 374.954651 299.711731 378.501923 296.924072 C 384.767944 291.999817 384.908142 291.78949 383.429169 289.532227 C 382.591888 288.254395 380.980408 286.966614 379.848083 286.670532 C 378.703552 286.371216 377.994873 285.547729 378.252258 284.81604 C 378.506927 284.092224 379.566833 283.57959 380.607635 283.67688 C 381.648438 283.77417 383.763275 285.349182 385.307312 287.17688 C 388.059052 290.434204 388.144714 290.460388 389.635803 288.5 C 390.629486 287.193542 391.007111 285.112915 390.724854 282.5 C 390.487183 280.299988 388.909119 275.764221 387.218018 272.420471 C 385.526947 269.076721 382.626556 264.351746 380.772766 261.920471 C 378.918945 259.489197 376.646362 256.150024 375.722534 254.5 C 374.798737 252.849976 373.358246 248.735046 372.521454 245.355652 C 371.684662 241.976257 371 237.124329 371 234.573547 C 371 232.022766 370.377869 228.446777 369.617493 226.626953 C 368.857117 224.807068 365.684357 221.10907 362.566956 218.409058 C 359.449554 215.709106 354.559174 212.120056 351.699463 210.433472 C 348.834198 208.743591 345.348083 205.601074 343.934082 203.433472 C 342.522827 201.270081 338.500183 192.974976 334.994904 185 C 331.489624 177.025024 325.990295 165.340393 322.77417 159.03418 C 319.558044 152.727966 314.83783 143.727966 312.28479 139.03418 C 309.73175 134.340393 306.264771 129.205627 304.580414 127.623657 C 301.629852 124.852356 301.23996 124.766296 293.912506 125.268555 C 289.729553 125.555237 284.933167 126.500305 283.253937 127.368713 C 281.574677 128.237061 278.693085 130.709839 276.850372 132.86377 C 275.00766 135.0177 271.700012 140.280579 269.5 144.559021 C 265.5 152.338013 265.5 152.338013 265.343292 165.419006 C 265.257111 172.613525 265.032104 187.5 264.843292 198.5 C 264.577301 213.99646 264.825287 219.48053 265.944519 222.85437 C 266.738983 225.249329 268.439911 227.897339 269.724304 228.738892 C 271.463257 229.878357 273.713043 230.136292 278.535156 229.749268 C 282.640289 229.419739 286.997101 228.257629 290.436981 226.574646 C 293.421417 225.114502 297.223694 222.3703 298.886505 220.476501 C 300.549316 218.582642 302.443939 215.250305 303.096802 213.071289 C 303.911255 210.352844 304.061859 205.561462 303.576599 197.804688 C 303.187653 191.587097 302.625397 183.575012 302.327148 180 C 302.010773 176.208069 302.306763 171.41687 303.037598 168.5 C 303.726593 165.75 304.5625 161.285645 304.895172 158.579163 C 305.227814 155.872681 306.045898 153.47821 306.713104 153.258118 C 307.380341 153.038025 308.221283 154.033508 308.581909 155.470337 C 308.942535 156.907227 308.452362 161.824524 307.492645 166.397705 C 305.824158 174.348328 305.827606 175.338867 307.571106 189.004883 C 309.277618 202.381226 309.290588 203.799561 307.773285 211.13739 C 306.881622 215.449524 305.178375 220.345154 303.988281 222.016479 C 302.798187 223.687805 299.501465 226.277161 296.662231 227.770569 C 293.822998 229.264038 289.475006 231.20282 287 232.079041 C 282.5 233.67218 282.5 233.67218 282.238678 273.794861 C 281.98468 312.796509 282.032288 313.946899 283.942596 314.969299 C 285.023468 315.547729 288.564575 316.298706 291.811707 316.638123 C 296.05777 317.081909 299.139313 316.782288 302.785614 315.571228 C 305.574097 314.64502 309.637604 312.596375 311.815613 311.018616 C 315.049591 308.675903 315.843384 307.439331 316.145294 304.273743 C 316.348602 302.141846 318.086578 297.774963 320.007477 294.569519 C 321.928375 291.364136 325.394958 287.337219 327.710999 285.620789 C 330.027039 283.904358 331.937866 282.049988 331.957245 281.5 C 331.976654 280.950012 330.081696 279.711182 327.746246 278.74707 C 325.410828 277.782959 322.149994 275.904053 320.5 274.571716 C 318.174286 272.693726 317.766632 271.877075 318.68634 270.938293 C 319.612823 269.992554 320.680878 270.204163 323.562378 271.904297 C 325.591705 273.101624 327.404663 273.92865 327.591187 273.742126 C 327.77771 273.555603 326.839203 270.701721 325.505646 267.400146 C 324.172089 264.098572 322.950256 259.443909 322.790497 257.056396 C 322.610016 254.359314 322.952179 252.555542 323.694031 252.293091 C 324.410004 252.039795 325.324951 253.598206 325.979187 256.185303 C 326.579315 258.558411 327.753662 262.378357 328.588898 264.674133 C 329.424103 266.96991 331.451385 270.703491 333.093903 272.970947 C 334.73645 275.238403 336.767639 277.357361 337.607635 277.679688 C 338.447632 278.002014 340.199219 277.696167 341.5 277 C 342.800781 276.303833 344.562836 276.002014 345.41568 276.329285 C 346.268524 276.656555 346.715088 277.578857 346.408081 278.378906 C 346.101074 279.178955 344.196167 280.894531 342.174957 282.191284 C 340.153717 283.488037 336.764771 285.437988 334.643951 286.524475 C 332.523132 287.611023 328.895599 290.591675 326.582764 293.148193 C 324.269928 295.704651 321.842651 299.581848 321.188812 301.76416 C 320.534973 303.946533 320 307.494263 320 309.648071 C 320 311.801941 320.606262 315.901306 321.347229 318.757874 C 322.088226 321.614441 323.965576 325.785828 325.519135 328.027588 C 327.072693 330.269409 330.575226 333.88031 333.302521 336.051819 C 337.198029 339.153442 339.112335 340 342.230621 340 Z M 242 337.652161 C 244.5 337.5 244.5 337.5 244.714157 307.547485 C 244.83194 291.073608 244.718765 277.385437 244.462646 277.129333 C 244.206528 276.87323 242.878433 277.262268 241.511307 277.993958 C 239.545197 279.046204 238.218063 279.082275 235.162247 278.166748 C 232.62236 277.405762 229.449173 275.04126 225.899429 271.264587 C 222.929749 268.105042 218.069244 263.379456 215.098328 260.763367 C 211.198227 257.329102 209.356537 256.289124 208.473114 257.022339 C 207.800171 257.580811 206.955551 259.876526 206.596191 262.12384 C 206.236816 264.371216 205.297012 267.45874 204.507706 268.985107 C 203.718414 270.511414 201.896988 273.15741 200.460083 274.865051 C 199.023193 276.572693 197.994354 278.543884 198.173782 279.245483 C 198.353195 279.947021 201.108856 283.666321 204.29747 287.510498 C 207.486084 291.354736 211.236282 296.831604 212.631256 299.681396 C 214.340714 303.173645 216.036743 305.167419 217.833771 305.797302 C 219.300201 306.31134 222.805679 308.5578 225.623734 310.789368 C 228.675446 313.206055 231.640686 316.692017 232.956238 319.409607 C 234.524475 322.649109 234.970871 324.85614 234.495605 327.02002 C 234.127426 328.696289 232.723694 330.790161 231.376175 331.673096 C 230.028656 332.55603 229.086945 333.760864 229.283493 334.350464 C 229.480026 334.940063 231.859146 335.958435 234.570419 336.613403 C 237.281693 337.268433 240.625 337.73584 242 337.652161 Z M 251.427658 337.416565 C 252.567444 337.083557 255.766891 335.466492 258.537537 333.823059 C 261.308167 332.179626 266.480713 328.490356 270.032074 325.624695 C 273.583435 322.759033 276.627716 319.69458 276.79715 318.814758 C 277.020203 317.656616 275.227417 316.503174 270.302612 314.636292 C 266.561188 313.217957 260.431915 310.911865 256.682007 309.511719 C 252.932114 308.111572 249.444611 307.22522 248.932007 307.541992 C 248.419403 307.858826 248 314.541504 248 322.392334 C 248 330.243225 248.304947 336.971619 248.677658 337.34436 C 249.050385 337.717041 250.287888 337.749573 251.427658 337.416565 Z M 642.266174 322.13385 C 641.546143 322.853882 640.287415 322.301025 638.175049 320.336914 C 636.496948 318.776611 633.353882 314.920471 631.190552 311.767761 C 629.027161 308.61499 626.319885 303.440002 625.174438 300.267761 C 624.028931 297.095459 622.141724 291.203003 620.980713 287.17334 C 619.819641 283.143738 616.803589 275.601624 614.27832 270.413208 C 611.753113 265.224792 610.020691 260.646729 610.428589 260.239868 C 610.836426 259.832947 612.144348 260.637207 613.335083 262.027161 C 614.525757 263.417114 616.961792 267.467163 618.748474 271.027161 C 620.535156 274.587219 623.399231 282.224976 625.113098 288 C 626.826965 293.775024 629.36615 300.75 630.755737 303.5 C 632.145325 306.25 634.90625 310.440002 636.891113 312.811096 C 638.875977 315.18219 641.131409 318.015747 641.903137 319.107971 C 642.874512 320.482788 642.986206 321.413757 642.266174 322.13385 Z M 153.940811 313.53656 C 153.499374 313.809387 152.85437 313.573364 152.507477 313.012085 C 152.160583 312.450806 152.88736 310.193481 154.122528 307.995789 C 155.357697 305.798096 157.012909 304 157.800766 304 C 158.693924 304 159.054001 304.685547 158.757126 305.82074 C 158.495239 306.822205 157.485031 308.856323 156.512192 310.341064 C 155.539368 311.825745 154.382233 313.263733 153.940811 313.53656 Z M 278.262054 312.001465 C 278.681183 311.65741 278.906189 294.08429 278.762054 272.950073 C 278.5 234.524292 278.5 234.524292 273.5 233.813721 C 269.566406 233.254639 267.819733 232.362854 265.310455 229.632202 C 263.556183 227.723206 261.764771 224.4375 261.329498 222.330627 C 260.894257 220.223816 260.690186 207.539185 260.876007 194.142639 C 261.147308 174.584106 260.946533 169.538269 259.856934 168.531494 C 259.110626 167.841858 254.675003 166.5047 250 165.559937 C 245.324997 164.615112 236.550003 163.59613 230.5 163.29541 C 223.620163 162.95343 217.328522 163.2005 213.702591 163.955078 C 209.402328 164.849915 207.033066 166.03363 204.52803 168.538635 C 202.670593 170.396057 199.50592 175.244141 197.495422 179.312073 C 194.297653 185.782349 193.712357 188.135193 192.820755 198.104187 C 192.260178 204.371887 192.084198 215.122498 192.429672 221.994507 C 192.976196 232.865417 193.367203 234.956482 195.438599 238.086609 C 196.748032 240.065247 203.07486 245.894958 209.498245 251.041504 C 215.921631 256.187988 224.117416 263.684082 227.711136 267.699402 C 232.350189 272.882751 234.933792 275 236.61969 275 C 237.92569 275 240.720047 273.440857 242.829376 271.535156 C 244.938705 269.629517 247.466125 266.292725 248.445847 264.120056 C 249.787949 261.143799 250.132629 258.361267 249.843704 252.8349 C 249.515701 246.560974 248.81218 244.210876 244.980118 236.588013 C 242.516052 231.686462 238.298386 225.253235 235.607513 222.291931 C 232.916641 219.330627 229.164505 216.259949 227.26944 215.46814 C 225.374359 214.67627 223.975983 213.607117 224.161926 213.092163 C 224.34787 212.577209 225.639923 211.264893 227.033173 210.175903 C 228.426422 209.086914 230.55687 206.014343 231.767487 203.347961 C 232.978119 200.68158 234.82283 196.25 235.866837 193.5 C 236.910858 190.75 238.380417 188.5 239.132523 188.5 C 239.963135 188.5 240.443115 189.481506 240.355103 191 C 240.275421 192.375 239.889862 195.12085 239.498306 197.101807 C 238.793396 200.668274 238.82428 200.7099 242.643204 201.34082 C 244.764435 201.691284 248.1875 201.982971 250.25 201.989014 C 252.871628 201.996704 254 202.440735 254 203.464844 C 254 204.270447 253.093689 205.414673 251.985992 206.007507 C 250.833282 206.62439 248.374237 206.796143 246.235992 206.409058 C 244.181198 206.037048 241.275909 205.11322 239.779785 204.356079 C 237.278366 203.090149 236.942352 203.161255 235.602249 205.239746 C 234.800735 206.482849 233.619415 208.673157 232.977097 210.106995 C 231.893982 212.524902 232.161758 213.06897 236.66864 217.606995 C 239.341293 220.298157 243.754166 226.088562 246.475021 230.474609 C 249.195877 234.860596 252.047714 240.349731 252.812454 242.672607 C 253.718475 245.424683 254.080444 249.988892 253.85144 255.77356 C 253.546631 263.4729 253.131622 265.207275 250.724045 268.843262 C 247.958282 273.020142 247.949112 273.091125 248.224045 288.181152 C 248.5 303.326782 248.5 303.326782 254.646332 304.579468 C 258.026825 305.268433 264.551819 307.360962 269.146332 309.229614 C 273.740845 311.098206 277.842926 312.345581 278.262054 312.001465 Z M 676.837708 305.596436 C 678.673462 305.321899 681.194824 304.062866 682.440735 302.798645 C 683.686584 301.534363 685.952698 298.474976 687.476563 296 C 689.000366 293.525024 691.091492 290.570984 692.123535 289.435547 C 693.228333 288.220093 694 285.892029 694 283.774414 C 694 280.985779 693.308716 279.59613 690.922913 277.588623 C 689.23053 276.164551 686.752563 274.725037 685.416382 274.389648 C 684.080139 274.05426 681.479492 274.062683 679.637146 274.408264 C 677.794861 274.753906 674.197815 276.420837 671.643738 278.11261 C 669.089661 279.804321 667 281.81543 667 282.581665 C 667 283.347961 668.690002 285.041748 670.755554 286.345703 C 672.821106 287.649597 676.196106 290.581543 678.255554 292.861145 C 680.475281 295.318115 682 298.022583 682 299.502869 C 682 300.876282 681.609802 302 681.132874 302 C 680.655945 302 679.089539 300.222595 677.651917 298.050171 C 676.214294 295.877747 672.222412 292.165283 668.781128 289.800171 C 665.339844 287.435059 662.181274 285.349976 661.762085 285.166687 C 661.342957 284.983337 661 286.008667 661 287.44519 C 661 288.881714 662.364136 292.759399 664.031494 296.062378 C 665.892517 299.749084 668.305603 302.845276 670.281494 304.081665 C 672.49353 305.46582 674.543762 305.939514 676.837708 305.596436 Z M 168.75 284.549438 C 167.58844 284.99054 167 284.732239 167 283.781311 C 167 282.993347 168.012497 281.426392 169.25 280.299255 C 170.487503 279.172119 172.560806 277.702026 173.857361 277.032349 C 175.571518 276.146912 176.514786 276.114807 177.314499 276.91449 C 178.114212 277.714233 178.016708 278.387817 176.957138 279.383301 C 176.155716 280.13623 174.375 281.457092 173 282.318604 C 171.625 283.180054 169.712494 284.18396 168.75 284.549438 Z M 698.026794 280.961487 C 698.316589 280.982666 701.691589 277.805603 705.526794 273.901306 C 709.362061 269.99707 716.212524 263.674622 720.75 259.851563 C 725.287476 256.028442 729 252.247864 729 251.450195 C 729 250.652588 728.208252 250 727.24054 250 C 726.272827 250 724.924683 249.109009 724.244629 248.020081 C 723.564514 246.931091 721.881287 245.757324 720.504089 245.411682 C 719.126831 245.065979 718 244.408508 718 243.950623 C 718 243.492676 718.412231 242.863281 718.916077 242.55188 C 719.419922 242.240479 721.107422 242.459167 722.666077 243.037903 C 724.224731 243.616577 726.064209 244.83313 726.753723 245.741272 C 727.690125 246.974548 728.295227 247.104736 729.144226 246.255737 C 729.820679 245.579285 730.042114 243.646973 729.69104 241.483643 C 729.366577 239.484192 727.872192 235.744873 726.370178 233.174133 C 724.868225 230.603333 719.033264 223.78125 713.403687 218.013916 C 703.884338 208.261536 702.864868 207.504089 698.834045 207.188782 C 695.929993 206.96167 692.025452 207.742981 687 209.556824 C 682.875 211.045654 677.827087 213.666992 675.782471 215.381897 C 673.737793 217.096863 669.575317 221.391479 666.532471 224.925537 C 661 231.351013 661 231.351013 661 244.675537 C 661 252.003967 661.122986 258 661.273254 258 C 661.423523 258 665.50592 254.0625 670.345215 249.25 C 675.184509 244.4375 680.66095 239.204529 682.515076 237.621155 C 684.689514 235.764282 686.487183 234.972961 687.579224 235.392029 C 689.145447 235.993042 689.133179 236.195374 687.414734 238.094177 C 685.562622 240.140808 685.571594 240.145752 690.528625 239.823364 C 694.424683 239.569946 695.5 239.824463 695.5 241 C 695.5 241.99823 693.660156 242.923035 690 243.764709 C 686.974976 244.460266 682.700012 245.879272 680.5 246.918091 C 678.299988 247.956848 674.179565 251.212769 671.343384 254.153381 C 668.507263 257.094055 665.019775 261.250305 663.593384 263.389526 C 661.481689 266.556641 661 268.46051 661 273.639526 C 661 278.223755 661.366638 280 662.312927 280 C 663.035034 280 664.867981 278.703491 666.386108 277.118835 C 667.904297 275.534241 671.013794 273.396729 673.296143 272.368835 C 675.743164 271.266846 679.610046 270.521667 682.720398 270.552856 C 686.388184 270.5896 688.833374 271.224304 690.747437 272.636414 C 692.261353 273.753296 694.400024 276.074707 695.5 277.795044 C 696.599976 279.515381 697.737061 280.940308 698.026794 280.961487 Z M 316.419128 279.651978 C 315.824646 279.873047 314.046173 279.029297 312.46698 277.776978 C 310.887787 276.524658 306.901764 274.345276 303.609161 272.93396 C 300.316589 271.522644 297.445038 269.835144 297.227997 269.18396 C 297.004974 268.514893 297.775574 268 299 268 C 300.191681 268 301.016663 267.566772 300.833344 267.037292 C 300.649994 266.507874 299.600708 265.419617 298.501587 264.61908 C 297.402435 263.818542 296.80777 262.858887 297.180054 262.486572 C 297.552368 262.114319 299.144836 262.092529 300.718872 262.438232 C 302.292908 262.783997 305.065369 263.969666 306.879852 265.07312 C 309.673492 266.772034 309.983582 267.31488 308.903778 268.615906 C 307.862061 269.871155 307.891449 270.327698 309.064301 271.10968 C 309.853943 271.63623 311.174988 272.468933 312 272.960205 C 312.825012 273.451477 314.262756 274.448914 315.195038 275.176697 C 316.127319 275.904541 317.027313 277.118774 317.195038 277.875 C 317.362762 278.631226 317.013611 279.430908 316.419128 279.651978 Z M 242.955505 268.023804 C 241.747269 268.670471 240.910278 268.663818 240.502762 268.004456 C 240.162521 267.453918 240.585205 266.002563 241.442062 264.779236 C 242.298935 263.555908 242.998322 261.417603 242.996262 260.027466 C 242.994202 258.63739 242.114105 256.059326 241.040482 254.298523 C 239.966858 252.53772 237.722427 250.390686 236.052856 249.527344 C 234.235718 248.587646 232.001938 248.212402 230.487762 248.592407 C 229.096527 248.941589 226.667847 250.792786 225.090668 252.706177 C 223.513504 254.619568 221.385391 256.25592 220.361542 256.342529 C 219.108154 256.448547 218.551544 255.891235 218.657791 254.636597 C 218.744568 253.611694 220.523407 251.024231 222.610733 248.886597 C 226.080582 245.33313 226.862198 245 231.729263 245 C 236.674255 245 237.360443 245.3078 241.383255 249.330627 C 244.14505 252.092407 245.950897 254.924744 246.368195 257.149109 C 246.728073 259.067444 246.520126 262.078125 245.906082 263.8396 C 245.292038 265.601013 243.964279 267.483948 242.955505 268.023804 Z M 657.214294 246 C 657.646423 246 658 243.974976 658 241.5 C 658 239.025024 657.647034 237 657.215637 237 C 656.78418 237 655.679016 238.273376 654.759644 239.829773 C 653.198059 242.473267 653.197998 242.769409 654.758301 244.329773 C 655.676941 245.248413 656.782166 246 657.214294 246 Z M 317.893005 245 C 317.401855 245 317 244.126587 317 243.059021 C 317 241.991455 317.418915 240.859131 317.930908 240.542725 C 318.442902 240.226257 319.119354 240.384094 319.434143 240.893433 C 319.748932 241.402771 319.731873 242.535095 319.396271 243.409729 C 319.060638 244.284363 318.384155 245 317.893005 245 Z M 610.815308 243.1922 C 610.476379 245.5 610.476379 245.5 608.658752 242.804321 C 607.659119 241.321716 606.599426 239.184204 606.303955 238.054321 C 606.003845 236.906738 606.249451 236 606.860291 236 C 607.461792 236 608.67395 237.098999 609.554077 238.4422 C 610.434204 239.7854 611.001709 241.922913 610.815308 243.1922 Z M 312.165863 241.778076 C 311.271576 242.076172 310.941864 241.513611 311.165863 240.071777 C 311.34964 238.888733 311.950012 237.938599 312.5 237.960388 C 313.049988 237.982178 313.5 238.75 313.5 239.666687 C 313.5 240.583313 312.899628 241.533447 312.165863 241.778076 Z M 648.694946 238.936157 C 649.352173 238.971252 651.714722 236.451721 653.944946 233.337219 C 658 227.674438 658 227.674438 658 210.862915 C 658 194.051331 658 194.051331 654.885071 192.440552 C 653.171875 191.554626 651.423035 191.205627 650.998718 191.664917 C 650.574463 192.124207 649.280579 196.677307 648.123474 201.782898 C 646.96637 206.888489 644.374878 214.988464 642.364563 219.782898 C 640.354309 224.577271 638.534851 229.400024 638.32135 230.5 C 638.033325 231.984192 639.166931 233.321777 642.716614 235.686157 C 645.347473 237.438477 648.03772 238.901001 648.694946 238.936157 Z M 281.326874 225 C 280.11203 225 278.865143 224.59082 278.55603 224.090637 C 278.246918 223.590515 280.018616 222.201233 282.493103 221.003357 C 284.967621 219.80542 287.894165 217.678711 288.996521 216.277283 C 290.098907 214.875854 291.517609 212.004395 292.1492 209.896362 C 293.022278 206.9823 293.015198 205.723267 292.11969 204.644226 C 291.205139 203.542297 289.064911 203.342041 282.547058 203.748657 C 277.929932 204.036743 273.367767 203.971375 272.408936 203.603455 C 271.310669 203.182007 271.016296 202.583679 271.613373 201.986633 C 272.134674 201.465332 277.186951 200.735657 282.840637 200.365173 C 291.468964 199.799683 293.372345 199.943787 294.690796 201.262207 C 295.864044 202.435486 296.147675 204.20575 295.811615 208.258118 C 295.524658 211.718628 294.542175 214.834229 293.098663 216.86145 C 291.853973 218.609436 289.193146 221.155701 287.185669 222.519775 C 285.178192 223.883911 282.541748 225 281.326874 225 Z M 293.802826 179.640442 C 293.086273 179.717651 290.475006 179.093933 288 178.254333 C 285.524994 177.414795 282.419037 176.317566 281.09787 175.81604 C 279.365234 175.158386 278.999329 174.600647 279.785004 173.815002 C 280.426697 173.17334 282.796112 172.942322 285.551361 173.25293 C 288.123779 173.542847 291.372986 174.634583 292.77182 175.678955 C 294.170685 176.723328 295.268036 178.010315 295.210419 178.53894 C 295.152802 179.067505 294.519379 179.563171 293.802826 179.640442 Z"/>
</svg>
