<?xml version="1.0" encoding="UTF-8"?>
<!-- Generated by Pixelmator Pro 3.2.3 -->
<svg width="766" height="553" viewBox="0 0 766 553" xmlns="http://www.w3.org/2000/svg" xmlns:xlink="http://www.w3.org/1999/xlink">
    <path id="Shape" fill="none" stroke="#ffffff" stroke-width="6" stroke-linecap="round" d="M 391.3125 73.484375 L 406.90625 75.375 L 422.171875 78.203125 L 437.265625 82.59375 L 451.96875 87.953125 L 467.59375 95.25 L 482.09375 103.5 L 495.671875 112.828125 L 501.96875 117.65625 L 511.21875 125.734375 L 517.90625 132.09375 L 526.9375 141.75 L 533.640625 149.765625 L 540.265625 158.703125 L 545.34375 166.140625 L 551.765625 177.03125 L 561.921875 197.6875 L 565.890625 208.40625 L 569.484375 219.671875 L 573.5 236.875 L 578.234375 267.203125 L 585 262.015625 L 592.359375 254.8125 L 594.671875 253.25 L 598.515625 251.40625 L 602.515625 250.1875 L 606.359375 249.640625 L 611.921875 249.8125 L 615.625 250.65625 L 619.34375 252.171875 L 624.234375 255.171875 L 627.375 257.75 L 629.59375 260.359375 L 631.828125 263.90625 L 633.328125 267.1875 L 634.578125 271.6875 L 635.171875 276.9375 L 636.828125 281.65625 L 641.125 280.03125 L 647.40625 275.640625 L 650.328125 274.5 L 653.671875 274.046875 L 658.640625 275.25 L 661.359375 276.78125 L 664.34375 279.71875 L 666 283.234375 L 668.125 290.28125 L 670.296875 291.734375 L 673.703125 292.3125 L 674.6875 292.796875 L 675.484375 293.75 L 675.671875 294.546875 L 675.375 296.28125 L 674.75 296.921875 L 674.0625 297.265625 L 673.015625 297.34375 L 669.046875 294.890625 L 666.140625 294.265625 L 660.5 298.140625 L 657.40625 299.6875 L 654.453125 300.390625 L 652.46875 300.375 L 648.828125 299.359375 L 644.796875 296.875 L 642.015625 293.40625 L 636.40625 283.671875 L 627.359375 295.390625 L 622.65625 299.421875 L 619.421875 301.046875 L 615.09375 302.609375 L 610.828125 303.5625 L 607.125 303.78125 L 600.15625 302.21875 L 592.6875 298.828125 L 589.40625 296.15625 L 583.5 289.265625 L 578.015625 286 L 576.171875 293.90625 L 574.984375 303.890625 L 573.25 313.859375 L 569.34375 330.015625 L 564.796875 344.125 L 560.71875 354.4375 L 556.53125 363.453125 L 547.875 379.328125 L 537.3125 395.125 L 525.171875 409.78125 L 512.1875 422.859375 L 505.40625 429.03125 L 498.765625 434.375 L 484.078125 444.71875 L 467.734375 454.203125 L 451.09375 461.8125 L 442.15625 465.203125 L 431.390625 468.640625 L 417.3125 472.25 L 401.546875 475 L 379.34375 476.5 L 359.84375 476.1875 L 344.03125 474.265625 L 325.890625 470.546875 L 306.40625 464.640625 L 285.953125 455.890625 L 267.65625 445.84375 L 253.625 436.046875 L 246.390625 430.359375 L 239.46875 424.28125 L 226.484375 411.375 L 219.28125 403.234375 L 213.234375 395.640625 L 203.125 380.9375 L 193.4375 362.875 L 185.078125 343.359375 L 180.25 327.859375 L 176.8125 313 L 172.609375 284.859375 L 167.46875 286.390625 L 161.71875 292.0625 L 157.25 294.890625 L 152.25 296.53125 L 146.65625 296.90625 L 140.890625 295.84375 L 135.15625 292.53125 L 131.453125 288.96875 L 125.65625 280.8125 L 121.9375 283.46875 L 120.625 286.8125 L 119.53125 288.4375 L 116.09375 291.734375 L 114.921875 292.453125 L 113.734375 292.8125 L 109.34375 292.90625 L 107.203125 292.453125 L 104.625 290.75 L 101.828125 287.421875 L 98.796875 281.84375 L 104.0625 274.890625 L 106.0625 273.484375 L 108.46875 272.578125 L 111.40625 272.28125 L 113.8125 272.640625 L 116.625 273.953125 L 125.1875 279.78125 L 128.34375 267.484375 L 129.65625 264.625 L 131.4375 262.09375 L 135.5625 258.1875 L 139.03125 256.1875 L 142.265625 254.9375 L 148.25 254.046875 L 154.9375 255.328125 L 159.96875 257.828125 L 166.484375 263.046875 L 172.421875 265.484375 L 177.234375 234.09375 L 179.03125 226.140625 L 182.09375 215.46875 L 184.828125 206.96875 L 188.109375 198.578125 L 193.734375 186.09375 L 198.0625 177.75 L 206.6875 163.203125 L 219.625 145.828125 L 233.4375 130.90625 L 244.3125 120.90625 L 252.671875 114.25 L 266.765625 104.390625 L 281.828125 95.609375 L 295.5 89.15625 L 309.21875 83.859375 L 324.21875 79.375 L 345.125 74.890625 L 356.578125 73.828125 L 373.71875 73.15625 Z M 96.34375 281.671875 L 95.21875 281.6875 L 91.953125 283.53125 L 91.296875 283.546875 L 90.296875 282.9375 L 90.0625 282.078125 L 90.28125 280.734375 L 90.5625 280.34375 L 91.171875 280.125 L 92.328125 280.078125 Z M 274.421875 298.9375 L 276.296875 305.90625 L 280.09375 315.828125 L 283.828125 323.953125 L 291.828125 336.984375 L 299.25 345.984375 L 305.28125 352.1875 L 317.234375 361.984375 L 326.09375 367.421875 L 335.078125 371.9375 L 345.1875 375.703125 L 352.953125 377.96875 L 361.375 379.671875 L 370.234375 380.328125 L 386.375 380.171875 L 394.40625 379.59375 L 400.0625 378.640625 L 409.15625 376.109375 L 415.8125 373.796875 L 424.890625 369.84375 L 432.359375 365.859375 L 440.71875 360.078125 L 446.90625 355.15625 L 452.515625 349.828125 L 459.890625 341.765625 L 463.5625 336.875 L 460.921875 342.734375 L 453.59375 355.875 L 447.40625 364.703125 L 439.8125 374 L 429.765625 384.296875 L 420.984375 392.015625 L 411.8125 399.046875 L 399.84375 406.453125 L 390.734375 411.1875 L 378.125 416.359375 L 368.609375 419.40625 L 354.578125 422.796875 L 343.859375 424.34375 L 331.15625 425.390625 L 317.40625 425.375 L 307.515625 424.328125 L 294.71875 422.09375 L 279.1875 417.84375 L 264.796875 412.21875 L 256.3125 408.0625 L 243.625 400.578125 L 233.296875 392.984375 L 222.0625 382.8125 L 211.234375 371.40625 L 203.171875 361.109375 L 195.21875 348.359375 L 191.40625 341.328125 L 185.703125 328.375 L 180.5 311.046875 L 180.421875 310.71875 L 184.34375 315.046875 L 191.234375 320.59375 L 196.9375 324.125 L 205.953125 327.765625 L 212.90625 329.375 L 221.78125 330.40625 L 230.3125 329.890625 L 236.765625 328.59375 L 246.203125 325.15625 L 252.328125 321.59375 L 258.765625 316.734375 L 264.203125 311.234375 L 268.890625 305.375 L 272.734375 298.46875 L 273.859375 295.78125 Z M 434.96875 292.515625 L 439.5625 296.9375 L 446.359375 300.9375 L 453.359375 302.734375 L 460.609375 302.734375 L 467.5 300.984375 L 472.203125 298.328125 L 474.1875 296.609375 L 473.1875 299.71875 L 470.28125 306.609375 L 467.8125 311.21875 L 464.1875 317.171875 L 461.1875 321.328125 L 456.375 326.84375 L 450.953125 331.9375 L 444.890625 336.671875 L 440.453125 339.484375 L 434.875 342.5 L 429.78125 344.625 L 419.265625 347.828125 L 412.8125 348.84375 L 404.921875 349.53125 L 394.484375 349.40625 L 386.765625 348.140625 L 373.90625 343.96875 L 366.359375 340.46875 L 362.375 338.015625 L 352.59375 330.484375 L 344.296875 321.734375 L 341.6875 318.0625 L 345.625 321.46875 L 350.5625 324.734375 L 359.78125 328.6875 L 367.546875 330.8125 L 374.09375 331.421875 L 384.296875 331.3125 L 392.5 330.015625 L 401.640625 326.640625 L 410.0625 322 L 417.65625 315.828125 L 423.46875 309.15625 L 428.875 300.40625 L 432.40625 292.15625 L 433.09375 289.6875 Z M 353.765625 287.859375 L 355.703125 290.953125 L 358.21875 293.96875 L 361.296875 296.640625 L 368.265625 300.890625 L 372.421875 302.203125 L 376.859375 302.875 L 382.5625 302.71875 L 388.953125 301.171875 L 388.296875 301.859375 L 383.53125 305.453125 L 379.96875 307.65625 L 376.125 309.375 L 371.71875 310.28125 L 365.84375 310.625 L 359.375 310.578125 L 353.734375 309.9375 L 347.984375 307.640625 L 341.984375 303.625 L 337.078125 298.984375 L 333.203125 293.921875 L 331.8125 291.25 L 332.3125 291.53125 L 335.796875 292.609375 L 340.3125 292.78125 L 344.8125 292.0625 L 347.84375 290.75 L 351.453125 288.125 L 353.140625 286.421875 Z M 203.0625 290.078125 L 205.625 293.265625 L 208.46875 295.875 L 212.859375 298.890625 L 216.015625 300.5 L 223.8125 301.921875 L 229.5625 301.734375 L 235.96875 300.140625 L 235.796875 300.328125 L 231.4375 303.828125 L 226.484375 306.8125 L 222.265625 308.53125 L 217.921875 309.390625 L 212.484375 309.6875 L 201.921875 309.171875 L 195.90625 306.796875 L 190.890625 303.46875 L 185.546875 298.609375 L 181.140625 293.09375 L 180.1875 291.09375 L 181.40625 291.734375 L 184.5625 292.640625 L 188.953125 292.703125 L 192.78125 292.03125 L 196.46875 290.328125 L 201.21875 286.59375 Z M 217.96875 240.640625 L 221.46875 241.203125 L 225.78125 242.9375 L 231.796875 246.40625 L 236.109375 250.109375 L 233.71875 249.046875 L 225.890625 247.984375 L 218.140625 248.890625 L 212.578125 251.125 L 206.65625 255.609375 L 202.890625 260.09375 L 201.234375 263.140625 L 199.859375 261.84375 L 196.9375 259.78125 L 193.171875 258.0625 L 189.15625 257.328125 L 185.625 257.25 L 182.5 257.84375 L 180.109375 258.953125 L 180.859375 257.328125 L 182.5 254.90625 L 186.140625 250.6875 L 189.09375 247.984375 L 194.078125 244.53125 L 197.984375 242.46875 L 202.046875 241.046875 L 207.34375 240.53125 Z M 370.765625 239.640625 L 375.203125 240.390625 L 379.390625 242.109375 L 385.546875 245.90625 L 389.171875 249 L 388 248.421875 L 380.90625 247.078125 L 373.359375 247.40625 L 366.875 249.625 L 359.078125 255.203125 L 354.90625 260.09375 L 353.109375 263.421875 L 348.265625 259.625 L 344.796875 257.9375 L 341.734375 257.28125 L 337.9375 257.15625 L 333.59375 257.796875 L 331.765625 258.6875 L 332.296875 257.578125 L 335.28125 253.09375 L 338.953125 249 L 342.671875 245.8125 L 347.390625 242.90625 L 350.96875 241.234375 L 355.109375 240.015625 L 360.5 239.546875 Z M 414.90625 201.46875 L 423.9375 203.515625 L 435.765625 208.1875 L 446.1875 214.4375 L 454.296875 221.125 L 458.140625 225.046875 L 461.8125 229.5 L 464.796875 233.625 L 467.8125 238.6875 L 471.875 247.078125 L 473.953125 252.609375 L 474.125 253.1875 L 473.3125 252.46875 L 467.609375 249.03125 L 463.453125 247.765625 L 458.90625 247.078125 L 451.1875 247.453125 L 444.203125 250 L 438.1875 254.234375 L 433.671875 259.203125 L 433.015625 260.28125 L 432.4375 257.9375 L 428.9375 249.671875 L 423.5625 240.90625 L 419.03125 235.484375 L 411.546875 229.0625 L 405.34375 225.171875 L 396.3125 221.125 L 388.578125 219.15625 L 378.515625 218.5 L 367.546875 219.171875 L 362.65625 220.171875 L 353.171875 223.828125 L 346.15625 227.90625 L 342.5 230.703125 L 344.953125 227.40625 L 348.734375 223.28125 L 354.5625 217.78125 L 359 214.484375 L 364.953125 210.765625 L 371.015625 207.5625 L 377.546875 204.859375 L 384.46875 202.71875 L 391.984375 201.09375 L 398.53125 200.28125 L 402.40625 200.1875 Z M 347.140625 126.296875 L 360.390625 128.703125 L 373.09375 132.21875 L 386.71875 137.328125 L 399.40625 143.578125 L 410.453125 150.421875 L 419.21875 156.75 L 430.515625 166.65625 L 440.078125 176.5625 L 448.078125 186.328125 L 456.203125 198.90625 L 463.421875 212.578125 L 456.078125 203.59375 L 449.53125 196.921875 L 442.3125 190.625 L 431.203125 183.34375 L 422.5625 178.859375 L 412.015625 174.5 L 403.796875 172.0625 L 396.5625 170.5 L 388.140625 169.46875 L 379.734375 169 L 372.109375 169.171875 L 361.953125 170.109375 L 356.09375 171.140625 L 346.140625 173.671875 L 336.765625 177.109375 L 330.265625 180.03125 L 321.78125 184.6875 L 317.3125 187.78125 L 309.234375 193.96875 L 301.609375 200.9375 L 297.53125 205.4375 L 290.21875 214.96875 L 282.875 227.484375 L 276.671875 242.921875 L 274.015625 252.859375 L 273.84375 253.875 L 273.5 252.90625 L 269.25 245.15625 L 264.25 238.796875 L 258.90625 233.40625 L 253.078125 228.78125 L 247.4375 225.34375 L 239.265625 222.125 L 230.84375 220.109375 L 224.125 219.28125 L 215.3125 219.921875 L 207.984375 221.578125 L 198.96875 224.78125 L 192.640625 228.390625 L 185.453125 233.984375 L 180.5 239.171875 L 181.453125 235.203125 L 184.578125 225.328125 L 189.234375 213.734375 L 194.28125 203.5 L 199.390625 194.65625 L 205.046875 186.453125 L 212.515625 176.984375 L 221.671875 167.140625 L 232.46875 157.796875 L 242.265625 150.59375 L 252.015625 144.59375 L 252.015625 144.578125 L 261.578125 139.484375 L 273.03125 134.546875 L 285.796875 130.375 L 293.1875 128.53125 L 305.9375 126.28125 L 319.609375 125.203125 L 333.40625 125.203125 Z"/>
</svg>
