<?xml version="1.0" ?>
<svg xmlns="http://www.w3.org/2000/svg" xmlns:ev="http://www.w3.org/2001/xml-events" xmlns:xlink="http://www.w3.org/1999/xlink" baseProfile="full" height="600px" version="1.1" viewBox="307.0843749999839 65.79999999999986 175.4875000001384 480.40000000000066" width="220px">
	<defs/>
	<path d="M 321.875,106.0 C 321.875,132.778999 339.417236,157.585999 367.40625,172.5 C 339.417249,187.382 321.875051,212.144028 321.875,239.125 C 321.875,266.133001 339.431722,290.904236 367.46875,305.78125 C 339.43175,320.65825 321.87499,345.459752 321.875,372.46875 C 321.875,399.520749 339.508972,424.318512 367.625,439.1875 C 339.509,454.1415 321.87499,479.153035 321.875,506.0 L 342.09375,506.0 C 342.09375,500.828 343.008748,495.804963 344.71875,491.0 L 444.90625,491.0 C 446.61725,495.805 447.531244,500.827974 447.53125,506.0 L 467.78125,506.0 C 467.78125,479.144999 450.127035,454.164714 422.0,439.21875 C 450.126999,424.35075 467.781189,399.52683 467.78125,372.46875 C 467.78125,345.460749 450.193319,320.658285 422.15625,305.78125 C 450.195249,290.90425 467.781301,266.13298 467.78125,239.125 C 467.78125,212.143 450.238892,187.380992 422.25,172.5 C 450.239001,157.586 467.781281,132.779007 467.78125,106.0 L 447.53125,106.0 C 447.53125,110.752 446.696045,115.447994 445.125,120.0 L 344.5,120.0 C 342.929,115.448 342.093774,110.751981 342.09375,106.0 L 321.875,106.0 M 350.59375,132.0 L 439.0625,132.0 C 430.0945,145.211 414.526052,156.171504 394.875,162.0625 L 394.8125,162.03125 L 394.75,162.0625 C 375.1,156.1715 359.560755,145.210983 350.59375,132.0 M 394.8125,183.0625 C 414.5005,188.9515 430.08756,199.785014 439.0625,213.0 L 350.5625,213.0 C 359.5375,199.785 375.125514,188.95254 394.8125,183.0625 M 344.5,225.0 L 445.125,225.0 C 446.696,229.574 447.531206,234.30602 447.53125,239.125 C 447.53125,243.853 446.732768,248.505969 445.21875,253.0 L 344.4375,253.0 C 342.9235,248.506 342.093781,243.853004 342.09375,239.125 C 342.09375,234.306 342.928935,229.575001 344.5,225.0 M 350.40625,265.0 L 439.25,265.0 C 430.304,278.331999 414.628522,289.291753 394.8125,295.21875 C 374.9975,289.29075 359.354279,278.331996 350.40625,265.0 M 394.8125,316.375 C 414.3335,322.214 429.833705,332.936989 438.84375,346.0 L 350.8125,346.0 C 359.8225,332.937 375.292559,322.214971 394.8125,316.375 M 344.625,358.0 L 445.03125,358.0 C 446.67725,362.678 447.531214,367.532771 447.53125,372.46875 C 447.53125,377.07975 446.785767,381.608999 445.34375,386.0 L 344.3125,386.0 C 342.8705,381.61 342.093826,377.079796 342.09375,372.46875 C 342.09375,367.53275 342.978007,362.677003 344.625,358.0 M 350.1875,398.0 L 439.46875,398.0 C 430.56075,411.482 414.792503,422.555196 394.8125,428.53125 C 374.8335,422.55425 359.09642,411.481079 350.1875,398.0 M 394.8125,449.90625 C 414.209501,455.70825 429.621246,466.090034 438.65625,479.0 L 350.96875,479.0 C 360.00375,466.09 375.414424,455.708257 394.8125,449.90625" fill="black"/>
</svg>
