<?xml version="1.0" ?>
<svg xmlns="http://www.w3.org/2000/svg" xmlns:ev="http://www.w3.org/2001/xml-events" xmlns:xlink="http://www.w3.org/1999/xlink" baseProfile="full" height="573px" version="1.1" viewBox="156.82261172004138 77.94770886809421 478.3970470882705 456.1358322646222" width="600px">
	<defs/>
	<path d="M 333.03125,116.125 C 332.181311,116.124986 331.36875,116.3975 330.71875,116.9375 L 258.375,177.4375 C 257.594978,178.0875 257.7675,179.30875 258.6875,179.71875 L 342.78125,217.21875 C 344.701255,218.068712 346.83375,218.205 348.84375,217.625 L 469.78125,181.65625 C 471.251196,181.216242 472.2125,179.81125 472.0625,178.28125 L 466.25,117.34375 C 466.179938,116.643763 465.61625,116.125 464.90625,116.125 L 333.03125,116.125 M 474.8125,121.5 C 474.54252,121.628752 474.339946,121.894997 474.375,122.25 L 479.875,180.0 C 480.005,181.5 480.514973,182.914998 481.375,184.125 L 559.375,294.6875 C 559.805,295.2975 560.414969,295.738711 561.125,295.96875 L 593.25,306.375 C 594.1,306.645 594.892521,305.798723 594.5625,304.96875 L 549.46875,194.28125 C 549.08875,193.36125 548.522523,192.512499 547.8125,191.8125 L 475.65625,121.625 C 475.40125,121.375 475.08248,121.371248 474.8125,121.5 M 252.03125,185.5 C 251.707495,185.620005 251.405003,185.847487 251.25,186.1875 L 197.40625,300.6875 C 196.66625,302.2575 196.676278,304.044992 197.40625,305.625 L 245.4375,410.0 C 245.7675,410.72 246.653745,411.004969 247.34375,410.625 L 337.8125,361.75 C 338.8925,361.16 339.604988,360.052505 339.625,358.8125 L 341.59375,227.28125 C 341.61375,225.91125 340.812517,224.685017 339.5625,224.125 L 253.0625,185.53125 C 252.7225,185.38125 252.355005,185.379995 252.03125,185.5 M 472.625,188.71875 L 351.625,224.71875 C 350.195,225.14875 349.217538,226.437542 349.1875,227.9375 L 347.21875,358.1875 C 347.19875,359.6075 348.054976,360.876274 349.375,361.40625 L 471.25,410.3125 C 472.64,410.8725 474.23366,410.407359 475.09375,409.1875 L 551.6875,300.6875 C 552.4675,299.5775 552.467525,298.110023 551.6875,297.0 L 476.15625,189.96875 C 475.36625,188.83875 473.945034,188.318706 472.625,188.71875 M 559.40625,304.09375 C 558.727523,304.322503 558.122452,304.765011 557.6875,305.375 L 479.78125,415.6875 C 479.01125,416.7775 478.523664,418.023748 478.34375,419.34375 L 468.375,490.03125 C 468.265,490.81125 469.150022,491.291296 469.75,490.78125 L 543.21875,428.96875 C 544.01875,428.29875 544.66381,427.449999 545.09375,426.5 L 595.0625,316.53125 C 595.4025,315.79125 595.020005,314.906248 594.25,314.65625 L 561.5625,304.09375 C 560.8425,303.86875 560.084977,303.864997 559.40625,304.09375 M 343.625,368.1875 C 342.356265,368.258761 341.113722,368.598742 339.96875,369.21875 L 251.875,416.8125 C 251.085,417.2425 250.921302,418.308666 251.53125,418.96875 L 321.5625,493.90625 C 322.7525,495.18625 324.40628,495.906286 326.15625,495.90625 L 458.6875,495.90625 C 459.3675,495.90625 459.941275,495.398661 460.03125,494.71875 L 470.46875,420.8125 C 470.66875,419.3525 469.838713,417.93491 468.46875,417.375 L 347.40625,368.8125 C 346.19625,368.3275 344.893735,368.116239 343.625,368.1875" fill="black"/>
</svg>
