<?xml version="1.0" ?>
<svg xmlns="http://www.w3.org/2000/svg" xmlns:ev="http://www.w3.org/2001/xml-events" xmlns:xlink="http://www.w3.org/1999/xlink" baseProfile="full" height="562px" version="1.1" viewBox="155.55 78.68368812487303 480.4 449.7768856819567" width="600px">
	<defs/>
	<path d="M 414.96875,116.34375 C 407.796499,116.682373 400.641073,124.028512 393.46875,117.34375 C 393.46875,119.68875 393.46875,122.830261 393.46875,126.03125 L 393.46875,136.75 L 393.46875,158.03125 L 342.8125,185.6875 L 299.90625,185.6875 L 299.90625,217.0 L 195.75,217.0 L 195.75,241.53125 L 595.75,241.53125 L 595.75,217.0 L 491.59375,217.0 L 491.59375,185.6875 L 448.71875,185.6875 L 398.0625,158.03125 L 398.0625,139.3125 C 406.0915,141.1495 414.127164,131.017027 422.15625,138.5 C 422.15625,133.309 422.15625,124.316999 422.15625,119.125 C 419.7655,116.89675 417.359509,116.230871 414.96875,116.34375 M 395.75,185.6875 C 406.392,185.6875 415.031364,194.326762 415.03125,204.96875 C 415.03125,215.61075 406.391968,224.250013 395.75,224.25 C 385.108,224.25 376.499865,215.610697 376.5,204.96875 C 376.5,194.32675 385.108053,185.687528 395.75,185.6875 M 204.90625,250.78125 L 204.90625,490.8125 L 331.03125,490.8125 L 331.03125,479.0 L 344.0,479.0 L 344.0,466.71875 L 356.9375,466.71875 L 356.9375,454.46875 L 366.125,454.46875 L 366.125,409.6875 L 352.4375,409.6875 L 395.5,386.1875 L 438.53125,409.6875 L 425.40625,409.6875 L 425.40625,454.46875 L 434.59375,454.46875 L 434.59375,466.71875 L 447.53125,466.71875 L 447.53125,479.0 L 460.46875,479.0 L 460.46875,490.8125 L 586.625,490.8125 L 586.625,250.78125 L 204.90625,250.78125 M 229.09375,274.71875 L 275.25,274.71875 L 275.25,309.65625 L 229.09375,309.65625 L 229.09375,274.71875 M 300.75,274.71875 L 346.90625,274.71875 L 346.90625,309.65625 L 300.75,309.65625 L 300.75,274.71875 M 372.40625,274.71875 L 418.5625,274.71875 L 418.5625,309.65625 L 372.40625,309.65625 L 372.40625,274.71875 M 444.09375,274.71875 L 490.21875,274.71875 L 490.21875,309.65625 L 444.09375,309.65625 L 444.09375,274.71875 M 515.75,274.71875 L 561.875,274.71875 L 561.875,309.65625 L 515.75,309.65625 L 515.75,274.71875 M 229.09375,342.21875 L 275.25,342.21875 L 275.25,377.15625 L 229.09375,377.15625 L 229.09375,342.21875 M 300.75,342.21875 L 346.90625,342.21875 L 346.90625,377.15625 L 300.75,377.15625 L 300.75,342.21875 M 372.40625,342.21875 L 418.5625,342.21875 L 418.5625,377.15625 L 372.40625,377.15625 L 372.40625,342.21875 M 444.09375,342.21875 L 490.21875,342.21875 L 490.21875,377.15625 L 444.09375,377.15625 L 444.09375,342.21875 M 515.75,342.21875 L 561.875,342.21875 L 561.875,377.15625 L 515.75,377.15625 L 515.75,342.21875 M 229.09375,409.6875 L 275.25,409.6875 L 275.25,444.625 L 229.09375,444.625 L 229.09375,409.6875 M 300.75,409.6875 L 346.90625,409.6875 L 346.90625,444.625 L 300.75,444.625 L 300.75,409.6875 M 376.0,409.6875 L 376.0,454.46875 L 415.53125,454.46875 L 415.53125,409.6875 L 376.0,409.6875 M 444.09375,409.6875 L 490.21875,409.6875 L 490.21875,444.625 L 444.09375,444.625 L 444.09375,409.6875 M 515.75,409.6875 L 561.875,409.6875 L 561.875,444.625 L 515.75,444.625 L 515.75,409.6875" fill="black"/>
</svg>
