<?xml version="1.0" encoding="UTF-8"?>
<svg width="596px" height="420px" viewBox="0 0 596 420" xmlns="http://www.w3.org/2000/svg" xmlns:xlink="http://www.w3.org/1999/xlink" version="1.1">
 <!-- Generated by Pixelmator Pro 2.1.5 -->
 <g id="Ebene-1">
  <path id="Path" d="M204.614 397.625 C203.243 397.634 201.785 397.498 201.608 396.969 200.771 394.458 214.667 392.16 215.862 391.563 216.302 391.343 214.873 391.482 214.388 391.563 213.405 391.727 212.435 392.053 211.438 392.053 210.199 392.053 201.754 392.199 201.608 392.053 201.349 391.794 202.264 391.727 202.591 391.563 203.574 391.071 204.558 390.578 205.542 390.086 207.633 389.04 216.71 388.886 216.847 388.612 217.011 388.285 216.202 388.257 215.862 388.121 215.043 387.793 214.27 387.31 213.405 387.137 212.46 386.948 197.161 387.403 202.101 383.698 206.105 380.694 217.397 388.489 221.27 389.596 221.629 389.698 221.971 389.765 222.308 389.823 222.412 390.243 222.607 390.853 222.745 390.578 222.849 390.37 222.914 390.152 222.954 389.928 223.682 390.044 224.403 390.179 225.202 390.578 L224.487 354.346 C224.874 357.095 225.243 359.856 225.694 362.561 226.34 366.436 225.624 370.434 226.184 374.358 227.098 380.756 226.925 385.407 225.694 391.563 225.522 392.424 225.585 394.839 224.712 395.494 223.997 396.03 221.198 395.342 220.286 395.494 217.428 395.97 214.264 395.422 211.438 395.987 209.952 396.284 208.514 397.16 207.015 397.459 206.695 397.524 205.681 397.619 204.614 397.625 Z M224.487 354.346 C224.249 352.65 224.005 350.958 223.727 349.289 222.902 344.343 224.436 339.017 223.727 334.051 223.091 329.601 222.974 324.802 223.727 320.287 223.752 320.14 223.778 319.998 223.806 319.858 L224.487 354.346 Z M223.806 319.858 L223.727 315.864 C223.727 314.02 223.227 311.222 223.727 309.475 224.193 307.841 225.846 305.945 226.677 304.559 227.894 302.532 228.199 299.579 229.626 297.676 231.699 294.912 239.042 290.92 236.017 285.879 234.484 283.323 230.237 288.999 229.626 289.813 228.407 291.439 226.84 291.724 225.694 293.252 223.672 295.948 223.415 299.197 222.253 302.102 221.746 303.37 220.552 304.701 220.286 306.034 219.68 309.062 222.253 309.845 222.253 309.965 222.253 310.757 218.675 310.528 218.321 310.457 218.006 310.394 217.727 310.311 217.474 310.213 216.717 308.158 215.714 306.131 215.37 304.067 215.327 303.804 215.227 300.625 214.388 300.625 213.154 300.625 214.233 303.68 214.388 304.067 215.319 306.394 214.844 309.195 217.474 310.213 217.861 311.267 218.186 312.329 218.321 313.407 218.568 315.385 218.673 317.414 219.304 319.305 224.655 335.359 222.253 352.805 222.253 369.442 222.253 375.204 222.745 380.925 222.745 386.647 222.745 387.724 223.138 388.894 222.954 389.928 222.74 389.894 222.525 389.86 222.308 389.823 222.288 389.742 222.264 389.654 222.253 389.596 221.995 388.307 222.014 386.924 221.761 385.662 221.07 382.203 221.761 377.904 221.761 374.358 221.761 369.932 220.346 365.975 219.796 361.578 218.945 354.766 218.811 347.379 218.811 340.442 218.811 336.658 218.07 333.285 217.339 329.627 216.676 326.315 217.894 322.639 217.339 319.305 216.692 315.425 212.536 313.11 211.931 309.475 211.289 305.624 212.151 303.972 209.474 300.625 206.617 297.055 204.039 293.428 201.569 289.703 202.795 290.552 204.123 291.367 205.542 292.27 206.321 292.766 210.329 296.821 211.931 295.219 212.258 294.891 211.237 294.599 210.948 294.237 209.857 292.873 207.352 290.936 206.763 290.487 207.073 290.721 207.624 291.121 207.999 291.287 210.093 292.217 214.495 294.193 216.847 293.252 217.187 293.116 216.589 292.551 216.354 292.27 214.307 289.813 213.648 290.426 211.438 289.321 211.233 289.218 206.246 283.144 205.542 282.44 205.05 281.948 204.556 281.455 204.065 280.963 203.573 280.472 203.026 280.034 202.591 279.491 202.362 279.205 201.734 278.506 202.101 278.506 205.703 278.506 216.035 293.571 220.286 289.321 220.941 288.665 219.044 287.933 218.321 287.354 216.019 285.513 211.227 284.052 209.474 281.948 207.645 279.753 206.344 277.196 205.13 274.575 205.44 274.536 205.623 273.918 205.542 273.59 205.444 273.2 204.73 272.549 203.901 271.889 204.311 272.784 204.717 273.683 205.13 274.575 205.103 274.578 205.078 274.58 205.05 274.575 202.732 274.112 195.03 266.343 193.743 264.252 192.771 262.672 192.168 260.88 191.356 259.211 191.8 259.305 192.241 259.409 192.679 259.528 193.829 260.113 195.009 260.629 196.226 261.069 196.551 261.285 196.872 261.526 197.184 261.793 200.069 264.266 201.835 267.487 203.407 270.83 202.97 270.597 202.535 270.368 202.101 270.151 199.695 268.948 202.075 270.434 203.899 271.887 203.737 271.534 203.572 271.182 203.407 270.83 208.356 273.477 213.492 277.055 218.811 278.506 219.388 278.663 223.15 279.659 223.727 278.506 224.102 277.754 218.43 274.635 218.321 274.575 212.974 271.658 206.088 267.708 202.263 262.553 202.838 262.631 203.422 262.693 204.015 262.739 204.032 262.751 204.048 262.765 204.065 262.778 205.665 263.978 207.317 265.108 208.981 266.217 210.479 267.216 216.35 269.654 217.339 270.643 217.962 271.267 217.697 272.476 218.321 273.1 220.56 275.339 227.825 275.835 230.608 276.049 232.405 276.187 234.405 276.855 236.017 276.049 238.237 274.939 232.066 273.123 234.05 270.643 236.067 268.122 244.183 268.831 244.864 264.743 245.153 263.01 243.031 262.524 240.97 261.92 241.008 260.428 239.555 258.891 238.503 257.479 239.293 256.239 239.908 254.88 240.495 253.514 242.721 253.053 245.356 252.642 245.356 250.981 245.356 250.521 244.619 250.355 243.559 250.27 247.465 247.51 252.309 245.272 255.487 244.446 254.242 246.353 253.13 247.961 252.729 248.522 252.074 249.44 250.182 252.855 251.255 253.928 251.483 254.156 254.689 251.967 254.694 251.963 258.84 249.199 262.268 245.756 266.491 243.116 267.018 242.786 267.553 242.522 268.091 242.307 267.892 242.578 267.689 242.849 267.475 243.116 265.339 245.787 262.91 247.295 261.085 250.489 259.818 252.706 255.414 258.892 258.628 261.303 259.323 261.824 262.012 256.934 262.559 256.387 266.427 252.519 268.537 247.461 272.39 243.608 272.68 243.318 273.618 242.218 274.456 241.336 274.875 241.325 275.293 241.313 275.708 241.297 275.009 242.564 273.48 244.458 273.374 244.59 272.091 246.193 269.703 253.637 268.95 255.897 268.685 256.691 267.158 259.51 267.968 260.319 268.949 261.301 270.783 254.732 270.917 254.42 273.215 249.057 277.306 245.45 280.747 241.149 280.89 240.97 281.418 240.404 282.065 239.782 282.973 239.39 283.91 239.076 284.86 238.801 284.205 240.035 282.895 241.889 282.714 242.131 281.921 243.189 281.635 243.702 280.747 244.59 278.539 246.797 276.746 256.315 275.341 259.828 273.602 264.174 273.318 270.718 270.425 274.575 264.789 282.091 258.526 285.834 251.255 291.287 248.862 293.081 248.091 296.814 246.339 299.151 244.244 301.945 242.044 304.713 239.948 307.508 238.386 309.589 234.797 313.356 232.085 313.899 227.605 314.795 224.813 314.684 223.806 319.858 Z M284.86 238.801 C284.939 238.654 285.007 238.519 285.063 238.393 285.629 238.407 286.205 238.371 286.763 238.295 286.126 238.456 285.49 238.619 284.86 238.801 Z M286.763 238.295 C286.888 238.264 287.012 238.231 287.138 238.2 288.295 237.911 290.577 237.217 290.577 237.217 290.577 237.217 289.583 237.515 289.102 237.707 288.453 237.967 287.632 238.178 286.763 238.295 Z M285.063 238.393 C284.637 238.383 284.216 238.345 283.817 238.272 284.404 237.843 284.914 237.579 285.171 237.707 285.289 237.767 285.227 238.029 285.063 238.393 Z M283.817 238.272 C283.25 238.687 282.616 239.253 282.065 239.782 281.787 239.902 281.51 240.03 281.237 240.166 279.495 241.038 277.626 241.223 275.708 241.297 276.064 240.652 276.208 240.166 275.831 240.166 275.623 240.166 275.065 240.695 274.456 241.336 272.337 241.394 270.182 241.469 268.091 242.307 270.365 239.207 271.817 235.89 275.341 233.776 275.817 233.49 276.295 233.357 276.778 233.274 278.604 234.674 280.101 236.436 282.222 237.707 282.678 237.981 283.224 238.164 283.817 238.272 Z M276.778 233.274 C275.671 232.425 274.443 231.709 272.882 231.319 270.225 230.655 262.819 231.201 261.085 230.334 260.43 230.007 262.372 229.624 263.052 229.352 265.047 228.554 265.941 227.937 267.475 226.403 271.256 222.622 280.475 226.3 284.679 227.877 285.633 228.234 290.418 227.87 290.087 228.862 289.564 230.432 286.097 229.473 285.171 229.844 283.312 230.587 281.292 231.985 279.272 232.793 278.418 233.135 277.591 233.134 276.778 233.274 Z M255.487 244.446 C255.562 244.33 255.636 244.217 255.712 244.1 L256.171 244.1 C256.662 244.1 258.135 244.1 257.643 244.1 257.082 244.1 256.342 244.224 255.487 244.446 Z M255.712 244.1 L253.712 244.1 C251.507 244.1 248.336 243.94 246.339 245.082 244.251 246.275 242.994 248.123 241.976 250.184 239.456 250.074 236.393 249.911 236.017 248.032 235.811 247.003 237.299 246.37 237.981 245.573 239.946 243.281 240.853 240.809 243.882 239.674 244.751 239.348 248.815 239.164 249.288 238.692 249.547 238.432 248.667 238.26 248.306 238.2 246.468 237.894 243.641 238.891 241.915 238.2 237.895 236.592 235.38 232.746 231.101 231.319 227.758 230.206 224.118 229.324 220.778 228.369 220.306 228.234 219.651 228.717 219.304 228.369 218.748 227.814 223.548 227.841 223.727 227.877 226.682 228.468 230.451 228.813 233.559 228.369 237.244 227.844 237.568 229.922 239.948 232.301 241.025 233.379 245.23 233.734 246.829 234.268 249.089 235.021 259.306 234.188 260.102 235.25 260.697 236.043 258.034 240.518 255.712 244.1 Z M241.976 250.184 C242.543 250.209 243.085 250.232 243.559 250.27 242.657 250.908 241.803 251.57 241.034 252.252 241.336 251.55 241.643 250.856 241.976 250.184 Z M241.034 252.252 C240.854 252.672 240.676 253.093 240.495 253.514 240.165 253.582 239.838 253.652 239.536 253.727 239.987 253.23 240.488 252.736 241.034 252.252 Z M239.536 253.727 C238.763 254.579 238.146 255.445 237.745 256.303 237.5 255.814 237.382 255.347 237.491 254.912 237.638 254.325 238.467 253.992 239.536 253.727 Z M237.745 256.303 C237.935 256.683 238.202 257.075 238.503 257.479 238.139 258.05 237.739 258.598 237.286 259.108 237.121 258.199 237.3 257.256 237.745 256.303 Z M237.286 259.108 C237.33 259.35 237.396 259.591 237.491 259.828 237.944 260.962 239.441 261.473 240.97 261.92 240.966 262.042 240.957 262.164 240.933 262.286 240.586 264.016 232.932 264.006 229.661 264.176 232.095 263.719 234.084 261.866 236.017 260.319 236.483 259.945 236.902 259.54 237.286 259.108 Z M229.661 264.176 C229.488 264.209 229.314 264.234 229.136 264.252 228.925 264.273 228.682 264.277 228.425 264.27 228.5 264.266 228.574 264.261 228.643 264.252 228.893 264.221 229.247 264.198 229.661 264.176 Z M228.425 264.27 C227.062 264.347 224.712 263.76 224.712 263.76 224.712 263.76 226.876 264.229 228.425 264.27 Z M204.015 262.739 C203.377 262.259 202.764 261.745 202.101 261.303 201.796 261.099 200.934 260.493 201.116 260.811 201.456 261.407 201.842 261.987 202.263 262.553 200.145 262.266 198.141 261.762 196.226 261.069 195.103 260.323 193.908 259.863 192.679 259.528 192.139 259.253 191.605 258.963 191.077 258.659 190.843 258.215 190.589 257.782 190.304 257.37 188.069 254.143 184.902 251.456 182.122 248.696 185.086 248.321 189.242 249.063 190.794 249.506 191.349 249.664 193.815 251.364 194.727 249.996 195.244 249.219 191.343 245.631 191.286 245.573 187.959 242.246 182.127 238.072 179.979 233.776 179.815 233.448 180.637 234.104 180.964 234.268 181.903 234.737 182.582 235.605 183.421 236.235 186.05 238.207 189.106 239.699 191.776 241.641 195.076 244.04 197.146 247.28 200.134 249.996 202.378 252.037 204.7 254.018 207.042 255.953 204.027 255.168 201.087 253.919 198.167 252.946 197.235 252.635 195.218 251.963 195.218 252.946 195.218 254.307 205.728 259.922 207.507 260.811 208.817 261.466 210.151 262.076 211.438 262.778 211.957 263.061 213.332 263.343 212.915 263.76 212.437 264.238 211.61 263.402 210.948 263.27 208.853 262.851 206.691 262.904 204.558 262.778 204.375 262.767 204.195 262.752 204.015 262.739 Z M207.042 255.953 C207.685 256.121 208.331 256.269 208.981 256.387 209.626 256.504 211.106 257.023 210.948 256.387 210.4 254.197 202.851 252.425 203.573 250.981 203.727 250.675 206.04 251.755 208.489 252.455 209.788 252.826 211.088 253.232 212.423 253.438 213.233 253.562 214.061 253.438 214.88 253.438 L215.97 253.438 C214.435 253.623 212.456 254.216 212.915 255.897 213.225 257.035 215.236 261.138 215.862 262.286 216.319 263.124 216.865 263.914 217.339 264.743 217.52 265.061 218.195 265.727 217.829 265.727 216.791 265.727 213.09 260.853 212.423 260.319 210.634 258.888 208.832 257.434 207.042 255.953 Z M215.97 253.438 C217.374 253.268 218.407 253.438 216.847 253.438 L215.97 253.438 Z M182.122 248.696 C181.198 248.813 180.39 249.037 179.813 249.414 178.317 247.688 177.112 245.822 177.522 244.59 177.615 244.311 181.832 248.408 181.946 248.522 182.004 248.58 182.064 248.638 182.122 248.696 Z M179.813 249.414 C181.345 251.181 183.184 252.8 183.913 253.438 186.213 255.451 188.579 257.217 191.077 258.659 191.174 258.841 191.266 259.025 191.356 259.211 187.511 258.402 183.487 258.297 180.472 254.42 178.397 251.753 178.566 250.23 179.813 249.414 Z M206.763 290.487 C206.626 290.384 206.524 290.303 206.524 290.303 206.524 290.303 206.686 290.428 206.763 290.487 Z M201.569 289.703 C198.554 287.615 196.178 285.315 194.727 280.963 194.278 279.617 193.741 278.586 193.186 277.489 194.242 278.669 195.282 279.777 195.71 280.473 197.652 283.629 199.576 286.697 201.569 289.703 Z M193.186 277.489 C191.758 275.891 190.304 274.157 190.304 273.1 190.304 272.05 191.855 274.593 192.268 275.557 192.573 276.269 192.882 276.886 193.186 277.489 Z M175.936 243.635 C175.373 243.649 174.745 241.812 174.573 241.641 172.69 239.758 171.132 236.664 171.132 233.776 171.132 232.793 171.132 231.81 171.132 230.827 171.132 230.335 171.213 228.867 171.132 229.352 170.97 230.325 171.081 231.334 170.888 232.301 170.75 232.988 170.462 234.894 170.149 234.268 168.689 231.348 167.884 228.12 167.2 224.928 166.526 221.784 167.831 218.249 167.2 215.096 166.312 210.657 161.478 207.806 160.809 203.791 160.332 200.931 162.138 198.68 161.794 195.926 161.371 192.538 158.435 190.038 157.86 186.588 157.436 184.046 158.365 181.248 157.86 178.723 157.428 176.565 155.717 174.532 155.403 172.332 154.913 168.9 154.696 164.999 152.454 162.01 150.72 159.697 146.836 159.763 144.589 158.078 143.934 157.587 142.706 155.948 142.132 155.621 139.081 153.877 136.186 152.39 133.284 150.213 133.1 150.075 130.947 147.635 131.317 147.264 131.602 146.98 135.752 149.625 136.233 149.721 138.479 150.17 140.838 150.326 143.114 150.705 144.474 150.932 145.544 151.583 146.768 151.977 147.823 152.741 148.881 153.227 149.995 152.67 150.742 152.297 148.358 152.344 147.538 152.18 147.272 152.127 147.018 152.057 146.768 151.977 146.044 151.451 145.321 150.796 144.583 150.256 146.741 150.377 149.176 150.378 149.505 150.213 150.553 149.688 150.423 146.807 151.472 146.282 154.08 144.978 162.558 149.995 164.251 151.688 168.151 155.588 164.077 159.362 165.726 163.485 166.319 164.968 168.183 167.01 168.183 168.893 168.183 169.411 168.172 167.292 168.675 167.418 169.061 167.514 172.315 169.77 172.116 170.368 171.636 171.806 169.788 171.721 168.675 171.35 168.327 171.234 167.692 170.492 167.692 170.858 167.692 171.379 171.652 175.747 171.132 176.266 170.542 176.857 169.138 175.079 168.675 175.774 167.745 177.168 169.543 183.106 170.149 184.621 170.299 184.994 170.429 185.374 170.554 185.756 169.646 184.15 168.451 182.568 168.183 180.69 167.954 179.085 168.413 177.38 168.183 175.774 167.726 172.572 165.623 169.686 164.382 166.746 164.791 165.132 165.067 163.471 164.741 161.52 164.462 159.847 163.444 158.254 162.284 157.094 161.909 156.719 161.502 156.373 161.118 156.006 160.554 155.132 159.968 154.287 159.827 154.147 159.568 153.888 160.098 154.836 160.317 155.129 160.555 155.447 160.831 155.732 161.118 156.006 161.714 156.928 162.284 157.883 162.284 158.078 162.284 160.192 157.434 157.522 156.878 158.078 156.298 158.658 157.861 159.389 158.352 160.045 158.738 160.558 159.429 163.422 160.809 162.502 161.114 162.299 159.504 157.263 161.794 159.553 162.212 159.971 162.472 160.521 162.776 161.028 163.686 162.544 163.557 164.702 164.251 166.436 164.292 166.54 164.338 166.643 164.382 166.746 163.999 168.258 163.501 169.726 163.268 171.35 163.003 173.206 163.038 175.195 163.118 177.174 163.044 176.955 162.938 176.67 162.776 176.266 162.64 175.926 162.611 175.119 162.284 175.282 160.542 176.153 162.341 180.801 162.776 181.672 162.935 181.99 163.109 182.271 163.296 182.526 163.38 184.165 163.706 187.054 164.741 187.571 166.663 188.532 166.298 186.524 165.517 184.36 166.75 185.031 168.081 185.502 169.167 186.588 170.247 187.667 170.93 191.071 171.132 192.487 171.692 196.407 174.385 201.788 173.591 205.758 173.274 207.344 171.61 206.783 171.132 208.215 170.661 209.63 174.119 221.7 175.065 222.961 179.198 228.472 176.54 216.764 176.54 214.606 176.54 214.114 176.074 212.976 176.54 213.131 177.397 213.417 179.995 220.855 180.964 222.471 181.418 223.227 181.322 225.552 181.946 224.928 182.294 224.581 181.537 223.725 181.946 223.453 182.809 222.878 183.933 224.053 184.895 224.438 187.128 225.331 189.087 226.162 191.286 226.895 191.927 227.109 192.603 227.199 193.253 227.385 193.751 227.527 195.014 228.308 194.727 227.877 194.233 227.136 181.506 221.121 185.388 220.012 188.016 219.261 193.745 219.944 196.2 220.996 197.596 221.594 199.729 223.854 201.718 224.918 201.196 224.964 200.708 225.093 200.626 225.42 200.186 227.179 202.567 228.597 203.573 229.352 203.944 229.63 204.944 230.077 204.558 230.334 202.684 231.584 194.53 227.564 191.286 228.862 188.964 229.79 195.367 233.959 191.286 232.793 186.267 231.359 179.404 226.16 174.083 229.352 169.037 232.38 174.279 237.187 175.556 240.166 176.013 241.231 177.084 243.09 176.048 243.608 176.011 243.626 175.974 243.634 175.936 243.635 Z M201.718 224.918 C202.332 224.865 202.99 224.928 203.083 224.928 203.486 224.928 204.061 224.975 204.729 225.045 204.565 225.219 204.35 225.349 204.065 225.42 203.35 225.599 202.546 225.362 201.718 224.918 Z M204.729 225.045 C205.74 223.982 204.797 221.253 205.542 220.012 206.025 219.206 209.571 219.207 210.456 219.03 212.346 218.651 213.904 219.151 215.542 219.598 214.398 220.483 213.406 221.734 213.897 222.961 214.034 223.303 217.324 225.673 216.847 225.911 215.39 226.639 208.43 225.433 204.729 225.045 Z M215.542 219.598 C216.168 219.114 216.839 218.737 217.339 218.537 219.101 217.833 222.464 218.309 224.895 218.481 224.833 218.501 224.776 218.516 224.712 218.537 222.956 219.122 219.218 220.325 217.339 220.012 216.717 219.908 216.125 219.757 215.542 219.598 Z M224.895 218.481 C226.495 217.965 227.483 217.877 229.136 218.537 229.476 218.673 230.118 219.03 230.118 219.03 230.118 219.03 227.505 218.537 226.184 218.537 225.805 218.537 225.362 218.514 224.895 218.481 Z M165.517 184.36 C164.7 183.916 163.926 183.384 163.296 182.526 163.278 182.18 163.268 181.87 163.268 181.672 163.268 180.224 163.18 178.702 163.118 177.174 163.47 178.217 163.038 177.671 163.759 180.198 163.832 180.451 164.833 182.465 165.517 184.36 Z M170.554 185.756 C171.151 186.813 171.624 187.879 171.624 189.045 171.624 189.563 171.296 188.063 171.132 187.571 170.932 186.969 170.751 186.359 170.554 185.756 Z M144.583 150.256 C142.767 150.154 141.147 149.967 141.147 149.721 141.147 149.355 141.766 149.231 142.132 149.231 142.981 149.231 143.79 149.676 144.583 150.256 Z" fill="#a6a6a6" fill-opacity="1" stroke="#7c7c7c" stroke-width="1" stroke-opacity="1" stroke-linejoin="round" stroke-linecap="round"/>
 </g>
</svg>
