<?xml version="1.0" ?>
<svg xmlns="http://www.w3.org/2000/svg" xmlns:ev="http://www.w3.org/2001/xml-events" xmlns:xlink="http://www.w3.org/1999/xlink" baseProfile="full" height="399px" version="1.1" viewBox="155.39375 145.225 480.4 319.3" width="600px">
	<defs/>
	<path d="M 267.78125,172.0 C 265.03825,172.0 262.774246,174.165253 262.65625,176.90625 L 255.53125,342.53125 L 229.0,342.53125 L 229.0,396.1875 L 195.59375,396.1875 L 195.59375,437.75 L 595.59375,437.75 L 595.59375,396.1875 L 561.15625,396.1875 L 561.15625,313.0625 L 541.03125,313.0625 L 541.03125,248.9375 L 484.4375,280.21875 L 484.4375,248.9375 L 427.84375,280.21875 L 427.84375,248.9375 L 354.90625,289.25 L 354.90625,342.53125 L 336.78125,342.53125 L 329.65625,176.90625 C 329.53825,174.16525 327.305496,172.000031 324.5625,172.0 L 315.75,172.0 C 313.007,172.0 310.742956,174.165253 310.625,176.90625 L 303.5,342.53125 L 288.8125,342.53125 L 281.71875,176.90625 C 281.60075,174.16525 279.336787,172.000031 276.59375,172.0 L 267.78125,172.0" fill="black"/>
</svg>
