<?xml version="1.0" ?>
<svg xmlns="http://www.w3.org/2000/svg" xmlns:ev="http://www.w3.org/2001/xml-events" xmlns:xlink="http://www.w3.org/1999/xlink" baseProfile="full" height="600px" version="1.1" viewBox="190.6044137608588 64.8624999999999 410.78998641858783 480.40000000000015" width="514px">
	<defs/>
	<path d="M 428.71875,105.0625 C 278.832753,179.2005 279.185791,308.862712 292.46875,378.96875 C 274.64675,362.666751 256.121964,335.789785 249.875,292.46875 C 206.097,366.013748 222.222478,445.127502 281.6875,505.0625 C 309.591499,483.6825 381.509534,414.613403 372.4375,300.6875 C 407.5215,320.5375 429.950073,378.326767 432.375,433.71875 C 449.757999,419.527749 466.242416,393.907801 473.3125,366.46875 C 501.8535,398.768751 515.034017,451.525482 507.75,505.0625 C 507.994,505.0625 508.192457,505.0625 508.4375,505.0625 C 597.613505,440.110499 583.121826,264.528275 477.34375,210.28125 C 490.22275,239.704249 490.01826,270.106954 485.03125,295.625 C 446.54525,255.163999 403.747648,213.331553 428.71875,105.0625" fill="black"/>
</svg>
