<?xml version="1.0" encoding="UTF-8"?>
<svg width="637px" height="545px" viewBox="0 0 637 545" xmlns="http://www.w3.org/2000/svg" xmlns:xlink="http://www.w3.org/1999/xlink" version="1.1">
 <!-- Generated by Pixelmator Pro 2.1.5 -->
 <path id="Path" d="M359.947 470.857 C357.938 470.857 355.94 470.833 354.441 470.783 L346.543 470.377 C343.544 470.176 340.864 470.002 340.764 470.002 340.664 470.002 339.965 467.597 339.266 464.6 L335.863 450.018 C335.164 447.019 332.177 444.123 329.18 443.523 L305.387 437.527 C302.489 436.627 298.485 437.821 296.486 440.119 L286.715 451.393 C284.715 453.69 282.91 455.614 282.811 455.514 282.611 455.414 280.2 454.314 277.502 453.016 L253.615 440.213 C251.016 438.614 248.719 437.315 248.619 437.215 248.518 437.115 249.037 434.616 249.836 431.719 L253.74 416.918 C254.439 413.919 253.132 409.948 250.834 408.051 L233.631 392.25 C231.531 390.052 227.434 389.247 224.637 390.346 L210.555 395.935 C207.757 397.034 205.377 397.846 205.277 397.746 205.176 397.546 203.58 395.46 201.781 393.062 L186.385 369.955 C184.786 367.357 183.489 365.059 183.389 364.959 183.289 364.858 184.98 362.878 186.979 360.68 L197.564 349.189 C199.663 346.991 200.382 342.775 199.283 339.978 L192.162 319.713 C191.263 316.815 188.072 314.11 185.074 313.81 L169.586 312.125 C166.488 311.824 163.996 311.419 163.996 311.219 163.896 311.019 163.591 308.41 163.092 305.412 L160.312 276.934 C160.112 273.936 160 271.358 160 271.158 160 270.958 162.286 269.939 165.184 268.939 L180.484 263.352 C183.382 262.352 185.992 258.949 186.293 255.951 L189.07 236.965 C189.67 233.967 188.072 230.171 185.574 228.473 L172.178 219.478 C169.68 217.78 167.682 216.276 167.682 216.076 167.782 215.976 168.587 213.477 169.586 210.58 L180.578 183.227 C181.877 180.429 182.976 178.018 183.076 177.918 183.176 177.818 185.668 178.018 188.666 178.418 L205.371 180.603 C208.369 181.003 212.165 179.23 213.863 176.732 L223.855 162.93 C225.754 160.532 226.035 156.448 224.637 153.75 L216.77 139.137 C215.37 136.439 214.263 134.147 214.363 134.047 214.463 133.947 216.351 132.147 218.549 130.049 L241.436 110.283 C243.834 108.384 245.927 106.762 246.027 106.662 246.127 106.562 248.244 107.86 250.742 109.658 L264.605 119.557 C267.003 121.355 271.212 121.555 273.91 120.057 L287.807 112.969 C290.505 111.67 292.709 108.066 292.709 105.068 L292.49 88.082 C292.49 85.084 292.608 82.592 292.709 82.492 292.908 82.392 295.399 81.705 298.297 80.807 L328.057 73.594 C331.053 73.094 333.57 72.594 333.77 72.594 333.969 72.594 335.152 74.798 336.551 77.496 L344.355 92.797 C345.654 95.495 349.352 97.58 352.35 97.48 L367.338 97.48 C370.336 97.58 373.933 95.495 375.332 92.797 L383.139 77.496 C384.538 74.798 385.718 72.594 385.918 72.594 386.018 72.594 388.633 72.994 391.631 73.594 L421.389 80.807 C424.286 81.705 426.878 82.392 426.979 82.492 427.177 82.492 427.197 85.084 427.197 88.082 L426.979 105.068 C426.878 108.166 429.083 111.67 431.881 112.969 L445.777 120.057 C448.375 121.555 452.584 121.355 455.082 119.557 L468.945 109.658 C471.342 107.959 473.56 106.561 473.66 106.662 473.76 106.762 475.852 108.385 478.25 110.283 L501.139 130.049 C503.337 132.147 505.224 133.947 505.324 134.047 505.424 134.147 504.319 136.438 502.92 139.137 L495.051 153.75 C493.652 156.448 493.934 160.532 495.832 162.93 L505.824 176.732 C507.423 179.329 511.319 181.002 514.316 180.603 L531.023 178.418 C534.021 178.018 536.511 177.718 536.611 177.918 536.711 178.118 537.81 180.429 539.109 183.227 L550.102 210.58 C551.101 213.477 552.006 215.875 552.006 216.076 552.106 216.276 550.008 217.78 547.51 219.478 L534.113 228.473 C531.615 230.171 530.016 233.967 530.615 236.965 L533.396 255.951 C533.695 258.949 536.305 262.352 539.203 263.352 L554.504 268.939 C557.401 269.939 559.7 270.939 560 270.939 560 271.139 559.887 273.748 559.687 276.746 L556.877 305.225 C556.376 308.322 556.004 310.801 556.004 311.002 555.904 311.201 553.38 311.606 550.383 311.906 L534.895 313.625 C531.897 313.925 528.706 316.596 527.807 319.494 L520.719 339.791 C519.62 342.589 520.406 346.773 522.404 348.973 L533.021 360.68 C535.12 362.878 536.711 364.858 536.611 364.959 536.511 365.058 535.212 367.356 533.613 369.955 L518.219 393.062 C516.42 395.56 514.823 397.646 514.723 397.746 514.623 397.846 512.211 397.035 509.414 395.935 L495.332 390.346 C492.534 389.247 488.436 390.052 486.338 392.25 L469.164 408.051 C466.766 410.049 465.46 414.02 466.26 416.918 L470.164 431.719 C470.963 434.616 471.45 437.115 471.35 437.215 471.15 437.315 468.951 438.614 466.354 440.213 L442.467 453.016 C439.668 454.315 437.289 455.413 437.189 455.514 436.99 455.514 435.286 453.69 433.287 451.393 L423.482 440.119 C421.483 437.821 417.51 436.628 414.613 437.527 L390.82 443.523 C387.823 444.122 384.836 447.02 384.137 450.018 L380.732 464.6 C380.033 467.497 379.434 470.002 379.234 470.002 379.035 470.002 376.425 470.176 373.428 470.377 L365.527 470.783 C363.979 470.833 361.957 470.857 359.947 470.857 Z M359.766 409.643 C435.906 409.643 497.799 347.9 497.799 271.609 497.799 195.319 435.906 133.576 359.766 133.576 283.475 133.576 221.732 195.319 221.732 271.609 221.732 347.9 283.625 409.643 359.766 409.643 Z" fill="#000000" fill-opacity="1" stroke="none"/>
</svg>
