<?xml version="1.0" encoding="UTF-8"?>
<svg width="637px" height="547px" viewBox="0 0 637 547" xmlns="http://www.w3.org/2000/svg" xmlns:xlink="http://www.w3.org/1999/xlink" version="1.1">
 <!-- Generated by Pixelmator Pro 2.1.5 -->
 <path id="Path" d="M358.024 506.031 C357.247 506.007 356.363 505.777 355.313 505.375 335.269 497.693 315.169 490.125 295.032 482.687 291.58 481.413 290.836 479.805 291.657 476.187 294.222 464.892 296.274 453.5 298.626 442.156 299.504 437.919 298.804 434.992 294.813 432.125 287.433 426.823 280.854 420.454 274.782 413.625 274.05 412.801 273.35 411.935 272.501 410.937 270.735 411.29 269.012 411.554 267.313 412 255.878 415 244.397 417.908 233.032 421.156 229.764 422.09 228.104 422.113 226.501 418.468 217.771 398.615 208.777 378.881 199.688 359.187 198.308 356.197 198.532 354.722 201.407 352.875 211.54 346.366 221.393 339.405 231.532 332.906 234.801 330.811 235.965 328.646 235.313 324.75 233.877 316.18 233.414 307.43 234.344 298.843 234.878 293.913 233.163 291.507 229.407 289.375 219.332 283.655 209.408 277.662 199.219 272.156 195.887 270.355 195.367 268.679 196.657 265.312 204.337 245.268 211.903 225.166 219.344 205.031 220.612 201.601 222.171 200.826 225.813 201.656 237.106 204.227 248.524 206.275 259.876 208.593 263.769 209.389 266.636 209.059 269.376 205.218 274.532 197.992 280.734 191.523 287.626 185.875 290.709 183.35 291.152 180.91 290.094 177.218 286.836 165.856 284.089 154.366 280.844 143 279.909 139.727 279.903 138.063 283.532 136.468 303.387 127.737 323.153 118.721 342.844 109.625 345.871 108.227 347.298 108.598 349.126 111.437 355.644 121.563 362.605 131.386 369.094 141.531 371.212 144.842 373.407 145.824 377.282 145.156 385.85 143.675 394.596 143.603 403.188 144.437 408.112 144.916 410.507 143.103 412.626 139.375 418.351 129.304 424.338 119.345 429.844 109.156 431.197 106.652 432.491 105.751 434.469 106 435.129 106.082 435.848 106.303 436.688 106.625 456.733 114.305 476.833 121.872 496.969 129.312 500.416 130.586 501.169 132.188 500.344 135.812 497.776 147.105 495.741 158.502 493.376 169.843 492.486 174.11 493.241 177.011 497.188 179.875 504.36 185.078 511.04 191.064 516.657 198 518.824 200.675 520.901 201.144 524.094 200.25 535.693 197.001 547.418 194.143 559.001 190.843 562.272 189.911 563.935 189.899 565.532 193.531 574.263 213.386 583.25 233.12 592.344 252.812 593.74 255.832 593.411 257.293 590.563 259.125 580.433 265.641 570.61 272.598 560.469 279.093 557.185 281.197 556.042 283.37 556.688 287.25 558.115 295.822 558.606 304.573 557.657 313.156 557.108 318.122 558.902 320.505 562.626 322.625 572.694 328.357 582.624 334.307 592.813 339.812 596.163 341.623 596.625 343.343 595.344 346.687 587.665 366.732 580.096 386.831 572.657 406.968 571.38 410.424 569.775 411.134 566.157 410.312 554.863 407.748 543.439 405.72 532.094 403.375 528.148 402.56 525.37 403.036 522.657 406.812 517.476 414.024 511.274 420.486 504.376 426.125 501.277 428.66 500.889 431.112 501.938 434.781 505.187 446.145 507.93 457.638 511.188 469 512.138 472.312 512.027 473.953 508.438 475.531 488.587 484.268 468.845 493.242 449.157 502.343 446.101 503.756 444.689 503.351 442.876 500.531 436.606 490.776 429.941 481.269 423.594 471.562 421.253 467.983 419.084 465.872 414.032 466.875 405.757 468.517 397.144 468.417 388.782 467.531 383.814 467.005 381.483 468.961 379.376 472.656 373.637 482.72 367.662 492.654 362.157 502.843 360.917 505.139 359.733 506.083 358.024 506.031 Z M396.001 444.119 C472.259 444.119 534.095 382.282 534.096 306.023 534.096 229.765 472.26 167.927 396.001 167.927 319.743 167.927 257.905 229.765 257.905 306.023 257.905 382.282 319.743 444.119 396.001 444.119 Z" fill="#000000" fill-opacity="1" stroke="none"/>
</svg>
