<?xml version="1.0" encoding="UTF-8"?>
<svg width="254px" height="261px" viewBox="0 0 254 261" xmlns="http://www.w3.org/2000/svg" xmlns:xlink="http://www.w3.org/1999/xlink" version="1.1">
 <!-- Generated by Pixelmator Pro 2.2 -->
 <path id="Path" d="M130.5 261 C79.496 261 35.453 231.638 14.029 189.008 5.112 171.39 -0 151.597 -0 130.5 -0 109.403 5.112 89.61 14.029 71.992 35.453 29.362 79.496 -0 130.5 -0 165.735 -0 195.206 12.942 217.717 34.039 L180.525 71.23 C166.932 58.289 149.749 51.656 130.5 51.656 96.461 51.656 67.642 74.602 57.311 105.596 54.701 113.426 53.18 121.8 53.18 130.5 53.18 139.2 54.592 147.574 57.311 155.404 67.642 186.398 96.461 209.344 130.5 209.344 148.117 209.344 163.017 204.559 174.762 196.729 188.464 187.485 197.708 173.892 200.861 157.797 L130.5 157.797 130.5 108.75 253.387 108.75 C254.692 116.689 255.453 124.844 255.453 133.436 255.453 173.129 241.316 206.625 216.738 229.354 195.206 249.255 165.735 261 130.5 261 Z" fill="#ea4335" fill-opacity="1" stroke="none"/>
</svg>
