<?xml version="1.0" ?>
<svg xmlns="http://www.w3.org/2000/svg" xmlns:ev="http://www.w3.org/2001/xml-events" xmlns:xlink="http://www.w3.org/1999/xlink" baseProfile="full" height="600px" version="1.1" viewBox="195.64849987365315 65.86234374999998 401.9664390159851 480.7753125" width="502px">
	<defs/>
	<path d="M 371.5,106.09375 C 276.900014,106.09377 229.3125,167.200002 229.3125,240.5 C 229.312471,313.799988 272.1,370.393748 280.0,421.59375 C 287.900004,472.793762 251.5,506.40625 251.5,506.40625 L 435.40625,506.40625 C 447.006195,443.606298 469.199999,455.1 488.5,454.5 C 507.800049,453.900055 531.6875,448.206251 527.6875,422.40625 C 524.987483,405.106209 528.30625,399.60625 534.90625,390.40625 C 541.506266,381.206278 528.40625,373.0 528.40625,373.0 L 536.0,368.6875 C 539.600032,366.687459 541.4,362.5 540.5,358.5 C 540.100057,356.900082 539.6875,354.99375 539.1875,352.59375 C 537.587499,344.693681 541.0875,337.80625 547.6875,335.40625 C 553.587402,333.306271 557.8125,330.30625 560.8125,327.40625 C 564.8125,323.60627 564.8125,316.8875 561.8125,312.1875 C 550.912524,294.987493 539.7,276.1 532.0,264.0 C 520.599948,246.099976 539.0125,236.487501 533.3125,217.1875 C 519.112549,150.687505 477.200002,106.09375 371.5,106.09375" fill="black"/>
</svg>
