<?xml version="1.0" ?>
<svg xmlns="http://www.w3.org/2000/svg" xmlns:ev="http://www.w3.org/2001/xml-events" xmlns:xlink="http://www.w3.org/1999/xlink" baseProfile="full" height="520px" version="1.1" viewBox="159.443828125 100.70320312499632 472.70609375 409.593593750004" width="600px">
	<defs/>
	<path d="M 395.8125,135.0 C 352.412501,135.0 327.306254,156.68751 318.40625,187.6875 C 314.20625,202.387499 314.012464,219.700022 315.3125,238.5 C 312.9125,238.4 310.212488,238.40002 307.3125,238.5 C 293.2125,239.2 303.593744,271.712517 313.09375,290.8125 C 315.09375,294.7125 319.293742,293.812517 321.09375,293.3125 C 324.69375,325.612501 329.712549,335.299998 342.3125,349.5 L 342.09375,364.90625 C 341.79375,385.90625 329.787525,403.299988 310.1875,414.5 C 308.5875,415.4 307.006283,416.300024 305.40625,417.0 C 296.20625,421.5 286.106234,423.787415 275.90625,424.1875 C 228.706248,426.3875 213.200002,447.900052 199.0,476.0 L 395.8125,476.0 L 592.59375,476.0 C 578.393751,447.899999 562.887482,426.387472 515.6875,424.1875 C 505.4875,423.6875 495.287488,421.500041 486.1875,417.0 C 484.6875,416.2 483.106303,415.400012 481.40625,414.5 C 461.80625,403.300001 449.699987,385.906301 449.5,364.90625 L 449.3125,349.5 C 461.9125,335.300001 466.799952,325.612498 470.5,293.3125 C 472.2,293.9125 476.499968,294.812483 478.5,290.8125 C 488.1,271.7125 498.412482,239.200036 484.3125,238.5 C 481.4125,238.4 478.712528,238.299994 476.3125,238.5 C 477.6125,219.800001 477.487459,202.387522 473.1875,187.6875 C 464.2875,156.6875 439.212611,134.99999 395.8125,135.0" fill="black"/>
</svg>
