<?xml version="1.0" ?>
<svg xmlns="http://www.w3.org/2000/svg" xmlns:ev="http://www.w3.org/2001/xml-events" xmlns:xlink="http://www.w3.org/1999/xlink" baseProfile="full" height="600px" version="1.1" viewBox="301.3154404242401 65.72476170095274 188.77497574439698 480.1787805685306" width="236px">
	<defs/>
	<path d="M 395.59375,105.90625 C 385.99375,106.00625 380.593765,110.787531 378.59375,117.6875 C 377.69375,120.9875 377.606266,124.89373 377.90625,129.09375 C 377.40625,129.09375 376.793701,129.09375 376.09375,129.09375 C 372.89375,129.29375 375.306369,136.60626 377.40625,140.90625 C 377.80625,141.80625 378.78741,141.599992 379.1875,141.5 C 380.1875,148.8 381.099996,150.987501 384.0,154.1875 L 384.0,157.6875 C 383.9,162.1875 380.593746,167.712484 376.59375,169.8125 C 375.09375,170.6125 372.812561,171.093732 372.8125,171.09375 C 355.612501,173.79375 349.993764,180.000028 348.59375,195.0 C 347.89375,201.8 347.793774,217.093722 346.09375,230.59375 C 345.79375,232.79375 345.412484,234.893736 344.8125,237.09375 C 343.5125,241.99375 341.01246,252.193762 340.3125,259.59375 C 338.8125,276.293749 337.206278,282.906301 335.90625,295.40625 C 335.80625,296.60625 335.312496,298.812488 335.3125,298.8125 C 334.0125,304.4125 330.893746,306.099981 328.09375,308.5 C 323.89375,312.1 322.106275,318.693709 317.90625,322.59375 C 317.60625,322.79375 317.412484,323.20002 317.3125,323.5 C 317.0125,324.2 317.306283,325.006275 319.40625,324.90625 C 322.60625,324.70625 326.606249,318.787468 327.40625,319.1875 C 328.00625,319.4875 327.787459,319.699984 327.6875,321.5 C 327.0875,326.0 325.08752,334.1875 324.6875,335.6875 C 324.5875,335.8875 324.600012,336.206287 324.5,336.40625 L 323.8125,339.09375 C 323.6125,339.89375 323.89373,340.812512 324.59375,341.3125 C 324.89375,341.5125 325.200004,341.500008 325.5,341.5 C 326.3,341.5 327.1125,340.993734 327.3125,340.09375 L 328.09375,337.1875 C 328.49375,336.0875 329.087541,334.40002 329.6875,332.5 C 330.2875,330.7 330.993718,328.593738 331.59375,326.59375 C 331.69375,326.59375 331.712508,326.59375 331.8125,326.59375 C 331.0125,330.593749 329.79373,337.012512 329.09375,340.3125 L 328.6875,342.0 C 328.5875,342.5 328.706295,342.912496 328.90625,343.3125 C 329.00625,343.9125 329.312463,344.212529 329.8125,344.3125 C 330.6125,344.5125 331.093721,344.406197 331.59375,343.90625 C 331.99375,343.70625 332.206315,343.312553 332.40625,342.8125 L 333.09375,340.0 C 333.99375,336.6 335.287532,331.587488 336.1875,328.1875 C 336.2875,328.0875 336.406254,328.21252 336.40625,328.3125 C 336.30625,329.5125 336.199988,330.79373 336.0,332.09375 L 334.90625,340.59375 C 334.80625,341.59375 335.406266,342.587524 336.40625,342.6875 C 336.50625,342.6875 336.587467,342.6875 336.6875,342.6875 C 337.5875,342.6875 338.40002,341.993815 338.5,341.09375 L 339.09375,336.8125 C 339.69375,333.9125 340.587508,329.906254 341.1875,326.90625 C 341.2875,326.70625 341.499984,326.79998 341.5,327.0 C 341.4,328.8 341.412512,330.812492 341.3125,332.8125 C 341.3125,333.1125 341.287496,333.512484 341.1875,333.8125 L 341.0,336.09375 C 340.9,336.89375 341.606278,337.712516 342.40625,337.8125 C 342.40625,337.8125 342.49998,337.8125 342.5,337.8125 C 343.3,337.8125 344.000032,337.206278 344.0,336.40625 L 344.1875,334.5 C 344.1875,334.3 344.312581,334.106254 344.3125,333.90625 C 345.1125,324.00625 345.593721,325.593694 346.09375,321.09375 C 346.59375,315.99375 347.293742,311.912533 346.59375,306.8125 C 346.59375,306.5125 346.493795,306.206287 346.59375,305.90625 C 346.89375,303.10625 348.493827,299.387479 350.59375,292.1875 C 356.39375,271.487501 358.093783,266.312449 361.59375,242.3125 L 363.3125,231.1875 C 363.4125,230.5875 364.306258,230.58752 364.40625,231.1875 C 364.50625,232.2875 364.587467,233.406244 364.6875,234.40625 C 366.7875,253.106249 364.187483,266.68749 364.1875,266.6875 C 360.6875,291.087499 359.1875,305.693705 361.1875,333.09375 C 361.7875,341.49375 363.09998,351.806351 364.0,359.40625 C 364.6,364.20625 364.900029,369.006238 365.0,373.90625 C 365.3,417.006251 367.9875,425.90623 374.1875,469.90625 C 375.1875,476.90625 374.11259,480.699972 373.3125,483.0 C 372.5125,485.3 364.699918,494.987501 362.5,497.6875 C 361.2,499.2875 357.287381,502.000024 360.1875,503.5 C 366.5875,506.9 376.987523,506.812557 383.6875,500.3125 C 385.3875,498.6125 385.206287,495.806307 386.40625,493.90625 C 387.60625,492.10625 388.887398,491.387398 390.1875,488.6875 C 391.5875,485.9875 389.493832,479.206352 389.09375,469.40625 C 388.89375,465.10625 389.306368,450.893684 389.90625,437.59375 C 391.10625,411.59375 393.806262,410.493795 392.40625,376.09375 C 392.40625,376.09375 393.112528,366.906291 393.8125,354.40625 C 394.2125,347.20625 394.912471,334.706291 395.3125,326.90625 C 395.3125,326.50625 395.90623,326.50623 395.90625,326.90625 C 396.40625,334.70625 397.006205,347.206251 397.40625,354.40625 C 398.10625,366.80625 398.812488,376.093725 398.8125,376.09375 C 397.4125,410.493749 400.112491,411.493815 401.3125,437.59375 C 401.9125,450.893751 402.293665,465.106313 402.09375,469.40625 C 401.69375,479.30625 399.599959,485.987462 401.0,488.6875 C 402.3,491.2875 403.612581,492.00625 404.8125,493.90625 C 406.0125,495.70625 405.799935,498.612561 407.5,500.3125 C 414.2,506.8125 424.599922,506.900004 431.0,503.5 C 433.9,501.9 430.087521,499.287431 428.6875,497.6875 C 426.4875,494.8875 418.606336,485.300015 417.90625,483.0 C 417.10625,480.7 415.999947,476.906238 417.0,469.90625 C 423.3,425.90625 425.987501,417.006205 426.1875,373.90625 C 426.1875,369.10625 426.587545,364.299955 427.1875,359.5 C 428.1875,351.9 429.500041,341.487564 430.0,333.1875 C 431.7,305.087499 430.499968,291.212524 427.0,266.8125 C 427.0,266.8125 424.5,253.199992 426.5,234.5 C 426.6,233.5 426.712569,232.412486 426.8125,231.3125 C 426.9125,230.7125 427.806258,230.612494 427.90625,231.3125 L 429.59375,242.40625 C 433.09375,266.40625 434.793742,271.612488 440.59375,292.3125 C 442.69375,299.6125 444.293725,303.300001 444.59375,306.0 C 444.59375,306.3 444.59375,306.606254 444.59375,306.90625 C 443.89375,312.00625 444.493827,316.187463 445.09375,321.1875 C 445.59375,325.6875 446.106283,324.099996 446.90625,334.0 C 446.90625,334.2 446.900024,334.393746 447.0,334.59375 L 447.1875,336.5 C 447.2875,337.3 447.887476,337.906262 448.6875,337.90625 C 448.6875,337.90625 448.812581,337.90625 448.8125,337.90625 C 449.6125,337.80625 450.287406,337.0875 450.1875,336.1875 L 450.0,333.90625 C 450.0,333.60625 450.006226,333.206266 449.90625,332.90625 C 449.80625,330.90625 449.78741,328.893717 449.6875,327.09375 C 449.6875,326.89375 449.900085,326.900016 450.0,327.0 C 450.6,330.0 451.493758,334.106262 452.09375,336.90625 L 452.6875,341.1875 C 452.7875,342.0875 453.59998,342.812557 454.5,342.8125 C 454.6,342.8125 454.712569,342.8125 454.8125,342.8125 C 455.8125,342.6125 456.412455,341.687451 456.3125,340.6875 L 455.1875,332.1875 C 455.0875,330.8875 455.01259,329.506275 454.8125,328.40625 C 454.8125,328.30625 454.900004,328.312496 455.0,328.3125 C 455.9,331.7125 457.093746,336.693742 458.09375,340.09375 L 458.8125,342.90625 C 458.9125,343.40625 459.193628,343.699972 459.59375,344.0 C 459.99375,344.5 460.606299,344.606262 461.40625,344.40625 C 461.90625,344.30625 462.212565,343.906266 462.3125,343.40625 C 462.5125,343.00625 462.599882,342.493738 462.5,342.09375 L 462.09375,340.40625 C 461.39375,337.20625 460.206331,330.687472 459.40625,326.6875 C 459.50625,326.6875 459.493738,326.6875 459.59375,326.6875 C 460.19375,328.6875 460.900049,330.693726 461.5,332.59375 C 462.1,334.49375 462.693669,336.212541 463.09375,337.3125 L 463.90625,340.1875 C 464.10625,340.9875 464.887398,341.593721 465.6875,341.59375 C 465.9875,341.59375 466.293795,341.506246 466.59375,341.40625 C 467.29375,341.00625 467.706266,340.087468 467.40625,339.1875 L 466.6875,336.5 C 466.5875,336.3 466.600012,336.012484 466.5,335.8125 C 466.1,334.3125 464.099939,326.09373 463.5,321.59375 C 463.4,319.79375 463.212602,319.612537 463.8125,319.3125 C 464.6125,318.8125 468.712577,324.800008 471.8125,325.0 C 474.1125,325.0 474.39373,324.199992 474.09375,323.5 C 473.99375,323.2 473.800045,322.79373 473.5,322.59375 C 469.3,318.69375 467.512566,312.099999 463.3125,308.5 C 460.5125,306.1 457.393664,304.412479 456.09375,298.8125 C 456.09375,298.8125 455.599976,296.706278 455.5,295.40625 C 454.2,282.90625 452.593697,276.193705 451.09375,259.59375 C 450.39375,252.19375 447.89379,241.993739 446.59375,237.09375 C 445.99375,234.79375 445.512569,232.393736 445.3125,230.09375 C 443.7125,216.69375 443.512508,201.700027 442.8125,195.0 C 441.4125,180.0 435.793664,173.893707 418.59375,171.09375 C 418.59375,171.09375 416.312561,170.612508 414.8125,169.8125 C 410.8125,167.7125 407.506185,162.287512 407.40625,157.6875 L 407.40625,154.1875 C 410.20625,150.9875 411.187472,148.899986 412.1875,141.5 C 412.5875,141.6 413.600012,141.806258 414.0,140.90625 C 416.2,136.60625 418.5125,129.29376 415.3125,129.09375 C 414.6125,129.09375 413.999992,129.09375 413.5,129.09375 C 413.8,124.89375 413.812573,120.987501 412.8125,117.6875 C 410.8125,110.7875 405.412455,105.90624 395.8125,105.90625 C 395.8125,105.90625 395.687419,105.90625 395.6875,105.90625 C 395.6875,105.90625 395.59377,105.90625 395.59375,105.90625" fill="black"/>
</svg>
