<?xml version="1.0" ?>
<svg xmlns="http://www.w3.org/2000/svg" xmlns:ev="http://www.w3.org/2001/xml-events" xmlns:xlink="http://www.w3.org/1999/xlink" baseProfile="full" height="600px" version="1.1" viewBox="306.82586439205687 65.79999999999396 178.28847268843597 480.40000000002937" width="223px">
	<defs/>
	<path d="M 396.0,106.0 C 387.273048,105.999996 378.53346,109.341558 371.875,116.0 C 358.55818,129.316889 358.558193,150.901876 371.875,164.21875 C 385.191889,177.535631 406.808187,177.535618 420.125,164.21875 C 433.44182,150.901876 433.441807,129.316874 420.125,116.0 C 413.466555,109.341552 404.726898,106.000018 396.0,106.0 M 355.1875,181.1875 C 342.287443,181.187518 331.793711,186.200033 328.09375,190.5 C 321.693697,197.900031 321.706251,206.712519 321.90625,209.8125 L 321.90625,335.5 C 321.906278,341.799967 326.887502,346.8125 333.1875,346.8125 C 339.487508,346.812548 344.5,341.699961 344.5,335.5 L 344.5,231.5 L 354.8125,231.5 L 354.8125,340.09375 L 354.90625,340.09375 L 354.90625,488.0 C 354.906235,497.900045 363.006185,506.0 372.90625,506.0 C 382.806295,506.000015 390.90625,497.900065 390.90625,488.0 L 390.90625,340.09375 L 396.0,340.09375 L 401.0,340.09375 L 401.0,488.0 C 400.999985,497.900045 409.099935,506.0 419.0,506.0 C 428.900045,506.000015 437.0,497.900065 437.0,488.0 L 437.0,340.0 L 437.09375,340.0 L 437.09375,231.40625 L 447.40625,231.40625 L 447.40625,335.40625 C 447.406278,341.706319 452.387461,346.6875 458.6875,346.6875 C 464.987467,346.687447 470.0,341.606211 470.0,335.40625 L 470.0,209.8125 C 470.299983,206.712486 470.212565,197.799967 463.8125,190.5 C 460.112605,186.299967 449.587565,181.1875 436.6875,181.1875 L 396.0,181.1875 L 355.1875,181.1875" fill="black"/>
</svg>
