<?xml version="1.0" ?>
<svg xmlns="http://www.w3.org/2000/svg" xmlns:ev="http://www.w3.org/2001/xml-events" xmlns:xlink="http://www.w3.org/1999/xlink" baseProfile="full" height="525px" version="1.1" viewBox="155.92499999999995 95.59062499999999 480.40000000000043 419.9125" width="600px">
	<defs/>
	<path d="M 396.125,130.75 C 385.5,130.75 376.874959,139.34375 376.875,149.96875 C 376.875,156.82475 380.476034,162.842997 385.875,166.25 L 385.875,178.59375 C 380.179,181.08175 375.549238,185.575486 372.90625,191.1875 L 242.9375,191.1875 L 242.9375,209.15625 L 259.25,209.15625 L 211.78125,357.0 L 196.125,357.0 C 209.335,380.707001 234.622533,396.749939 263.6875,396.75 C 292.7525,396.75 318.072215,380.707011 331.28125,357.0 L 315.625,357.0 L 268.125,209.15625 L 371.46875,209.15625 C 373.58375,216.53825 378.931012,222.561722 385.875,225.59375 L 385.875,294.8125 L 371.0625,347.28125 L 371.0625,453.84375 L 315.75,453.84375 C 312.352,453.84375 309.299784,455.948954 308.09375,459.125 L 300.0625,480.34375 L 492.1875,480.34375 L 484.125,459.125 C 482.919,455.949 479.866786,453.84373 476.46875,453.84375 L 421.1875,453.84375 L 421.1875,347.28125 L 406.375,294.84375 L 406.375,225.59375 C 413.319,222.56175 418.634989,216.569467 420.75,209.1875 L 524.09375,209.1875 L 476.625,357.0 L 460.96875,357.0 C 474.17875,380.707001 499.466232,396.75002 528.53125,396.75 C 557.59625,396.75 582.915985,380.706991 596.125,357.0 L 580.4375,357.0 L 532.96875,209.15625 L 549.3125,209.15625 L 549.3125,191.1875 L 419.3125,191.1875 C 416.6695,185.5765 412.072,181.081736 406.375,178.59375 L 406.375,166.25 C 411.774,162.843 415.343798,156.824746 415.34375,149.96875 C 415.34375,139.34375 406.74998,130.75 396.125,130.75 M 260.6875,224.46875 L 260.6875,357.0 L 218.125,357.0 L 260.6875,224.46875 M 266.71875,224.46875 L 309.28125,357.0 L 266.71875,357.0 L 266.71875,224.46875 M 525.53125,224.46875 L 525.53125,357.0 L 482.96875,357.0 L 525.53125,224.46875 M 531.5625,224.46875 L 574.125,357.0 L 531.5625,357.0 L 531.5625,224.46875" fill="black"/>
</svg>
