<?xml version="1.0" encoding="UTF-8"?>
<!-- Generated by Pixelmator Pro 2.4.5 -->
<svg width="1404" height="1872" viewBox="0 0 1404 1872" xmlns="http://www.w3.org/2000/svg" xmlns:xlink="http://www.w3.org/1999/xlink">
    <path id="LeftFoot" fill="#000000" stroke="none" d="M 661.821533 1705.34729 C 661.821533 1705.34729 661.821533 1705.34729 661.821533 1705.34729 C 678.41156 1703.263672 696.209351 1705.651611 711.605652 1699.088623 C 716.605713 1697.068481 710.784851 1687.446167 714.068787 1683.210571 C 735.927673 1654.536621 771.927734 1635.543701 785.69989 1602.266235 C 810.234558 1542.743408 822.850464 1477.601196 825.49939 1413.405273 C 828.025452 1351.827881 813.424561 1290.496094 800.919067 1230.20166 C 799.586365 1223.896729 789.308472 1224.286255 785.22699 1219.434692 C 781.471008 1214.965454 779.462646 1209.104736 778.397217 1203.546387 C 769.866394 1159.949219 760.143372 1116.322021 756.337036 1072.012451 C 754.632751 1051.831299 754.794006 1030.382568 761.929443 1011.248962 C 776.712219 972.259094 794.528381 933.071228 821.013245 900.815674 C 855.563354 858.630005 903.220337 829.111694 942.305908 791.080322 C 958.187195 775.598633 972.944336 758.859131 985.782471 740.842163 C 1001.595154 718.543091 1017.302917 695.603516 1027.833618 670.307861 C 1033.165283 657.718628 1033.261475 643.137207 1032.404419 629.457031 C 1029.491333 583.589844 1031.344604 536.140015 1016.658508 492.634521 C 1009.799011 472.312134 988.943054 458.840942 970.862244 447.157715 C 944.722961 430.348267 911.821411 425.678345 885.974854 408.407959 C 881.635315 405.542236 887.307251 397.605835 890.296448 393.318237 C 901.286072 377.246216 921.292297 366.597046 927.280579 348.095947 C 937.174072 317.413086 937.897156 283.932861 935.974915 251.865601 C 935.584961 245.522461 923.011047 246.325684 920.722107 240.407471 C 918.493225 234.636108 925.290039 228.29834 924.532654 222.27478 C 923.12561 211.552002 919.43811 201.239136 914.411865 191.63623 C 910.617249 184.444946 905.041992 177.801514 898.55957 172.723389 C 882.478271 160.061035 866.217712 146.786377 847.310181 138.857544 C 831.57428 132.38501 813.801758 128.959717 796.782715 130.362427 C 788.508728 131.13855 781.375671 138.126343 776.332886 144.782959 C 770.307312 152.690674 765.878967 162.35022 764.822998 172.18457 C 761.246826 206.817749 782.669922 248.112793 762.459595 276.294189 C 751.057251 292.192017 730.59845 253.071655 712.692993 245.251831 C 698.489746 239.016357 681.87262 229.134888 667.386353 234.647339 C 655.531738 239.094482 651.92334 256.118164 650.730347 268.747314 C 647.674377 300.432983 651.865051 332.610596 654.993652 364.361816 C 660.259094 417.660522 702.687683 477.328003 675.928162 523.723145 C 637.822815 589.754395 548.448792 607.560303 487.90506 653.916626 C 476.140137 662.946899 466.168793 675.188477 460.206604 688.715088 C 453.603149 703.872681 456.065338 721.695435 451.333344 737.462402 C 446.486298 753.961304 434.444885 768.064575 431.631836 784.940186 C 426.192413 817.417236 421.28775 851.21759 426.93689 883.660339 C 429.881744 900.433777 451.736328 908.881775 456.078796 925.261719 C 474.238312 993.706909 487.191101 1063.915527 493.458954 1134.429565 C 497.841187 1183.637329 491.97522 1233.22229 487.84494 1282.446533 C 486.217529 1301.409668 482.660858 1320.467041 476.243011 1338.454468 C 470.919586 1353.266479 456.215424 1364.166748 453.044189 1379.648071 C 445.787201 1414.569824 442.11322 1450.950684 445.604614 1486.491577 C 450.983826 1541.62561 465.87677 1595.482666 479.445679 1649.360596 C 483.471497 1665.354614 487.159393 1682.853027 498.050049 1695.048096 C 518.04718 1717.588623 542.841736 1736.311401 569.331482 1750.584106 C 576.649536 1754.470703 586.784119 1750.889771 594.029663 1746.76355 C 599.439148 1743.723999 598.536621 1734.165405 603.857178 1730.990356 M 591.698792 1698.780029 C 591.698792 1698.780029 591.698792 1698.780029 591.698792 1698.780029 C 567.247742 1672.049927 537.171448 1649.476318 518.361328 1618.585571 C 496.04071 1581.927734 480.332031 1540.888184 470.276459 1499.274902 C 466.407776 1483.390503 473.654327 1466.776733 477.782654 1451.081909 C 494.134094 1388.707031 517.074768 1328.117676 531.612793 1265.276611 C 536.924377 1242.603271 540.139343 1218.551147 536.996399 1195.359375 C 520.974487 1076.780518 488.512268 960.740662 474.478394 842.043701 C 470.702118 810.55188 469.506866 775.795776 483.929871 747.729004 C 507.876068 700.933472 545.957031 661.94043 584.816406 626.566895 C 593.448669 618.80249 609.65802 630.214478 619.636963 624.300903 C 643.592285 609.834229 659.217529 584.361694 681.942871 567.994385 C 690.698853 561.890259 701.86792 559.430298 712.481445 558.051147 C 718.634521 557.275269 724.857849 563.99939 730.667603 561.823242 C 736.433105 559.665039 736.042725 549.214478 741.808228 547.056274 C 747.617981 544.880493 753.901428 551.922485 759.994324 550.828613 C 770.871277 549.000488 782.081543 545.498657 790.761108 538.740356 C 808.414185 524.765259 820.612915 504.953613 837.586426 490.227417 C 841.917603 486.424561 848.032898 483.269043 853.705872 484.057251 C 866.023376 485.752441 878.468201 490.303223 888.566467 497.514404 C 905.780945 509.890015 923.103394 523.761108 934.152161 541.877441 C 950.962952 569.470215 963.779297 600.21814 970.397827 631.75769 C 973.721924 647.521484 969.525208 664.783081 963.111572 679.521606 C 950.340515 708.629272 934.638245 737.213379 913.987183 761.467041 C 909.982666 766.162964 900.178223 754.387451 895.68573 758.595337 C 873.771301 779.425415 862.285706 809.555054 840.872925 830.865234 C 818.228943 853.700256 786.890381 866.702515 764.674988 889.877869 C 758.863953 895.988892 764.824219 907.438354 760.741211 914.903748 C 748.138367 937.102234 728.317627 954.689087 715.611755 976.929443 C 704.061951 996.992493 695.55188 1018.90564 688.427612 1040.945801 C 682.671936 1058.836548 677.787903 1077.403076 677.161072 1096.133301 C 675.421326 1150.7229 676.671265 1205.472656 681.380371 1259.850464 C 682.302124 1270.769165 687.743774 1281.400391 694.019653 1290.498535 C 697.631165 1295.711304 709.203064 1294.799072 709.873352 1301.200195 C 713.364014 1335.371338 699.774048 1370.2854 705.531555 1404.054199 C 708.387512 1420.692383 732.082214 1428.911011 734.555359 1445.531982 C 738.745361 1473.262451 730.994446 1501.711792 724.285217 1528.886353 C 722.208984 1537.593506 711.503601 1542.090088 708.689575 1550.410645 C 702.642517 1568.935181 704.333069 1589.293335 698.226563 1607.670898 C 695.238037 1616.575684 688.72583 1624.168213 682.107483 1630.947754 C 662.866943 1650.181641 642.770752 1668.738281 621.001709 1685.059326 M 414.092865 725.651733 C 414.092865 725.651733 414.092865 725.651733 414.092865 725.651733 C 417.972961 710.740356 425.448029 696.257935 425.659943 680.777588 C 425.84314 669.92627 420.372772 659.477295 415.273407 649.904419 C 411.819672 643.43103 407.869904 634.078369 400.533936 633.619751 C 394.333038 633.218262 395.040527 646.104736 389.305115 648.422119 C 383.348419 650.657471 375.407898 641.378052 370.503265 645.412476 C 358.607697 655.178101 347.316223 668.978516 345.705231 684.341187 C 344.19278 698.296143 352.945313 712.549438 362.186951 723.186646 C 368.662964 730.662964 379.602692 734.282593 389.486053 734.737549 M 483.706665 628.071045 C 483.706665 628.071045 483.706665 628.071045 483.706665 628.071045 C 496.474945 598.279663 519.000732 571.044189 522.040466 538.682495 C 524.116638 517.485718 512.771729 494.698486 497.858643 479.168945 C 485.473572 466.383423 463.56076 453.853027 447.387115 461.412964 C 426.405853 471.088501 417.176544 497.911499 410.036255 519.784668 C 403.597198 540.006592 405.957214 562.318359 408.164795 583.321655 C 408.926453 590.541748 413.676758 597.175903 418.790375 602.295654 C 429.105347 612.668335 441.313721 621.248901 453.637909 629.099854 C 458.095276 631.918091 463.435028 634.379883 468.706177 634.131714 M 588.395325 528.980225 C 588.395325 528.980225 588.395325 528.980225 588.395325 528.980225 C 599.030029 499.70813 617.873413 472.25061 620.357971 441.30957 C 621.836609 421.723877 612.340332 401.268188 599.667969 386.543579 C 590.18988 375.490356 573.291565 373.592773 559.215637 370.043823 C 544.725952 366.317383 529.440857 362.400269 514.707642 364.760864 C 509.555359 365.472778 507.490173 372.979004 506.860474 378.195313 C 504.119751 399.14502 502.898376 420.510376 504.782562 441.644409 C 505.777679 452.533203 509.496796 463.34729 515.287537 472.640991 C 521.269897 482.197876 534.450806 486.453369 539.154541 496.698364 C 543.844238 506.950928 535.704224 520.845825 541.775024 530.367065 C 547.061096 538.666138 558.695313 542.861572 568.428284 542.520752 M 766.253235 423.249878 C 766.253235 423.249878 766.253235 423.249878 766.253235 423.249878 C 766.429626 414.625244 764.660095 405.588135 766.648499 397.087402 C 768.245544 390.4552 771.6828 383.762329 776.643921 379.020264 C 778.273682 377.50769 781.916504 379.114014 783.013 381.066284 C 786.421204 387.046021 788.845398 393.935181 789.090393 400.850342 C 789.886963 422.425903 791.745667 444.597656 786.029907 465.381348 C 783.820251 473.630981 774.396118 478.292725 766.736084 481.901489 C 756.121338 487.046265 732.582458 502.543457 732.497192 490.773193 M 834.542358 325.861938 C 834.542358 325.861938 834.542358 325.861938 834.542358 325.861938 C 834.069336 333.752441 840.378784 352.58667 833.063354 349.384155 C 821.603699 344.604492 814.305664 329.590088 814.14502 317.167358 C 814.075806 309.840698 825.63739 301.746704 832.466248 304.634399"/>
    <path id="RightFoot" fill="#000000" stroke="none" visibility="hidden" d="M 855.616943 1625.259644 C 855.616943 1625.259644 855.616943 1625.259644 855.616943 1625.259644 C 859.547791 1563.787109 868.378601 1502.485107 867.410034 1440.841309 C 866.790222 1401.720093 851.350098 1363.790527 850.972656 1324.736938 C 850.442566 1270.525024 858.430115 1216.512695 864.636658 1162.55542 C 866.961487 1142.759277 875.197327 1123.7146 876.539063 1103.819336 C 877.063416 1095.004639 867.749939 1086.69165 870.213135 1078.416992 C 876.080444 1057.849609 893.371338 1042.095581 900.094604 1021.845154 C 907.551208 999.642456 903.4328 974.341614 912.201599 952.60199 C 914.093994 948.033142 923.488281 959.124268 926.893555 955.432251 C 953.967468 926.959595 982.61908 897.847351 998.544861 861.968323 C 1013.989136 826.944336 1016.642273 787.161011 1018.460999 749.039551 C 1019.988159 716.99292 1015.68811 684.485596 1008.34552 653.209595 C 1006.929077 647.164673 995.45343 647.996704 993.353333 642.062134 C 989.715149 631.787231 995.981323 619.659546 992.783936 609.206665 C 990.436035 601.552856 983.90686 595.588135 977.638916 590.842896 C 969.499268 584.535156 956.498474 584.826172 950.403442 576.701538 C 946.697754 571.746826 956.794739 563.531372 953.415894 558.444702 C 941.905823 540.928467 910.48291 534.930786 909.171875 514.119995 C 907.786865 492.512573 947.117554 483.239502 947.270142 461.671631 C 947.346741 446.751831 924.185364 441.057251 909.647461 437.66626 C 901.395691 435.872925 893.23175 442.975586 886.356201 447.904175 C 882.74762 450.519409 882.860779 462.71521 879.716492 459.518555 C 854.964294 434.28479 841.838135 398.726318 815.255554 375.554932 C 809.569763 370.57251 800.861755 380.873657 794.982117 385.565674 C 791.502258 388.294067 791.34491 400.433594 788.414124 397.150757 C 761.678894 367.092773 749.609131 323.830322 717.950134 298.904541 C 708.068542 291.151123 693.868835 307.310181 683.683777 314.734009 C 679.436096 317.772949 677.134949 323.500732 676.625671 328.668945 C 673.531067 360.357422 664.132935 393.436279 672.911438 423.966675 C 677.105957 438.483276 696.145447 446.342285 711.077576 448.415039 C 724.370056 450.156738 737.341736 441.276855 748.924683 434.446533 C 758.461548 428.939453 763.891663 417.977417 773.027283 411.804688 C 774.846558 410.574707 778.182739 411.872192 779.343872 413.885132 C 784.629822 422.83374 789.647827 432.550903 791.335999 442.953247 C 792.268127 448.862671 786.105957 454.329224 786.753357 460.353638 C 787.622681 468.770386 788.572266 479.637085 795.637573 484.225952 C 808.084595 492.432007 824.217896 496.004395 839.023132 494.652954 C 845.159363 494.158936 844.165588 482.650146 849.467041 479.516602 C 855.606201 475.877319 865.047791 471.731567 870.617432 476.098511 C 876.801086 481.045532 875.65564 491.599121 874.557678 499.48645 C 873.613037 506.319824 871.512268 516.597046 864.722351 517.520874 C 812.838806 524.753784 759.703796 528.685303 707.731812 522.884033 C 691.874939 521.019287 683.404846 501.283203 668.72876 495.134888 C 645.325867 485.402588 619.847656 481.13855 595.06311 475.601074 C 579.741943 472.196899 564.222778 469.038696 548.555176 468.420044 C 543.114014 468.136841 537.423706 469.939087 532.905518 472.923584 C 523.841064 479.067871 518.882996 490.830444 508.916046 495.354126 C 503.427002 497.737549 497.163239 490.341187 491.32959 491.706421 C 475.917786 495.120239 460.25589 500.125488 447.341614 509.147461 C 430.635132 521.024658 416.791168 536.876465 404.47229 553.266968 C 389.091095 573.708008 371.290466 594.300415 364.767639 618.936646 C 358.316864 643.875122 368.163574 670.334961 367.141541 695.893188 C 366.867371 702.952637 356.952881 710.431641 361.046265 716.223511 C 397.167145 767.137817 445.47522 808.827148 482.733215 858.953491 C 514.639954 901.976624 541.417664 948.395081 567.996094 994.893799 C 575.905273 1008.737671 583.590149 1023.500305 585.852295 1039.294678 C 588.888916 1060.730957 579.069092 1083.226318 583.585205 1104.394287 C 585.930847 1115.358887 603.986145 1118.980713 605.321655 1130.1875 C 608.433289 1157.052246 603.84552 1185.0448 596.002991 1210.876709 C 583.332275 1253.217163 563.903137 1293.158813 544.316528 1332.669312 C 537.768494 1345.90271 521.033936 1353.820923 518.022278 1368.272705 C 513.049805 1392.282959 526.923767 1417.777954 521.651978 1441.743164 C 517.600098 1460.254272 495.692719 1471.255859 491.299286 1489.739258 C 488.786255 1500.019531 497.352722 1510.453857 502.980957 1519.42981 C 538.30896 1575.957642 569.676025 1635.741455 613.825989 1685.564697 C 641.190613 1716.525757 678.474426 1737.194946 714.177795 1757.840454 C 727.163147 1765.332275 742.915771 1770.050049 757.850403 1768.814331 C 773.554626 1767.598389 790.225037 1761.854858 801.594727 1750.974731 C 813.119751 1739.866577 813.682007 1721.2771 821.779785 1707.417847 C 828.958801 1695.4198 841.87439 1686.891846 847.241455 1673.97229 M 577.357788 1476.972412 C 577.357788 1476.972412 577.357788 1476.972412 577.357788 1476.972412 C 575.653625 1470.215454 576.126465 1462.746948 572.346375 1456.994141 C 569.082275 1452.026611 558.716614 1452.575806 557.514526 1446.775024 C 555.776917 1438.543579 564.16748 1431.017822 565.078064 1422.543945 C 567.219482 1403.482178 562.337463 1383.619141 566.587341 1364.862671 C 570.908142 1346.077637 579.204407 1327.836914 590.229126 1311.968994 C 595.160156 1304.84729 607.910156 1305.9823 612.527466 1298.658813 C 618.873352 1288.815063 618.102356 1275.893555 620.469299 1264.349609 C 623.857666 1247.760742 628.884705 1231.337402 629.880432 1214.557861 C 632.619751 1166.635986 638.688354 1117.864014 631.532043 1070.466797 C 626.110596 1034.773682 608.607239 1001.811646 592.658875 969.380249 C 587.826294 959.588074 574.638245 955.485901 570.017944 945.442139 C 567.507141 940.004883 574.036804 933.893188 573.574707 927.959412 C 573.128357 922.513794 570.746521 917.191711 567.484009 912.883728 C 560.846313 904.152039 550.16095 898.873108 544.404114 889.620056 C 538.918762 880.751831 536.219421 870.263489 534.616882 859.991943 C 533.23407 851.122559 542.037292 839.459839 535.620728 833.118408 C 525.760864 823.372681 506.516022 830.319824 495.748688 821.766479 C 467.044312 798.790405 437.037415 773.858398 420.531708 740.989868 C 411.625977 723.24707 421.105316 701.055054 425.410767 681.781494 C 430.289917 659.792114 437.677429 638.11377 447.732544 617.839844 C 454.80545 603.899902 463.699921 589.884277 476.199127 580.36731 C 488.72699 570.839111 504.338593 563.703613 520.05835 562.812866 C 536.674194 561.889038 553.612793 567.618286 568.3927 575.210693 C 591.048462 586.901123 605.264099 616.559448 630.581909 619.730835 C 680.161743 625.67041 729.446228 603.938843 779.365662 600.975098 C 790.99823 600.245361 802.731384 603.941528 813.45636 608.540161 C 824.381531 613.225464 833.622498 621.070801 843.146301 628.141846 C 854.783325 636.840698 868.84845 643.564941 876.750732 655.590332 C 880.115295 660.682861 872.605286 667.521606 873.039185 673.632446 C 873.457397 679.089722 875.881897 684.394531 879.130005 688.707886 C 885.667725 697.314453 899.126343 701.473022 902.011292 712.052124 C 913.954102 755.861328 926.844971 801.605957 922.158997 846.675293 C 918.92218 878.421326 896.870972 905.527161 879.347412 932.128418 C 868.863098 947.943176 848.511902 956.000244 839.21344 972.660889 C 831.909241 985.536926 836.996033 1002.671814 831.732056 1016.543518 C 823.675232 1037.997192 807.216125 1055.563965 799.657593 1077.145386 C 787.72821 1111.411865 778.40918 1146.773804 773.577698 1182.639404 C 766.525696 1235.445923 770.144653 1289.237549 764.161499 1342.109131 C 761.979309 1361.684326 749.352173 1379.523926 749.235596 1399.258057 C 748.925537 1437.264648 761.374023 1474.585571 762.858032 1512.529785 C 764.835388 1561.193359 763.466248 1609.886353 759.589539 1658.433105 C 757.922058 1678.462769 754.076599 1698.875244 746.350952 1717.545776 C 744.415588 1722.132324 737.46051 1724.611084 732.557678 1723.449829 C 716.281372 1719.769409 701.059631 1712.02417 686.433533 1703.870483 C 670.681885 1695.182495 655.096741 1685.433105 641.909485 1673.224731 C 623.278992 1655.938232 605.782471 1637.036133 591.639099 1615.95105 C 582.74939 1602.668945 575.390076 1587.443604 573.740295 1571.567505 M 651.782227 384.199097 C 651.782227 384.199097 651.782227 384.199097 651.782227 384.199097 C 649.025391 373.567139 644.717346 363.231689 643.511536 352.304565 C 640.643555 326.002563 647.908997 297.921997 639.575745 272.834961 C 636.467834 263.503906 622.711975 259.798096 613.002502 260.577515 C 597.441101 261.736816 580.625854 267.04126 569.599243 278.11377 C 557.152222 290.421387 556.924744 311.026001 547.562744 325.891846 C 545.381348 329.419434 538.022217 334.543579 536.22937 330.802124 C 531.582031 321.099609 537.121887 308.935181 534.494385 298.583374 C 529.412048 278.634521 524.796509 257.670532 513.302002 240.643677 C 501.292145 222.83252 485.778809 205.113037 465.997864 197.058105 C 447.073242 189.31958 422.40976 185.884888 404.643585 196.040527 C 380.083405 209.93457 359.477112 234.802734 351.524994 262.001709 C 341.248932 296.592529 350.052979 334.391968 353.082703 370.38916 C 353.944885 380.793823 357.285858 391.519897 363.19751 400.214844 C 381.004547 426.43689 401.837708 450.608276 423.379303 473.832153 C 429.52655 480.447754 436.795227 490.41394 445.720276 489.124268 C 469.520538 485.960205 496.129059 479.510742 512.273682 461.738037 C 528.518372 443.92688 510.763794 399.983032 533.723877 392.691528 C 553.084839 386.523071 549.36908 432.028442 564.766296 445.162231 C 576.078674 454.818237 593.253052 454.662231 608.040894 456.296509 C 613.4552 456.922119 619.000549 454.515991 623.690613 451.793335 C 630.654602 447.656738 639.142334 443.565308 642.292603 436.171875 M 456.469635 229.527344 C 456.469635 229.527344 456.469635 229.527344 456.469635 229.527344 C 457.505463 236.718018 466.362091 248.689941 459.520538 250.958374 C 446.604828 255.349609 430.14035 250.752563 419.58606 242.113281 C 414.687592 238.136963 429.253479 233.244507 435.270447 231.144653"/>
</svg>
