<!-- Created with Inkscape (http://www.inkscape.org/) -->
<svg version="1.1" viewBox="0 0 361.89 362.32" xmlns="http://www.w3.org/2000/svg">
		<path d="m166.57 359.85c-2.112-0.90565-4.0649-1.9488-4.3397-2.3182-0.27484-0.36939-0.3372-2.1116-0.13859-3.8716 1.1742-10.405 1.1522-10.85-0.7141-14.475-0.97572-1.895-2.3879-4.4534-3.1381-5.6854-1.6487-2.7074-3.099-7.7177-2.7103-9.3633 0.33913-1.4358 0.5677-0.95335 2.0102 4.2433 0.5374 1.936 2.2057 5.536 3.7073 8 2.4802 4.0697 2.7527 4.9354 2.9751 9.4521 0.14712 2.9881-0.0312 5.3046-0.44674 5.8054-0.80578 0.9709-0.67404 4.8994 0.16436 4.9012 0.31319 6.4e-4 0.98256 0.50527 1.4875 1.1213 0.85125 1.0385 0.89568 1.0153 0.61063-0.31936-0.16908-0.79165-0.0699-1.5862 0.22043-1.7656 0.29031-0.17942 0.71815 0.54029 0.95076 1.5994 0.56663 2.5798 1.8844 2.5413 1.3681-0.04-0.32726-1.6363-0.20663-1.9292 0.72-1.7481 0.79824 0.15596 1.055 0.71125 0.90767 1.963-0.16097 1.3675 0.0123 1.6619 0.8 1.3597 0.553-0.21222 1.0054-0.93103 1.0054-1.5974s0.288-1.2115 0.64-1.2115 0.64 0.432 0.64 0.96 0.36 0.96441 0.8 0.9698c0.53333 7e-3 0.48 0.2166-0.16 0.6302-0.82042 0.5302-0.79715 0.62182 0.16 0.6302 0.616 5e-3 1.12 0.3148 1.12 0.68757 0 0.37278 0.30365 0.49011 0.67478 0.26074 0.44895-0.27747 0.34424-0.92149-0.31289-1.9244-1.2854-1.9617-0.0754-2.8176 1.4678-1.0383 0.70825 0.81663 1.4301 1.1028 1.9584 0.77624 0.68258-0.42186 0.67601-0.58567-0.0357-0.8892-0.47983-0.20464-0.0804-0.20828 0.88758-8e-3 2.128 0.44009 2.3901-0.75416 0.32-1.4585-0.792-0.26945-1.656-0.43286-1.92-0.36313-0.264 0.0697-0.489-0.37719-0.50001-0.99319-0.011-0.616-0.72578-2.56-1.5884-4.32-0.8626-1.76-1.285-3.2962-0.93873-3.4138 0.3463-0.11756-0.43947-2.1255-1.7462-4.4621-2.233-3.993-2.4022-4.6918-2.8153-11.626-0.24175-4.0579-0.7237-8.6302-1.071-10.161-0.46121-2.0325-0.40168-3.6537 0.22086-6.0137 1.0143-3.8451 0.61554-9.5379-1.0202-14.564-0.63013-1.936-1.2941-5.7605-1.4754-8.4988-0.30727-4.6395-0.22396-5.0846 1.2223-6.5309 1.5231-1.5231 2.1707-3.3481 0.91207-2.5702-0.95535 0.59044-0.78281-0.0548 0.63761-2.3845 0.70269-1.1525 1.2787-2.8567 1.28-3.787 1e-3 -0.96013 0.4462-1.8618 1.0288-2.0854 0.61176-0.23476 0.87121-0.79832 0.64223-1.395-0.2113-0.55063 0.0898-2.4503 0.6691-4.2214 0.88215-2.697 0.95423-4.2232 0.44365-9.3935-0.583-5.9035-0.2305-12.362 0.45918-8.4132 0.53875 3.0847 0.15684 18.269-0.53122 21.12-0.87782 3.6377-3.0062 10.896-3.5657 12.16-2.2276 5.0326-2.4231 10.863-0.5365 16 0.79259 2.1582 1.0831 5.3661 1.1593 12.8 0.0559 5.456 0.28434 13.232 0.50766 17.28 0.38291 6.9408 0.53247 7.566 2.626 10.976 1.2907 2.1027 2.22 4.4553 2.22 5.6206 0 2.9917 1.523 6.0731 3.8044 7.6976 1.1161 0.79474 2.0984 1.3416 2.1828 1.2152 2.2691-3.3958 2.1253-6.8823-0.59378-14.393-1.8998-5.2481-2.3747-7.6152-2.8076-13.996-0.44591-6.5722-0.80847-8.3118-2.5135-12.06-1.9247-4.2308-2.6848-8.6038-1.3524-7.7803 0.352 0.21755 0.64632 1.3146 0.65405 2.4378 0.0155 2.2483 1.763 6.5051 3.9062 9.5149 1.067 1.4984 1.1948 2.0549 0.56195 2.446-1.7619 1.0889 0.74655 16.366 3.597 21.906 1.1761 2.2858 1.3358 8.7548 0.25865 10.474-1.1563 1.8454-0.36664 5.8249 1.2582 6.3406 1.4601 0.4634 6.4427-0.19471 7.3835-0.97522 0.84683-0.70253 5.6364-0.6453 6.783 0.0811 0.57573 0.3647-0.0723 0.55919-1.8846 0.56562-1.5192 5e-3 -3.3254 0.31128-4.0139 0.67976-0.68851 0.36847-3.2281 0.72847-5.6436 0.8-3.9675 0.11748-4.5274-0.0246-5.7949-1.47-0.77168-0.88-1.2201-1.24-0.99653-0.8 0.25775 0.50723-0.0562 0.8-0.85791 0.8-0.69544 0-1.3794 0.34486-1.5199 0.76636-0.15757 0.47271-1.8333 0.80922-4.3733 0.87822-3.1774 0.0863-4.9949-0.26422-7.9579-1.5348zm39.36 1.31c-0.88-0.13652-1.8736-0.51184-2.208-0.83404-0.3344-0.32218-1.1264-0.5858-1.76-0.5858s-1.152-0.2417-1.152-0.53711c0-0.65842 2.5217-0.42322 6.5526 0.61116 2.1052 0.54023 3.4752 0.58118 4.48 0.13393 0.79609-0.35435 2.7434-0.53091 4.3274-0.39237 5.6557 0.49467 7.04 0.20889 7.04-1.4534 0-0.52606-0.61859-0.92754-1.44-0.93458-0.792-7e-3 -2.88-0.41728-4.64-0.9122l-3.2-0.89986 10.24 0.22441 0.59165 2.395c0.32541 1.3173 0.44819 2.5385 0.27284 2.7138-0.39975 0.39975-16.936 0.80742-19.104 0.47099zm-15.626-7.3398c0.0878-0.792 0.1837-1.656 0.21304-1.92 0.0293-0.264 0.29145-0.48 0.58249-0.48 0.29103 0 0.40235 0.864 0.24736 1.92-0.32428 2.2095-1.2837 2.651-1.0429 0.48zm18.323 0c-6.5008-3.4741-11.042-6.3744-11.566-7.3867-0.31144-0.6013-1.2144-2.9397-2.0065-5.1965-1.258-3.5838-1.4148-5.123-1.239-12.16 0.36017-14.412 0.28535-22.053-0.26065-26.617-0.41773-3.4917-0.36573-4.3151 0.23572-3.7323 1.0455 1.013 1.8728 17.108 1.2376 24.077-0.75303 8.2618-0.25703 14.101 1.6094 18.947 2.1384 5.5517 1.9823 5.3632 6.4132 7.7392 2.112 1.1325 4.2909 2.4584 4.842 2.9465 0.55109 0.48808 1.9251 1.072 3.0533 1.2977 1.1282 0.22564 2.2063 0.66106 2.3958 0.96759 0.65246 1.0557-2.0255 0.55432-4.7144-0.88266zm-22.11-1.5467c-0.61165-0.61164-0.52612-1.4933 0.14486-1.4933 0.31434 0 0.7373 0.432 0.93991 0.96 0.37435 0.97554-0.30739 1.3107-1.0848 0.53333zm-21.526-1.575c-0.0112-0.57289 0.41165-1.4002 0.93965-1.8384 1.2304-1.0212 1.2434 0.0207 0.0204 1.6377-0.7894 1.0437-0.9429 1.0758-0.96 0.20068zm27.926-2.265c-0.23467-0.23466-0.41791-0.88266-0.40721-1.44 0.016-0.83219 0.14087-0.80454 0.69866 0.15467 0.68914 1.1851 0.48936 2.0661-0.29145 1.2853zm-24.747-0.85333c0-0.352 0.288-0.64 0.64-0.64s0.64 0.288 0.64 0.64-0.288 0.64-0.64 0.64-0.64-0.288-0.64-0.64zm4.16-0.64c-0.21755-0.352-0.0905-0.64 0.28223-0.64 0.37277 0 0.67777 0.288 0.67777 0.64s-0.127 0.64-0.28223 0.64c-0.15522 0-0.46022-0.288-0.67777-0.64zm23.147 0.21333c-0.23467-0.23466-0.41791-0.88266-0.40721-1.44 0.016-0.83219 0.14087-0.80454 0.69866 0.15467 0.68914 1.1851 0.48936 2.0661-0.29145 1.2853zm53.74-4.5677c-1.0542-1.5213-1.687-3.2927-1.687-4.7227 0-1.2585-0.74956-3.9255-1.6657-5.9266-0.91612-2.0011-1.5029-3.8011-1.304-4s0.70261 0.38647 1.1193 1.3009c0.41664 0.91445 1.0227 1.4988 1.3468 1.2985 0.32407-0.20029 0.53583 0.0248 0.47059 0.50007-0.24381 1.7761 0.0517 3.1682 0.6005 2.829 0.31212-0.1929 0.96012 0.1501 1.44 0.76223 0.78957 1.0072 0.76604 1.0294-0.24748 0.23459-1.3235-1.0379-1.3175-1.0853-0.40789 3.2469 1.1882 5.6591 3.238 6.8544 7.3724 4.2993 2.0514-1.2678 2.6917-1.1001 1.6657 0.43639-0.78228 1.1716-3.1551 2.1758-5.1411 2.1758-1.4491 0-2.2583-0.55304-3.5621-2.4344zm-153.69-4.0066c-2.464-1.3334-5.056-2.7036-5.76-3.0448-0.704-0.34122-2.144-1.3701-3.2-2.2865s-2.136-1.6664-2.4-1.6669-0.48-0.83661-0.48-1.8582c0-1.5041 0.37968-1.9898 1.9959-2.5532 1.0977-0.38267 2.6097-0.55485 3.36-0.38264 2.0145 0.46239 5.1473-2.5171 7.746-7.3668 1.226-2.288 2.2356-3.6989 2.2436-3.1353s-0.70547 2.3788-1.5855 4.0339c-0.88 1.655-1.6146 3.3539-1.6326 3.7753-0.01792 0.42138-1.9251 1.9962-4.2381 3.4995-3.6817 2.3929-4.1605 2.5608-3.8433 1.3478 0.25818-0.98726 0.16477-1.188-0.32493-0.69832-0.378 0.37799-0.76206 1.3686-0.85347 2.2013-0.22259 2.0278 1.9955 2.2137 3.6079 0.30238l1.1866-1.4066-0.15111 1.6c-0.12122 1.2835 0.1021 1.5563 1.1289 1.3792 0.704-0.12147 1.0657-3e-3 0.8038 0.26287-0.26191 0.26605 0.17009 0.8041 0.96 1.1957 0.82104 0.40701 1.5192 1.4209 1.63 2.3671 0.24898 2.1262 3.096 3.8635 4.0078 2.4456 0.50606-0.7869 0.68649-0.79368 1.1696-0.044 0.45756 0.7101 0.71671 0.6146 1.3025-0.48 0.81836-1.5291 1.9663-1.8243 1.9663-0.50566 0 0.94719-1.6973 2.5986-3.2 3.1136-0.528 0.18094-2.976-0.76202-5.44-2.0955zm-1.0355-3.4478c-0.87539-0.87539-5.0445-2.214-5.0445-1.6196 0 0.36778 0.504 0.85953 1.12 1.0928 0.616 0.23325 1.5191 0.81873 2.0069 1.301 0.61812 0.61121 1.09 0.67378 1.5573 0.20648 0.36876-0.36876 0.53088-0.81007 0.36027-0.98068zm164.24 4.1289c0.21755-0.352 0.68354-0.64 1.0355-0.64s0.46201 0.288 0.24446 0.64-0.68354 0.64-1.0355 0.64-0.46201-0.288-0.24446-0.64zm4.16-0.12427c-1.6805-0.74644-1.6895-0.74166 2.767-1.4709 2.0389-0.33365 2.3193-0.55424 1.6816-1.3226-0.9382-1.1305 0.0915-1.2307 1.2553-0.12219 0.68417 0.65164 0.7643 0.54885 0.43208-0.5543-0.34299-1.1389-0.17627-1.3162 1.0481-1.1147 2.0381 0.3354 4.053-1.6199 4.4986-4.3653 0.32349-1.9934 0.18465-2.3729-0.97957-2.6774-0.74606-0.19509-1.6595-0.11803-2.0298 0.17126-0.37032 0.28929-1.2493 0.5926-1.9533 0.67403-2.1152 0.24466-10.17 3e-3 -11.2-0.33634-0.90001-0.29625-2.4736-2.5115-5.7281-8.064-1.2476-2.1285-5.9031-15.114-7.9923-22.293-1.2944-4.4478-5.6263-12.619-9.678-18.255-3.3202-4.6188-4.1272-6.0674-5.6955-10.225-0.26558-0.704-0.61151-2.9416-0.76872-4.9725-0.20523-2.6511-0.83219-4.5714-2.2229-6.8086-2.4902-4.0059-3.2093-7.1247-2.7436-11.899 0.31122-3.1901 0.0879-4.5982-1.3195-8.32-0.93176-2.464-2.2473-6.5876-2.9234-9.1635-1.3652-5.2014-2.7324-8.4385-4.7796-11.316-0.75117-1.056-2.5224-4.224-3.9362-7.04-2.2287-4.4394-2.5847-5.7373-2.6782-9.7642-0.093-4.0092-1.3351-9.0562-2.5903-10.525-0.21107-0.24698-0.39668 1.625-0.41246 4.16-0.074 11.877-0.43054 17.729-1.0802 17.729-0.47308 0-0.53578-2.4107-0.20392-7.84 0.53371-8.7316 0.51746-14.167-0.0546-18.256-0.31599-2.2589-0.53977-2.6057-1.2831-1.9888-1.6074 1.334-1.5665 0.17333 0.0556-1.5769 2.1598-2.3305 2.6685-5.4808 1.3093-8.1091-0.66164-1.2795-0.93698-2.796-0.71194-3.9212 0.20183-1.0092 0.0587-2.5115-0.31813-3.3385-0.54357-1.193-0.42167-2.02 0.5901-4.0032 0.70136-1.3748 1.4798-4.2246 1.7298-6.3329 0.25005-2.1083 0.97418-5.0369 1.6092-6.508 4.124-9.554 2.3824-15.761-3.2531-11.595-2.9943 2.2138-8.6803 2.3086-14.793 0.24661-2.7021-0.91143-5.5271-1.6572-6.2778-1.6572s-1.2036-0.26096-1.0065-0.57992c0.19712-0.31895 0.94901-0.42547 1.6709-0.23669 1.1597 0.30326 1.2646 0.12864 0.90125-1.5001l-0.41121-1.8433 1.1781 1.8158c0.78034 1.2028 2.3583 2.2292 4.6735 3.04 3.9117 1.3699 4.7478 1.4954 4.2145 0.63259-0.20108-0.32536-2e-3 -0.72019 0.44224-0.87739 0.4443-0.1572 0.0878-0.21088-0.79217-0.11927-0.88 0.0916-2.176-0.0693-2.88-0.35764l-1.28-0.52418 1.28-0.13263c0.704-0.0729 2-0.16519 2.88-0.20498 0.88-0.0398 1.9567-0.30331 2.3927-0.58559 0.5473-0.35437 0.67469-0.20579 0.41153 0.48-0.20963 0.54628-0.0623 0.99324 0.32733 0.99324 0.38966 0 0.70847 0.288 0.70847 0.64s-0.6336 0.64-1.408 0.64c-1.0504 0-1.2235 0.18452-0.68156 0.72644 1.0516 1.0516 6.4721-0.43391 8.1337-2.2291 0.72373-0.78194 2.0359-2.8104 2.9159-4.5076s2.2692-3.5593 3.0872-4.1378c0.81794-0.57856 4.1299-3.1392 7.36-5.6904 3.2301-2.5512 6.3048-4.6405 6.8328-4.643 1.0482-5e-3 8.0962-2.7614 8.7614-3.4266 0.22656-0.22656 1.1559-0.41383 2.0653-0.41615 0.90933-3e-3 2.5173-0.593 3.5733-1.3126 3.1891-2.1732 8.0552-4.5314 8.8228-4.2756 0.3968 0.13227-1.066 1.2232-3.2507 2.4242-2.1847 1.201-3.9716 2.3332-3.9709 2.516 6.4e-4 0.18276 2.0887 0.40852 4.64 0.50171 2.5513 0.0932 5.956 0.60347 7.5659 1.134 2.7263 0.89833 3.1234 0.87768 5.7878-0.3009 2.3721-1.0493 4.4409-1.2832 12.113-1.3694 5.3648-0.0603 10.192 0.19666 11.488 0.61147 4.3521 1.3926 16.694 0.43539 20.63-1.6l1.9921-1.0302-1.5178 1.8328c-0.83481 1.008-2.1078 1.8793-2.8289 1.9361-7.2778 0.57378-16.695 0.45815-20.191-0.2479-5.2792-1.0663-16.789-0.45422-21.912 1.1653-3.4453 1.0891-3.8204 1.0955-6.08 0.10321-3.0608-1.3441-14.667-1.4749-18.781-0.21161-11.136 3.4194-14.615 5.7001-14.993 9.828-0.21922 2.3932-0.19888 2.4168 1.8121 2.1069 4.8058-0.74061 9.6854-0.97294 8.4338-0.40154-1.0252 0.46802-0.74895 0.5933 1.3876 0.62932 3.4472 0.0581 5.1407-0.53235 3.946-1.3758-0.58764-0.41489-0.33815-0.49132 0.80066-0.24526 2.3827 0.51481 14.05 0.57699 15.984 0.0852 1.0311-0.26223 2.9015 0.0814 5.048 0.92749 1.8755 0.73925 3.8744 1.281 4.442 1.204 0.56762-0.0771 3.336 0.0728 6.152 0.33291 4.483 0.41418 5.8764 0.26144 11.2-1.2278 3.344-0.93544 9.4764-2.0326 13.627-2.4382 5.3908-0.52674 7.7225-1.0118 8.16-1.6974 0.53082-0.83188 0.69187-0.83673 1.2068-0.0363 0.80109 1.2453 6.8313 1.6842 8.1462 0.59302 0.96841-0.80372 1.4586-1.8018 2.4576-5.0038l0.48894-1.5671-2.0528 1.7273c-3.3369 2.8078-7.5791 3.2456-7.2075 0.74375 0.14196-0.95568 0.0441-1.0455-0.40845-0.3748-0.61965 0.91833-2.0182 0.47653-2.0182-0.63753 0-0.352 0.36-0.42373 0.8-0.15938 0.57045 0.34272 0.55464 0.17796-0.0551-0.5742-0.47031-0.58015-0.66931-1.3554-0.44223-1.7228 0.57234-0.92606 1.494-0.83833 1.3862 0.13196-0.0489 0.44 0.19911 0.89253 0.55111 1.0056s1.1018 0.62349 1.6661 1.1342c0.86276 0.78079 1.4154 0.79901 3.471 0.1144 3.0739-1.0237 3.9022-2.7121 1.1311-2.3053-1.147 0.16834-1.8949-8e-3 -1.8949-0.44586 0-0.51897 2.7786-0.64687 9.8133-0.45171 6.857 0.19022 9.8133 0.0608 9.8133-0.42955 0-0.38597-0.216-0.72578-0.48-0.75511-1.9618-0.21797-3.3203-0.44504-5.1383-0.85883-1.154-0.26266-2.056-0.23688-2.0042 0.0573 0.25204 1.4329-0.15284 1.6219-1.065 0.49719-0.5541-0.68327-0.82511-0.88232-0.60223-0.44232 0.23481 0.46357 4e-3 0.8-0.54941 0.8-0.52505 0-1.1269-0.54277-1.3375-1.2062-0.31011-0.97706-1.0126-1.2062-3.6985-1.2062-1.8702 0-3.4194-0.31119-3.5536-0.71385-0.13088-0.39261-0.71796-0.72259-1.3046-0.7333-0.91416-0.0167-0.92941-0.0984-0.10667-0.57131 1.2724-0.73144 13.2-1.0285 15.826-0.39411 2.1598 0.52188 3.8582 1.9943 3.1349 2.7177-0.23203 0.23202 0.44694 0.78716 1.5088 1.2336 2.2068 0.92788 2.5383 2.5144 0.65065 3.1136-0.704 0.22344-1.28 0.80872-1.28 1.3006 0 1.3734-1.8689 2.0368-6.0692 2.1544-5.1352 0.14383-5.8067 1.0249-0.78121 1.0249 3.8084 0 3.9704 0.0653 3.9704 1.6 0 1.527-0.18993 1.607-4.16 1.7523-2.288 0.0837-5.024 0.30223-6.08 0.48553-1.056 0.18331-7.392 0.59123-14.08 0.9065-11.762 0.55444-14.568 0.95371-22.08 3.142-5.7781 1.683-20.068 0.87629-22.827-1.2888-0.45458-0.35667-4.5872-0.28452-10.56 0.18436-5.3972 0.4237-13.1 0.79911-17.117 0.83426-5.2256 0.0457-7.3807 0.29153-7.5733 0.86388-0.14808 0.44-0.6692 0.8-1.158 0.8-1.3036 4e-5 -6.0445 7.6234-6.0445 9.7196 0 0.9818-0.84001 4.4525-1.8667 7.7128s-2.0679 7.2236-2.3139 8.8076-0.92088 4.176-1.4998 5.76c-0.79168 2.1661-0.93152 3.7526-0.56409 6.4 1.0742 7.7403 1.2398 10.788 0.64402 11.852-0.42229 0.75458-0.35195 2.0188 0.21763 3.9114 0.46288 1.538 0.73418 2.7964 0.60289 2.7964s0.49221 1.368 1.3856 3.04c1.2397 2.3203 1.7389 4.4794 2.1084 9.12 0.51261 6.4382 1.4228 8.6983 7.9048 19.628 1.2877 2.1712 2.3413 4.3943 2.3413 4.9402 0 1.1586 2.601 9.1769 4.1656 12.842 0.76157 1.7839 1.0798 4.3313 1.0791 8.64-6.4e-4 5.7787 0.13315 6.3888 2.4691 11.245 1.3585 2.824 3.0618 7.6729 3.7852 10.775 1.4956 6.4141 1.8598 7.2154 5.2032 11.445 4.9366 6.2453 10.888 20.044 14.043 32.562 1.2207 4.843 5.5907 12.379 8.5098 14.675 2.2914 1.8024 7.7868 2.3115 10.376 0.96125 2.1141-1.1024 4.8394-1.295 5.761-0.40709 0.3344 0.3222 1.328 0.6822 2.208 0.8 2.3259 0.31138 2.2643 3.5532-0.0943 4.9621-0.93186 0.55664-3.4459 2.3731-5.5867 4.0366-4.3456 3.3766-6.054 3.9728-8.399 2.9312zm14.08-9.1935c0-0.54878-0.288-0.81978-0.64-0.60223s-0.64 0.66655-0.64 0.99777c0 0.33123 0.288 0.60223 0.64 0.60223s0.64-0.449 0.64-0.99777zm-68.526-195.56c0.69365 1.1224 1.8761 0.39542 2.6446-1.6258 0.32962-0.86699 0.85555-1.418 1.1687-1.2244 0.62095 0.38376 4.1797-6.6215 3.6387-7.1626-0.1824-0.1824-1.9022 0.75002-3.8217 2.072-2.6278 1.8098-3.8179 3.1658-4.817 5.4883-1.5558 3.6164-1.6707 4.6361-0.32133 2.8504 0.77751-1.0289 1.0704-1.1062 1.5081-0.39801zm3.4643-4.6175c0.23208-0.64478 0.42197-1.406 0.42197-1.6915s0.43296-0.68533 0.96212-0.88839c0.79982-0.30691 0.77851-0.0755-0.12629 1.3715-1.4472 2.3145-1.7663 2.621-1.2578 1.2084zm99.486-6.9876c0.36361-0.44 0.86245-1.8775 1.1085-3.1944 0.2461-1.3169 0.70857-2.233 1.0277-2.0358 0.31915 0.19725 0.38679 0.67167 0.15033 1.0543-0.29687 0.48034 0.34368 0.56788 2.0696 0.28282 1.3747-0.22706 3.0275-0.41601 3.6728-0.41988 0.65352-4e-3 1.0542-0.36147 0.9044-0.80705-0.15571-0.46319-1.458-0.82895-3.0933-0.86877-1.5534-0.0378-3.7297-0.22896-4.8361-0.42475l-2.0117-0.35598 0.33788 2.5191c0.25068 1.869 0.0423 2.8458-0.8075 3.7848-0.96415 1.0654-0.99019 1.2656-0.16456 1.2656 0.53946 0 1.2783-0.36 1.6419-0.8zm6.905-0.55992c0.19836-0.32097-0.94248-0.50317-2.5628-0.40929-2.7108 0.15707-3.3769 0.46557-2.6262 1.2163 0.49085 0.49085 4.8011-0.17951 5.189-0.80702zm4.9444-4.6563c0.0694-0.31693-0.51146-0.67355-1.2908-0.79248-1.057-0.16131-1.3211 0.0337-1.0395 0.76764 0.39132 1.0198 2.1084 1.0381 2.3303 0.0248zm-4.2797-6.0823c0.44469 0.36906 1.6179 0.56177 2.6072 0.42825l1.7987-0.24278-1.92-0.81964c-3.3204-1.4175-6.08-1.6555-6.08-0.52438 0 1.1719 1.3496 1.8072 2.1928 1.0323 0.32946-0.30278 0.95193-0.24671 1.4013 0.12624zm-5.6666-1.1412c-0.6119-0.16019-1.7639-0.166-2.56-0.0129-0.7961 0.15308-0.29546 0.28415 1.1125 0.29125 1.408 7e-3 2.0594-0.11815 1.4475-0.27833zm-62.567 226.32c0-0.37278 0.288-0.49978 0.64-0.28223s0.64 0.52255 0.64 0.67777c0 0.15523-0.288 0.28223-0.64 0.28223s-0.64-0.305-0.64-0.67777zm-152.82-0.7514c-1.7413-0.83904-1.5447-2.0109 0.38501-2.2949 1.0699-0.15746 1.293 0.0401 0.97662 0.86459-0.23455 0.61123-0.0277 1.3108 0.48316 1.6343 1.2507 0.79197-0.0841 0.64438-1.8448-0.20396zm155.06 0.14917c-0.21755-0.352-0.0906-0.64 0.28223-0.64 0.37277 0 0.67777 0.288 0.67777 0.64s-0.127 0.64-0.28223 0.64c-0.15522 0-0.46022-0.288-0.67777-0.64zm-150.21-1.12c-0.42682-1.5771 0.56701-5.6808 1.7437-7.2 0.40895-0.528 1.2225-3.206 1.808-5.951 1.0892-5.1073 2.7759-9.1146 4.607-10.946 0.56669-0.56669 2.0362-2.9727 3.2655-5.3468 1.2294-2.374 3.4402-5.6124 4.9129-7.1964 2.7415-2.9486 3.6378-4.2845 5.6896-8.48 1.3828-2.8277 1.9867-3.1113 1.367-0.64196-0.61426 2.4474-3.9886 7.5622-7.4959 11.362-1.6245 1.76-2.9567 3.4503-2.9604 3.7563-7e-3 0.56099-4.4208 8.1294-5.0877 8.7237-1.3928 1.2412-3.24 6.0264-3.2453 8.4071-4e-3 1.6503-0.68007 4.2329-1.6534 6.3129-0.9059 1.936-1.8528 4.672-2.1041 6.08-0.37775 2.116-0.52462 2.3102-0.84674 1.12zm-2.7495-0.15998c0.21755-0.352 0.66655-0.64 0.99777-0.64 0.33123 0 0.60223 0.288 0.60223 0.64s-0.449 0.64-0.99777 0.64c-0.54878 0-0.81978-0.288-0.60223-0.64zm169.42-3.2135c-0.64148-1.0272-0.56541-1.3364 0.4643-1.8875 1.6996-0.9096 1.9556-0.83858 1.9556 0.54259 0 1.9523-1.5148 2.7942-2.4199 1.3449zm-16.78-0.62652c0-0.352 0.305-0.64 0.67777-0.64 0.37278 0 0.49978 0.288 0.28223 0.64s-0.52255 0.64-0.67777 0.64c-0.15523 0-0.28223-0.288-0.28223-0.64zm-70.613-0.42667c-0.23467-0.23466-0.42667-0.72426-0.42667-1.088 0-0.40102 0.29809-0.36324 0.75733 0.096 0.41654 0.41654 0.60854 0.90614 0.42667 1.088-0.18187 0.18187-0.52267 0.13867-0.75733-0.096zm72.282-1.2257c-0.60078-1.5656-0.47052-1.7725 0.57153-0.90765 1.0639 0.88298 1.2737 1.92 0.38847 1.92-0.31434 0-0.74634-0.45555-0.96-1.0124zm1.2944-1.2425c-0.30518-0.7953-0.14101-0.85008 0.89154-0.29748 1.4836 0.79398 1.6242 1.2723 0.37406 1.2723-0.49034 0-1.0599-0.43866-1.2656-0.97481zm-9.6298-0.2193c-0.27569-0.44608-0.32842-0.98389-0.11718-1.1951 0.57278-0.57277 1.1973 0.26963 0.88793 1.1977-0.21678 0.65035-0.36753 0.64984-0.77075-3e-3zm-64.323-1.7392c0.0307-0.74557 0.18236-0.89722 0.38666-0.38667 0.18488 0.462 0.16214 1.014-0.0505 1.2267-0.21266 0.21266-0.36393-0.16534-0.33614-0.84zm57.034-4.4753c-5.552-5.7176-7.7498-8.9857-9.1145-13.553-0.50832-1.7012-1.5813-3.3075-2.8617-4.2841-2.8768-2.1942-5.744-6.9416-7.3648-12.194-0.76032-2.464-2.2196-6.9856-3.2428-10.048-1.0232-3.0624-1.8656-6.2304-1.872-7.04-6e-3 -0.80956-0.8704-2.7393-1.92-4.2882-1.0496-1.549-1.901-3.277-1.892-3.84 9e-3 -0.56303 1.017 0.54697 2.24 2.4666 1.223 1.9197 2.2236 3.8873 2.2236 4.3725 0 0.48519 0.72423 2.9804 1.6094 5.545s2.2033 6.9329 2.9291 9.7075c0.72583 2.7746 2.0718 6.4281 2.991 8.1189 1.815 3.3387 5.9768 7.4857 7.5124 7.4857 0.52699 0 0.95816 0.288 0.95816 0.64s-0.26033 0.64-0.57852 0.64c-0.57623 0 1.1501 5.1043 2.794 8.2608 0.47523 0.91256 2.7731 3.5312 5.1064 5.8192 3.4358 3.3691 6.8134 7.7068 5.9746 7.6729-0.097-4e-3 -2.5686-2.4706-5.4923-5.4815zm-56.923 0.0486c7e-3 -1.408 0.13816-1.9086 0.29125-1.1125 0.15308 0.7961 0.14727 1.9481-0.0129 2.56-0.16019 0.6119-0.28544-0.0395-0.27834-1.4475zm-27.964-2.569c-0.54862-1.313-0.99749-2.9112-0.99749-3.5514s-0.25477-1.3215-0.56615-1.514c-1.6647-1.0288-1.9228-14.051-0.40689-20.528 1.573-6.7207 2.2654-10.5 2.6379-14.398 0.37346-3.9084 2.0401-12.704 2.5696-13.56 0.1869-0.30241-0.0854-1.767-0.60518-3.2547-1.3216-3.7828-2.9893-11.472-2.9893-13.783 0-1.0643-0.28218-2.0311-0.62705-2.1484-0.9058-0.30816-8e-3 -5.0669 0.91756-4.8618 1.6506 0.36584 14.273-12.398 16.948-17.137 1.1249-1.9933 2.1978-3.4717 2.3841-3.2854 0.68832 0.68833-5.5648 9.3923-9.1218 12.697-2.0209 1.8776-5.1014 4.8518-6.8457 6.6095l-3.1713 3.1958 0.36924 3.8442c0.39065 4.067 2.3088 12.322 3.9326 16.924 0.74548 2.1129 0.77533 2.5918 0.12808 2.0546-0.68142-0.56553-1.0487 0.68279-1.9072 6.4825-0.58479 3.9506-1.344 9.0549-1.6872 11.343s-1.2125 6.9958-1.9318 10.462c-0.7193 3.466-1.3028 7.498-1.2967 8.96 0.0136 3.2588 1.5187 10.554 2.9515 14.305 1.3086 3.4265 0.696 4.4492-0.68511 1.1438zm-54.458-9.591c0.16601-2.8436 0.90402-6.8253 1.6599-8.9554 0.74855-2.1095 2.0388-6.5076 2.8673-9.7736 2.4451-9.6387 5.847-15.365 15.68-26.391 1.7265-1.936 4.2534-5.248 5.6154-7.36s3.5493-4.992 4.8607-6.4c2.8952-3.1085 4.217-5.921 4.217-8.9731 0-3.5215 1.9004-11.082 3.579-14.239 0.82864-1.5585 1.6802-3.8852 1.8922-5.1706 0.66873-4.053 2.3709-7.5069 9.261-18.792 1.7798-2.915 3.95-8.9785 5.1058-14.265 0.30781-1.408 0.88079-3.712 1.2733-5.12 0.39252-1.408 0.80111-4.144 0.908-6.08 0.10688-1.936 0.80757-5.7797 1.5571-8.5416l1.3628-5.0216-1.5442-3.2984c-0.84932-1.8141-1.7329-4.4504-1.9635-5.8584-0.23059-1.408-0.67264-3.424-0.98233-4.48-0.55806-1.9029-0.69807-2.5151-1.8071-7.9019-0.31501-1.53-1.1245-3.546-1.7988-4.48-0.67436-0.93397-1.5671-2.8674-1.9839-4.2965-0.41677-1.4291-1.4979-3.2937-2.4025-4.1435-1.5375-1.4444-2.1329-1.5485-9.1308-1.596-5.9311-0.0403-8.2836-0.33507-11.326-1.4195-3.2613-1.1624-5.0457-1.3466-11.84-1.2219-4.6622 0.0856-8.5657 0.46127-9.3559 0.90051-2.1975 1.2215-19.715 0.63391-23.124-0.77564-3.6939-1.5274-3.4554-2.3812 0.32-1.1452 3.9107 1.2803 19.97 1.5308 23.066 0.35985 3.1444-1.1895 20.199-0.50199 22.339 0.90058 1.221 0.8 3.5774 1.0831 10.246 1.231 7.4191 0.16454 8.7814 0.35523 9.5015 1.3301 0.62999 0.85285 1.0259 0.95548 1.5802 0.40956 0.55789-0.54952 0.30968-1.378-1.0106-3.373-0.96255-1.4545-1.5855-2.8091-1.3844-3.0103 0.20115-0.20115 1.1456 0.81271 2.0987 2.253 1.1788 1.7814 2.1955 2.6187 3.1795 2.6187 1.3104 0 2.3426 1.1948 2.4881 2.88 0.0304 0.352 0.41528 0.676 0.85528 0.72s1.1984 0.116 1.6854 0.16c0.48694 0.044 1.0391 0.66783 1.227 1.3863 0.27675 1.0583 0.10866 1.2324-0.88535 0.91688-1.3811-0.43835-1.6179 0.32987-0.45896 1.4888 1.0426 1.0426 3.2876 1.016 2.6959-0.032-0.33752-0.59782-0.22711-0.59109 0.43688 0.0266 0.72248 0.67216 0.73288 0.92285 0.0557 1.3414-1.3792 0.85239 2.1444 2.6936 5.8958 3.0808 2.6174 0.27014 3.9124 0.0516 5.9975-1.0121 1.4626-0.74616 3.2467-1.3567 3.9648-1.3567 0.71803 0 1.2335-0.216 1.1455-0.48-0.19823-0.59468 0.38273-0.80114 2.24-0.79605 1.3053 4e-3 1.2647 0.0954-0.43421 0.9813-4.6568 2.4284-11.201 4.2033-13.95 3.7836-1.5046-0.22969-3.4022-0.49508-4.2169-0.58975-0.8147-0.0947-1.911-0.7857-2.4363-1.5356-1.193-1.7033-2.8024-1.7729-2.8024-0.12122 0 0.68322-0.288 1.4202-0.64 1.6378s-0.63739 1.1706-0.6342 2.1178c0.0109 3.2304 3.0526 15.153 4.8146 18.872 1.4833 3.1306 1.6437 3.9602 1.0275 5.3127-0.40165 0.88153-1.1812 3.7856-1.7322 6.4534-1.1885 5.7536-0.59894 7.9906 2.5344 9.6173 1.0944 0.56814 1.6474 1.1487 1.2289 1.2901-0.41854 0.14144-1.5133-0.2358-2.4329-0.83831-1.0322-0.67631-1.8999-0.86744-2.2678-0.49952-0.7798 0.7798-4.4583 15.265-4.4583 17.556 0 0.97432-0.26675 1.8675-0.59278 1.9848-0.32604 0.11733-2.4941 3.0933-4.818 6.6133-3.084 4.6714-4.7213 7.9789-6.0619 12.246-1.0102 3.2151-2.2704 6.8151-2.8005 8-1.8348 4.1011-2.9908 8.4292-3.3767 12.643-0.48435 5.2887-1.3715 7.2434-5.1157 11.272-1.6359 1.76-3.3539 4.0768-3.8179 5.1483-0.46396 1.0716-2.0404 3.2316-3.5032 4.8-6.2311 6.6811-15.024 18.648-14.262 19.41 0.2166 0.21659-0.078 0.91508-0.65453 1.5522-0.57658 0.63711-1.7787 3.9694-2.6714 7.4051-0.89268 3.4357-2.0764 7.3082-2.6305 8.6055-0.55407 1.2973-1.558 5.2388-2.231 8.7588l-1.2236 6.4zm52.972-176.61c0.16718-0.87455 0.0782-1.4505-0.19782-1.28-0.27599 0.17057-0.59439-0.31959-0.70756-1.0892-0.11316-0.76965-0.60942-1.5325-1.1028-1.6952-0.64581-0.21297-0.79696 0.0869-0.53969 1.0708 0.19655 0.75161 0.0962 1.2052-0.22295 1.0079-0.87703-0.54203-0.70048 0.27596 0.49712 2.3033 1.2217 2.0681 1.834 1.9826 2.2737-0.31762zm0.80887-4.1888c-0.21755-0.352-0.68354-0.64-1.0355-0.64s-0.46201 0.288-0.24446 0.64 0.68354 0.64 1.0355 0.64 0.46201-0.288 0.24446-0.64zm21.524 172.8c-0.0357-1.936 0.39061-5.392 0.94721-7.68 0.55658-2.288 1.1584-5.168 1.3373-6.4 0.17892-1.232 0.6021-2.672 0.94038-3.2 0.71808-1.1208 0.58261-6e-3 -1.3609 11.2-1.7437 10.054-1.7882 10.199-1.864 6.08zm18.476-7.6499c0-2.0954 0.26157-4.4714 0.58128-5.28 2.4903-6.2983 3.473-10.73 3.3295-15.018-0.11983-3.581 0.1874-5.4765 1.4004-8.64 0.85466-2.2289 2.439-7.2206 3.5208-11.093 1.3192-4.7218 1.9803-6.3412 2.0074-4.9179 0.0223 1.1672 0.37569 2.7512 0.78532 3.52 0.64731 1.215 0.61857 1.2939-0.21955 0.60293-0.80197-0.66115-1.089-0.52139-1.7048 0.83012-0.40725 0.89381-0.74045 2.2065-0.74045 2.9171 0 0.71057-0.27429 1.8045-0.60953 2.4309-0.33524 0.6264-0.74045 1.8315-0.90047 2.6779-0.16001 0.84645-0.78012 2.9629-1.378 4.7032-0.69563 2.0248-1.061 4.9516-1.0146 8.1279 0.0447 3.0588-0.28007 5.7742-0.84623 7.0758-1.8831 4.3292-3.093 9.253-3.0745 12.512 0.0105 1.848-0.24096 3.36-0.55881 3.36s-0.57791-1.7144-0.57791-3.8099zm-29.653-7.4968c-0.23467-0.23466-0.42667-0.84593-0.42667-1.3584 0-0.75561 0.18143-0.78112 0.96-0.13497 0.528 0.4382 0.96 1.0495 0.96 1.3584 0 0.66273-0.88554 0.74277-1.4933 0.13497zm24.533-0.8911c0-0.37278 0.288-0.49978 0.64-0.28223s0.64 0.52255 0.64 0.67777c0 0.15523-0.288 0.28223-0.64 0.28223s-0.64-0.305-0.64-0.67777zm3.84-1.28c0-0.37278 0.288-0.49978 0.64-0.28223s0.64 0.52255 0.64 0.67777c0 0.15523-0.288 0.28223-0.64 0.28223s-0.64-0.305-0.64-0.67777zm-64.634-0.92223c6.4e-4 -0.352 0.37093-1.36 0.8224-2.24 1.5255-2.9735 3.2838-7.9946 3.1042-8.8642-0.0982-0.47533 0.0771-0.70625 0.3895-0.51317 0.81624 0.50446 10.654-8.8904 10.155-9.6978-0.22908-0.37067 1.1326-2.139 3.0259-3.9296 2.018-1.9085 4.2675-4.9066 5.4364-7.2454 1.0967-2.1944 2-3.5396 2.0073-2.9895 0.0209 1.5789-2.8966 7.1902-4.4714 8.5998-0.7865 0.704-3.0079 3.3722-4.9364 5.9294s-4.7721 5.6865-6.319 6.9542c-1.8434 1.5105-3.5232 3.7679-4.8744 6.5506-2.5048 5.1584-4.3412 8.3096-4.3391 7.4459zm51.509-19.4c-4e-3 -12.801 0.14706-16.198 0.60192-13.56 0.66593 3.8621 0.5357 27.583-0.16178 29.466-0.23931 0.6461-0.43738-6.5114-0.44014-15.906zm9.165 12.243c0.462-0.18488 1.014-0.16214 1.2267 0.0505 0.21266 0.21266-0.16534 0.36393-0.84 0.33614-0.74557-0.0307-0.89722-0.18237-0.38667-0.38667zm-2.44-5.3228c0-0.352 0.288-0.64 0.64-0.64s0.64 0.288 0.64 0.64-0.288 0.64-0.64 0.64-0.64-0.288-0.64-0.64zm40.314-0.32705c-0.65816-0.79303-0.56292-0.95295 0.56749-0.95295 0.7471 0 1.3584 0.271 1.3584 0.60223 0 1.1088-1.1265 1.3139-1.9258 0.35072zm-93.434-2.253c0-0.34096 0.432-0.61992 0.96-0.61992s0.96 0.11319 0.96 0.25153-0.432 0.4173-0.96 0.61991-0.96 0.0894-0.96-0.25152zm91.2 0.0201c0.21755-0.352 0.66655-0.64 0.99777-0.64 0.33123 0 0.60223 0.288 0.60223 0.64s-0.449 0.64-0.99777 0.64c-0.54878 0-0.81978-0.288-0.60223-0.64zm-7.6035-3.925c-1.376-1.9646-0.72353-2.3807 0.79412-0.50645 1.0967 1.3544 1.3398 1.4132 2.3601 0.57066 1.0025-0.82785 1.1002-0.8254 0.82322 0.0207-0.51101 1.5613-2.8595 1.5111-3.9774-0.085zm-80.517-0.35224c0.462-0.18488 1.014-0.16214 1.2267 0.0505 0.21266 0.21266-0.16534 0.36393-0.84 0.33614-0.74557-0.0307-0.89722-0.18237-0.38667-0.38667zm73.56 0.0679c-0.264-0.26624-0.48-0.87122-0.48-1.3444s-0.61292-2.1642-1.362-3.758-1.1853-3.0744-0.96921-3.2905c0.55408-0.55408 3.7493 6.6248 3.4982 7.8595-0.11381 0.55957-0.42292 0.79956-0.68692 0.53332zm4.1426-4.0747c-1.1344-1.0362-2.0626-2.1007-2.0626-2.3656s1.008 0.49537 2.24 1.6895c2.0764 2.0125 2.5175 2.56 2.0626 2.56-0.0976 0-1.1056-0.84776-2.24-1.8839zm-14.543-14.264c-6.1866-7.5698-10.587-14.967-11.142-18.732-0.41272-2.7973 0.15069-2.5585-7.4177-3.1438-4.0111-0.31022-4.16-0.34341-4.16-0.9274 0-0.30319 0.72166-0.41329 1.6037-0.24469 0.88202 0.16861 2.0652-0.0765 2.6292-0.54459 0.85947-0.71329 1.1439-0.6955 1.7563 0.10987 1.1969 1.5741 3.4527 1.3135 4.935-0.57019l1.3529-1.7192-0.43608 2.3267c-0.27122 1.4471-0.1724 2.4897 0.26139 2.7578 0.38362 0.23708 0.69748 0.99599 0.69748 1.6864 0 2.6115 5.3221 12.119 9.6562 17.251 2.4331 2.8806 4.4238 5.3502 4.4238 5.488 0 0.90353-1.3808-0.3371-4.16-3.7376zm-24 2.0982c0-1.0097 1.4507-3.8701 1.9628-3.8701 0.26256 0 0.16801 1.008-0.2101 2.24-0.62837 2.0474-1.7527 3.0931-1.7527 1.6301zm3.941-2.5901c0-0.88 0.14527-1.24 0.32281-0.8s0.17754 1.16 0 1.6-0.32281 0.08-0.32281-0.8zm41.013-0.63132c-1.113-1.7823-0.99301-2.0638 0.48605-1.1402 0.704 0.43966 1.28 1.1621 1.28 1.6054 0 1.2027-0.86705 0.97426-1.766-0.46527zm-15.249-2.5687c0.19558-0.88 0.46624-6.0023 0.60148-11.383 0.13524-5.3806 0.46218-9.9886 0.72654-10.24 0.72343-0.68804-0.32985 21.843-1.0557 22.583-0.41235 0.42029-0.50584 0.0907-0.27231-0.96zm-26.665-2.2171c1.2676-3.4203 1.7302-3.316 1.1271 0.25399-0.26308 1.5572-0.79061 2.6031-1.3129 2.6031-0.70972 0-0.67495-0.53464 0.18581-2.8571zm1.4496-5.5851c-5e-3 -0.94722 0.2782-1.9002 0.6302-2.1178 0.81722-0.50507 0.81722 1.6154 0 2.88-0.48525 0.75087-0.62253 0.58482-0.6302-0.76223zm-26.839-4.7311c0.0307-0.74557 0.18236-0.89722 0.38666-0.38667 0.18488 0.462 0.16214 1.014-0.0505 1.2267-0.21267 0.21266-0.36393-0.16534-0.33614-0.84zm0.0366-7.7867c-0.0479-3.608 0.13098-6.56 0.39758-6.56 0.26661 0 0.39886 2.376 0.29389 5.28-0.29017 8.0275-0.59435 8.5905-0.69147 1.28zm27.483 5.2267c0.0307-0.74557 0.18236-0.89722 0.38666-0.38667 0.18488 0.462 0.16215 1.014-0.0505 1.2267-0.21267 0.21266-0.36393-0.16534-0.33615-0.84zm14.03-0.94444c0-0.37278 0.288-0.49978 0.64-0.28223s0.64 0.52255 0.64 0.67777c0 0.15523-0.288 0.28223-0.64 0.28223s-0.64-0.305-0.64-0.67777zm-9.6-4.3142c0-0.2816 0.32957-0.84157 0.7324-1.2444 0.54985-0.54985 0.53169-1.2169-0.0729-2.6765-0.74929-1.8089-0.46086-4.5418 0.38959-3.6913 0.53523 0.53524 0.88858 5.6608 0.48287 7.0042-0.33605 1.1128-1.532 1.5874-1.532 0.608zm-10.226-2.3794c-8e-3 -0.35828 0.70577-1.711 1.5858-3.006s1.6-2.6749 1.6-3.0663 0.29257-0.53091 0.65016-0.30991c0.41384 0.25577 0.27265 1.0409-0.38844 2.16-1.5929 2.6966-3.4316 4.9485-3.4475 4.2222zm30.854-1.5886c0-1.232 0.13171-1.736 0.29269-1.12 0.16097 0.616 0.16097 1.624 0 2.24-0.16098 0.616-0.29269 0.112-0.29269-1.12zm-25.367-2.08c0.19278-3.9866 0.32958-4.244 0.93512-1.76 0.55468 2.2754 0.26189 4.48-0.595 4.48-0.25941 0-0.41247-1.224-0.34012-2.72zm25.005-0.90667c-0.23467-0.23466-0.40842-1.0267-0.3861-1.76 0.0373-1.226 0.0899-1.2099 0.65375 0.19959 0.62676 1.5669 0.49675 2.3248-0.26765 1.5604zm-51.428-3.7333c4e-3 -2.112 0.12307-2.8988 0.26551-1.7485 0.14244 1.1503 0.1395 2.8783-7e-3 3.84-0.14604 0.9617-0.26257 0.0205-0.25898-2.0915zm33.722 0.32c0-0.352-0.648-0.66597-1.44-0.69772-1.1269-0.0452-0.99614-0.18613 0.60159-0.64835 1.5112-0.43719 2.2512-1.1703 2.8486-2.8223 0.44384-1.2274 1.0371-2.2316 1.3184-2.2316 0.70257 0 0.65259 0.34327-0.42582 2.9243-1.2233 2.9277-0.0486 2.1828 1.5743-0.99841 0.93243-1.8277 1.0545-2.5499 0.47086-2.786-0.60241-0.24372-0.59483-0.33065 0.0322-0.36928 1.4572-0.0898 1.5194 1.6278 0.1434 3.9598-1.4478 2.4538-2.6434 3.2044-4.1707 2.6183-0.69213-0.26559-0.8547-0.0778-0.57153 0.66009 0.21768 0.5672 0.22094 1.0313 7e-3 1.0313-0.21366 0-0.38847-0.288-0.38847-0.64zm-10.88-0.46196c-1.6277-0.61133-4.48-2.7923-4.48-3.4256 0-0.33023 1.1721 0.24863 2.6046 1.2864 2.4959 1.808 4.4244 2.0045 4.4452 0.45277 7e-3 -0.52392 0.14324-0.53172 0.48-0.0275 0.25861 0.38722 0.9022 0.86848 1.4302 1.0695 0.65807 0.2505 0.52357 0.38132-0.42765 0.41596-0.76322 0.0278-1.7712 0.17171-2.24 0.31982-0.4688 0.14812-1.2844 0.10705-1.8124-0.0913zm6.6689-0.66619c0.25118-0.44448 5e-3 -1.7127-0.54611-2.8183-1.1546-2.3144-1.1824-2.4535-0.49138-2.4535 0.28129 0 0.88628 1.0366 1.3444 2.3036 0.66506 1.8392 0.67205 2.452 0.0347 3.04-0.60853 0.56136-0.68974 0.5443-0.34161-0.0717zm23.731-3.3518c0.21755-0.352 0.52255-0.64 0.67777-0.64 0.15523 0 0.28223 0.288 0.28223 0.64s-0.305 0.64-0.67777 0.64c-0.37278 0-0.49978-0.288-0.28223-0.64zm-54.366-1.6926c-0.23453-0.93446-0.12228-1.9951 0.25062-2.368 0.47391-0.47391 0.67543 0.0311 0.67543 1.6926 0 2.7872-0.33474 3.0314-0.92605 0.67543zm34.846 1.4509c0-0.13289 0.43859-0.60563 0.97465-1.0505 0.81494-0.67634 0.90859-0.63675 0.57153 0.24164-0.34425 0.89711-1.5462 1.5259-1.5462 0.80888zm-5.12-2.88c0-0.30889 0.47915-0.95689 1.0648-1.44 0.9655-0.79647 0.99324-0.7441 0.29749 0.56164-0.79355 1.4892-1.3623 1.856-1.3623 0.87836zm-1.0141-21.668c0.24518-0.77248 0.0241-1.5842-0.56438-2.0727-0.53207-0.44158-0.80958-1.0582-0.61668-1.3704 0.48272-0.78106 3.4752-0.71862 3.4752 0.0725 0 0.352-0.288 0.64-0.64 0.64s-0.64 0.703-0.64 1.5622c0 0.85922-0.31885 1.7593-0.70856 2.0001-0.46931 0.29005-0.57248 9e-3 -0.30556-0.83187zm-2.1646-6.3113c-0.0117-0.38544 0.55471-1.2221 1.2587-1.8592s1.3002-1.6178 1.325-2.1792c0.0335-0.76009 0.18545-0.69389 0.59501 0.25919 0.78871 1.8354 0.75 2.3833-0.14723 2.0843-0.43298-0.14433-1.2874 0.33567-1.8987 1.0667s-1.1211 1.0137-1.1328 0.62827zm-8.6082-5.9333c-0.27569-0.44608-0.32842-0.98389-0.11718-1.1951 0.57278-0.57277 1.1973 0.26963 0.88793 1.1977-0.21678 0.65035-0.36753 0.64984-0.77075-3e-3zm10.507-1.2441c0-0.34367 0.45606-0.79986 1.0135-1.0138 0.6233-0.23919 0.91589-0.0962 0.76 0.37152-0.3189 0.9567-1.7735 1.4834-1.7735 0.64224zm13.76-1.4018c0.21755-0.352 0.52255-0.64 0.67777-0.64 0.15523 0 0.28223 0.288 0.28223 0.64s-0.305 0.64-0.67777 0.64c-0.37278 0-0.49978-0.288-0.28223-0.64zm-2.24-0.64c0-0.352 0.288-0.64 0.64-0.64s0.64 0.288 0.64 0.64-0.288 0.64-0.64 0.64-0.64-0.288-0.64-0.64zm-24.64-0.64c0.21755-0.352 0.52255-0.64 0.67777-0.64 0.15523 0 0.28223 0.288 0.28223 0.64s-0.305 0.64-0.67777 0.64c-0.37278 0-0.49978-0.288-0.28223-0.64zm15.699 0.025c-0.5178-0.32746-0.77484-0.76202-0.5712-0.96566 0.20365-0.20365 0.73457 0.0687 1.1798 0.6052 0.92327 1.1125 0.74624 1.2173-0.60863 0.36046zm11.25-1.0385c-0.23919-0.62331-0.0962-0.91589 0.37152-0.76 0.9567 0.3189 1.4834 1.7735 0.64224 1.7735-0.34367 0-0.79986-0.45607-1.0138-1.0135zm-13.188-22.027c0-0.352 0.288-0.64 0.64-0.64s0.64 0.288 0.64 0.64-0.288 0.64-0.64 0.64-0.64-0.288-0.64-0.64zm-16.928-5.6881c0.3344-0.31244 1.328-0.75935 2.208-0.99313 1.5377-0.40852 1.5516-0.38638 0.35768 0.56806-1.3092 1.0466-3.6451 1.4336-2.5657 0.42507zm33.822-0.81864c-0.18128-0.29331 0.6954-0.53329 1.9482-0.53329 1.2528 0 2.2778 0.11132 2.2778 0.24736 0 0.52556-3.9142 0.79039-4.226 0.28593zm-18.164-1.6155c5e-3 -0.28477 0.28898-0.94977 0.6302-1.4778 0.53466-0.82732 0.62175-0.81043 0.6302 0.12223 5e-3 0.59522-0.2782 1.2602-0.6302 1.4778s-0.63559 0.16255-0.6302-0.12223zm-44.937-8.2178c-0.18703-0.18704-1.011-0.46928-1.831-0.6272-0.82001-0.15792-1.939-0.76577-2.4866-1.3508-0.9104-0.97258-0.88605-1.0211 0.28434-0.56659 0.704 0.27338 2.4311 0.91333 3.8379 1.4221 3.0811 1.1143 3.5134 1.4625 1.8154 1.4625-0.704 0-1.433-0.15303-1.6201-0.34007zm3.8067-0.0838c0.44-0.17754 1.16-0.17754 1.6 0s0.08 0.32281-0.8 0.32281-1.24-0.14527-0.8-0.32281zm70.56-3.0961c0.82672-0.88 1.6471-1.6 1.8231-1.6s-0.3564 0.72-1.1831 1.6-1.6471 1.6-1.8231 1.6 0.3564-0.72 1.1831-1.6zm-154.65-0.5346c-0.6212-0.34765-4.3119-0.80157-8.2016-1.0087-5.6923-0.30317-7.0722-0.56397-7.0722-1.3367 0-0.528 0.65227-1.0526 1.4495-1.1658 2.7054-0.38404 0.82814-1.2413-2.0161-0.92067-2.3683 0.26694-2.9388 0.10956-3.5167-0.97027-1.0601-1.9807 0.38562-2.6951 5.6153-2.7747 3.9542-0.0602 4.4387-0.18739 3.4546-0.90698-0.64849-0.47419-0.89903-1.0677-0.57801-1.3693 0.31164-0.29278 0.69518-0.17233 0.85233 0.26767s0.7578 0.8 1.3348 0.8c1.6749 0-1.0424-1.6621-3.6427-2.2282-2.093-0.45564-2.1526-0.41477-1.7478 1.1982 0.39086 1.5573 0.27078 1.67-1.7807 1.67-2.9824 0-4.2245-0.56006-4.2245-1.9047 0-1.3396 2.5659-1.9655 9.44-2.3029 3.7781-0.18542 4.64-0.0513 4.64 0.72215 0 0.71012-0.44423 0.84518-1.76 0.53505-1.3953-0.32886-1.604-0.24834-1.0072 0.38861 0.41404 0.44189 2.2353 0.87471 4.0472 0.96183 1.8119 0.0871 3.6188 0.48276 4.0152 0.8792 0.39644 0.39644 1.1912 0.7208 1.7661 0.7208 0.57493 0 1.0453 0.42544 1.0453 0.94542 0 0.67086-0.43368 0.83658-1.4933 0.57062-2.4069-0.60409-1.7257 0.17647 1.5467 1.7722 1.9106 0.93169 4.0505 1.4466 5.76 1.386 2.3178-0.0822 2.72 0.0911 2.72 1.1724 0 0.83829-0.26604 1.1045-0.78395 0.78439-0.43117-0.26647-1.3672-0.51831-2.08-0.55962-0.71282-0.0413-2.2115-0.12829-3.3303-0.19327-1.1189-0.065-2.4748-0.55865-3.0132-1.0971-0.63929-0.63929-1.5433-0.83726-2.6057-0.57062-0.98816 0.24802-1.6268 0.1377-1.6268-0.28099 0-0.37911-0.432-0.52352-0.96-0.32091-2.0522 0.78749-0.20293 3.2661 2.88 3.8602 3.0531 0.58831 12.942 0.36493 13.394-0.30257 0.70122-1.0345 2.5171-1.324 3.1934-0.50921 0.37468 0.45146 0.61174 0.94179 0.52679 1.0896-0.08494 0.14782 0.14905-0.0724 0.51999-0.48949 0.51328-0.57707 0.82374-0.52155 1.2993 0.23234 0.34367 0.54483 1.4134 0.9906 2.3772 0.9906 0.96381 0 1.8717 0.19311 2.0176 0.42913 0.42664 0.69033-21.211 0.53255-22.455-0.16373zm-5.3538-2.9564c0-0.87592-4.5298-1.621-5.0301-0.82741-0.22545 0.35769-0.98592 0.79424-1.6899 0.97013s0.52 0.35321 2.72 0.39404c2.2 0.0408 4-0.20071 4-0.53676zm-6.8362-3.621c-0.20294-0.52884-0.78736-0.80098-1.2987-0.60475-0.51137 0.19623-1.6432 0.35678-2.5152 0.35678-2.6178 0-1.1698 0.99605 1.6091 1.1069 2.0512 0.0818 2.4989-0.0926 2.2049-0.85889zm9.3962-1.8102c0-0.15522-0.288-0.46022-0.64-0.67777s-0.64-0.0906-0.64 0.28223c0 0.37277 0.288 0.67777 0.64 0.67777s0.64-0.127 0.64-0.28223zm-12.8-2.2778c0-0.352-0.271-0.64-0.60223-0.64s-0.78022 0.288-0.99777 0.64 0.05345 0.64 0.60223 0.64c0.54877 0 0.99777-0.288 0.99777-0.64zm86.92 11.083c0.462-0.18488 1.014-0.16214 1.2267 0.0505 0.21266 0.21266-0.16534 0.36393-0.84 0.33614-0.74557-0.0307-0.89722-0.18237-0.38667-0.38667zm115.8 0.0133c0.44-0.17754 1.16-0.17754 1.6 0s0.08 0.32281-0.8 0.32281-1.24-0.14527-0.8-0.32281zm2.72-0.27604c0-0.31904 0.576-0.58008 1.28-0.58008s1.28 0.11041 1.28 0.24536c0 0.13494-0.576 0.39598-1.28 0.58008s-1.28 0.0737-1.28-0.24536zm-127.04-0.53444c-2.4535-0.59211-4.6876-1.7958-6.3597-3.4263-1.366-1.3321-0.14136-0.89557 1.5661 0.55823 0.53152 0.45257 2.9795 1.3963 5.44 2.0972 4.1611 1.1853 3.641 1.8056-0.64641 0.77089zm94.464-2.4165c0.46602-0.776 0.98506-1.2731 1.1534-1.1048 0.16837 0.16837-0.21291 0.80327-0.8473 1.4109-1.102 1.0555-1.1157 1.0419-0.30613-0.30613zm-145.66-0.82911c0.21755-0.352 0.68354-0.64 1.0355-0.64s0.46201 0.288 0.24446 0.64-0.68354 0.64-1.0355 0.64-0.46201-0.288-0.24446-0.64zm98.56 0c-0.21755-0.352-0.0906-0.64 0.28223-0.64 0.37277 0 0.67777 0.288 0.67777 0.64s-0.127 0.64-0.28223 0.64c-0.15522 0-0.46022-0.288-0.67777-0.64zm-21.963-0.77867c-0.41653-0.41653-0.75733-1.1958-0.75733-1.7317 0-0.66887 0.32147-0.51543 1.0253 0.48939 1.123 1.6033 0.94024 2.4505-0.26795 1.2424zm-74.997-0.50133-2.24-0.4715 2.7578-0.0842c1.6943-0.0518 2.6052 0.16256 2.3622 0.55575-0.21755 0.352-0.45055 0.60209-0.51777 0.55575-0.06723-0.0464-1.1302-0.29648-2.3622-0.5558zm111.79 0.21333c-0.23467-0.23466-0.42226-0.88266-0.41687-1.44 9e-3 -0.89106 0.0917-0.89749 0.68872-0.0533 0.51092 0.72244 0.75925 0.76203 1.0035 0.16 0.17855-0.44 0.59106-0.8 0.91671-0.8 0.32564 0 0.23237 0.576-0.20728 1.28-0.84635 1.3552-1.2915 1.5466-1.9848 0.85333zm-70.935-1.7227 2.1319-0.77202-3.7178-1.5409c-3.059-1.2679-5.0245-1.5723-11.092-1.7178-4.0558-0.0973-8.5848-0.30807-10.064-0.46838-1.4797-0.16032-4.6341 0.11521-7.0099 0.61228-4.8671 1.0183-14.414 0.64062-16.54-0.65442-0.704-0.42879-2.0396-1.2707-2.9679-1.8708-1.4838-0.95923-1.8015-0.97761-2.6271-0.152-0.7431 0.7431-1.5108 0.81079-3.6766 0.32418-1.5055-0.33828-2.8888-0.46355-3.074-0.2784-0.18516 0.18516-0.65355 0.0737-1.0409-0.24781-0.38733-0.32145-2.08-0.74626-3.7615-0.94402-7.1639-0.84253-7.3661-3.1755-0.29872-3.4463 3.971-0.15217 5.2383 0.0505 6.9886 1.1176 1.1759 0.71692 2.9865 1.3046 4.0236 1.3059 1.0371 1e-3 3.0266 0.79439 4.4211 1.7624 2.2378 1.5533 3.2939 1.8001 8.9944 2.1012 3.5524 0.18766 8.0429 0.0364 9.9789-0.33605 3.709-0.7136 4.4189-0.70437 10.56 0.13734 2.112 0.28947 5.6868 0.31617 7.9439 0.0593 4.1034-0.46692 5.9126-0.0801 12.55 2.6835 1.6784 0.6988 2.2937 0.63171 4.6509-0.50715 2.9034-1.4028 12.178-2.0636 15.663-1.116 2.1071 0.57289 4.3163-0.74229 2.902-1.7276-0.55487-0.38655-0.36821-0.449 0.56273-0.18828 0.76616 0.21458 2.4573-0.0545 3.7582-0.59807 1.3008-0.54352 3.554-0.96225 5.007-0.9305l2.6418 0.0577-2.24 0.58607c-1.232 0.32233-3.3192 0.88368-4.6383 1.2474l-2.3983 0.66138 2.1716 3.4697-1.7407-1.564c-1.6501-1.4825-1.7984-1.5063-2.8475-0.45685-1.3772 1.3775-0.54019 2.0389 3.3191 2.6227 3.8245 0.57857 5.1705 1.6159 2.1128 1.6283-1.3317 5e-3 -3.7797-0.669-5.44-1.4986-3.9616-1.9796-5.6845-2.3558-11.016-2.4058-4.4169-0.0413-9.9353 1.3073-12.466 3.0465-0.69431 0.47725-1.8463 0.8458-2.56 0.81903-0.90133-0.0338-0.64654-0.28445 0.83433-0.82072zm-54.612-8.045c-1.056-0.25485-2.5927-0.8247-3.4148-1.2664-1.6906-0.90818-2.363-0.58281-1.8043 0.87312 0.28023 0.73026 1.2597 0.97053 3.7591 0.92209 2.8115-0.0545 3.0571-0.14346 1.4601-0.52886zm-6.72-1.3256c0-0.352-0.288-0.64-0.64-0.64s-0.64 0.288-0.64 0.64 0.288 0.64 0.64 0.64 0.64-0.288 0.64-0.64zm-2.7333-0.38667c-0.21267-0.21266-0.76467-0.2354-1.2267-0.0505-0.51055 0.2043-0.3589 0.35595 0.38667 0.38666 0.67467 0.0278 1.0527-0.12348 0.84-0.33614zm116.67 8.9947c0.0171-1.6551 0.10419-1.7422 0.70632-0.70632 0.49226 0.84689 0.48674 1.3818-0.0195 1.888-0.51509 0.51509-0.70105 0.19517-0.68685-1.1817zm4.1142 0.30942c-0.68881-1.1145 0.0957-1.3506 0.97348-0.29289 0.5048 0.60825 0.55336 0.97547 0.12897 0.97547-0.37432 0-0.87042-0.30716-1.1024-0.68258zm10.586-2.5814c0-0.528-0.3411-1.3011-0.75801-1.718-0.86474-0.86474-1.223-3.4512-0.40829-2.9477 1.2454 0.76968 2.5541 4.2379 1.8608 4.9313-0.49928 0.49928-0.69446 0.42465-0.69446-0.26554zm24.96-0.576c0-0.352 0.305-0.64 0.67777-0.64 0.37278 0 0.49978 0.288 0.28223 0.64s-0.52255 0.64-0.67777 0.64c-0.15523 0-0.28223-0.288-0.28223-0.64zm29.432-0.36262c-3.5982-2.0123-13.252-3.7243-15.756-2.7939-0.75003 0.27876-3.0427 0.279-5.0948 5.2e-4 -4.4198-0.59978-7.5092 0.11169-8.949 2.0609-0.70313 0.95195-1.1457 1.1533-1.3522 0.61513-0.16883-0.44-1.274-0.8-2.4558-0.8-2.413 0-3.5385-1.0615-1.8234-1.7197 0.61719-0.23685 1.2251-0.12195 1.3508 0.25532 0.16069 0.48204 0.86923 0.48936 2.3836 0.0246 1.4016-0.43015 2.0382-0.96532 1.8212-1.5308-0.44904-1.1702-1.4767-1.1072-1.4767 0.0906 0 0.528-0.31922 0.96-0.70938 0.96-0.43105 0-0.5567-0.60834-0.32025-1.5504 0.33436-1.3322 0.0839-1.6512-1.7793-2.2661-2.1734-0.71735-6.7911-4.6708-6.7911-5.8143 0-1.2231-1.9249-0.56123-3.8551 1.3256-1.0886 1.0641-2.2505 1.7671-2.5821 1.5622-0.9339-0.57719-0.71081-1.5783 0.26801-1.2027 0.98796 0.37911 3.2793-3.8348 2.6441-4.8626-0.21555-0.34876 0.34543-0.91444 1.2466-1.2571 1.0896-0.41425 1.6418-1.1107 1.6483-2.0788 7e-3 -1.0834 0.15343-1.2291 0.57121-0.56938 0.88814 1.4024 1.8243-1.0331 1.6334-4.2498-0.0889-1.4978 0.0965-2.8828 0.41199-3.0778 0.31545-0.19496 0.57796-1.5615 0.58335-3.0367 5e-3 -1.4752 0.27691-3.1046 0.60339-3.6208 0.37992-0.60069 0.33615-1.2487-0.12156-1.8002-0.5829-0.70235-0.36901-0.77844 1.1566-0.41144 2.4778 0.59608 2.5036 0.6321 2.2835 3.187-0.15636 1.8149 0.0749 2.3082 1.299 2.7705 0.81908 0.30934 1.7052 0.43526 1.9692 0.27982s0.48 0.07037 0.48 0.50181c0 0.43144 0.18676 0.59768 0.41503 0.36941 0.44512-0.44512 2.785 1.9575 2.785 2.8596 0 0.29814 0.288 0.54207 0.64 0.54207s0.64-0.29966 0.64-0.66591c0-0.91889-2.6716-4.4541-3.3661-4.4541-0.31095 0-0.99736-0.432-1.5254-0.96-0.85333-0.85333-0.83955-0.96 0.12408-0.96 0.8645 0 0.93113-0.18429 0.32897-0.90985-0.5822-0.7015-0.57-1.2062 0.0532-2.2042 0.68081-1.0902 0.62263-1.4996-0.36879-2.5951-1.2033-1.3296-2.6491-1.2119-1.8826 0.15333 0.32508 0.579 0.2328 0.57872-0.39454-0.0013-1.2532-1.1584-0.29047-2.9386 1.3138-2.4295 0.84021 0.26668 1.7654 0.02688 2.5155-0.65197 1.7078-1.5455 3.4801-0.99284 3.728 1.1626 0.11343 0.98628-0.13783 2.2078-0.55837 2.7145-0.61194 0.73735-0.55728 0.9213 0.27376 0.9213 1.5363 0 1.3482 3.9135-0.28809 5.9937-0.72955 0.92747-1.0176 1.6863-0.64 1.6863s0.68645-0.288 0.68645-0.64c0-1.0577 1.8846-0.72284 3.2876 0.58424 1.4711 1.3705 1.151 3.8958-0.49384 3.8958-0.64444 0-0.83588-0.39103-0.58242-1.1896 0.21638-0.68175-0.0312-1.5289-0.57979-1.9842-0.82153-0.6818-0.94509-0.4676-0.87076 1.5096 0.0523 1.3911 0.40885 2.3042 0.8998 2.3042 1.4878 0 1.7487 2.5707 0.41146 4.0544-1.3051 1.4481-3.352 5.3154-3.352 6.3332 0 0.66529-3.516 4.3324-4.1539 4.3324-0.22681 0-0.23725-0.55176-0.0232-1.2261 0.53772-1.6942-0.5157-2.1649-1.4602-0.65246-0.55324 0.88588-0.56847 1.2386-0.0534 1.2386 0.40525 0 0.57355 0.56027 0.38494 1.2815-0.58719 2.2454 1.3911 2.6179 4.7809 0.90021 1.6733-0.84795 3.3272-1.5417 3.6753-1.5417s1.6655-0.70076 2.9276-1.5572c2.2958-1.5579 7.6004-2.6345 10.608-2.1528 0.92435 0.14804-0.39102 0.5909-3.2458 1.0928-5.2955 0.93098-7.337 1.947-5.342 2.6587 0.78531 0.28015 0.0215 0.58344-2.2757 0.90363-4.801 0.66919-7.9539 2.0602-7.4784 3.2994 0.20689 0.53916 0.37603 1.0287 0.37587 1.088-6.4e-4 0.27412 15.357-0.13452 15.82-0.42096 0.89014-0.55014 9.8444 1.5465 11.873 2.78 1.053 0.64039 2.309 1.013 2.7911 0.82802 0.48204-0.18497 0.87643-0.0345 0.87643 0.33438 0 1.1656-0.92322 1.3035-2.568 0.38363zm-34.552-12.506c0-0.92008-1.1105-0.65643-1.4989 0.35587-0.23786 0.61986-0.0483 0.80939 0.57153 0.57153 0.51007-0.19573 0.9274-0.61306 0.9274-0.9274zm0-1.4938c0-0.15522-0.288-0.46022-0.64-0.67777s-0.64-0.0906-0.64 0.28223c0 0.37277 0.288 0.67777 0.64 0.67777s0.64-0.127 0.64-0.28223zm3.6546-0.99777c-0.1841-0.704-0.14569-1.2804 0.0854-1.2808 0.23104-4.3e-4 1.2324-0.69941 2.2253-1.5533l1.8052-1.5525-1.4852-0.79149c-1.3509-0.71992-1.4058-0.69521-0.60683 0.2733 1.0038 1.2169 0.55417 1.3627-1.2404 0.40226-1.5896-0.85074-1.5742-2.0125 0.042-3.1775 1.3681-0.98604 1.7253-3.4893 0.59743-4.1863-0.95062-0.58751-2.4066 1.5919-2.0287 3.0368 0.17137 0.65537-0.16374 1.7168-0.7447 2.3588-0.95092 1.0508-0.95747 1.2492-0.0657 1.9893 0.89362 0.74163 0.89376 0.96984 1e-3 2.3318-0.88179 1.3458-0.88336 1.5097-0.0144 1.5097 0.53611 0 0.97475 0.432 0.97475 0.96s0.17759 0.96 0.39464 0.96c0.21706 0 0.24402-0.576 0.0599-1.28zm-2.3844-3.0778c-8e-3 -0.93266-0.0955-0.94955-0.6302-0.12223-0.80998 1.2534-0.80998 2.1006 0 1.6 0.352-0.21755 0.63559-0.88255 0.6302-1.4778zm8.1244-3.6822c0.10699-0.33-0.51383-0.92857-1.3796-1.3302-1.2409-0.57558-1.7294-0.54307-2.3076 0.1536-0.57936 0.69809-0.41557 1.0106 0.7796 1.4873 1.6971 0.67697 2.6193 0.57841 2.9076-0.31075zm-10.035-2.2378c0-0.33123-0.288-0.60223-0.64-0.60223s-0.64 0.449-0.64 0.99777c0 0.54878 0.288 0.81978 0.64 0.60223s0.64-0.66655 0.64-0.99777zm2.88 0.67777c0.21755-0.352 0.0906-0.64-0.28223-0.64-0.37277 0-0.67777 0.288-0.67777 0.64s0.127 0.64 0.28223 0.64c0.15522 0 0.46022-0.288 0.67777-0.64zm-3.9772-3.19c0.18553-0.70948 0.11156-1.29-0.16438-1.29-0.88406 0-2.0633 1.8402-1.6293 2.5424 0.56004 0.90617 1.3787 0.33455 1.7937-1.2524zm4.62-0.65449c0.21908-0.35449-0.0644-0.82207-0.62984-1.0391-1.2254-0.47022-1.9083 0.04794-1.3193 1.001 0.53145 0.85989 1.4304 0.87745 1.9491 0.03808zm3.8372-3.8355c-0.21755-0.352-0.73855-0.63559-1.1578-0.6302-0.45799 0.0058-0.37906 0.25743 0.19777 0.6302 1.2295 0.79458 1.4511 0.79458 0.96 0zm1.8314-1.6c0.20261-0.528 0.0174-0.96441-0.41152-0.9698-0.54921-0.0069-0.52409-0.17192 0.0849-0.55784 0.61224-0.38797 0.27687-0.63434-1.1482-0.84349-2.5742-0.37782-3.2133 0.64402-1.3476 2.1548 1.7626 1.4273 2.3407 1.4716 2.8224 0.21635zm-2.9114-1.3972c0.462-0.18488 1.014-0.16214 1.2267 0.0505 0.21266 0.21266-0.16534 0.36393-0.84 0.33614-0.74557-0.03072-0.89722-0.18236-0.38667-0.38666zm0.76-2.7105c0-0.32321 0.17481-1.0432 0.38847-1.6 0.28215-0.73527 6.6e-4 -1.0123-1.0285-1.0123s-1.3106 0.27708-1.0285 1.0123c0.21366 0.55679 0.38847 1.2768 0.38847 1.6 0 0.32321 0.288 0.58765 0.64 0.58765s0.64-0.26445 0.64-0.58765zm-41.637 36.063c-0.64672-0.77925-0.6435-1.1208 0.0164-1.7422 0.6421-0.60455 0.88505-0.59778 1.1155 0.0311 0.16207 0.4422 0.55807 0.6412 0.88 0.44223 0.90072-0.55668 0.69348 0.33707-0.31111 1.3417-0.76859 0.76858-1.0112 0.7582-1.7009-0.0728zm18.361-0.43503c-0.71197-2.6567-0.36257-3.3814 0.58166-1.2065 1.0958 2.5241 1.113 2.6465 0.36959 2.6465-0.31094 0-0.73901-0.648-0.95125-1.44zm3.9927-2.24c0.56374-2.024 1.1182-3.1977 1.2321-2.6082 0.27648 1.431-1.0577 6.2882-1.7273 6.2882-0.29137 0-0.0685-1.656 0.49522-3.68zm-58.476 1.0766c-1.056-0.67642-2.552-1.2314-3.3245-1.2332-0.7725-2e-3 -3.6165-1.0114-6.3199-2.2434-2.7034-1.232-5.6714-2.2384-6.5955-2.2364-1.4154 3e-3 -9.5771-2.4593-15.44-4.6583-3.5582-1.3346-6.2182-2.8647-10.522-6.0526-2.4852-1.841-4.8632-3.353-5.2846-3.36-1.2463-0.02075-10.434-4.6168-10.434-5.2195 0-0.30429-0.8538-0.55327-1.8973-0.55327-1.0831 0-3.0743-0.83292-4.64-1.941-2.9583-2.0936-4.1163-2.8659-9.3472-6.2343-3.3123-2.1329-4.5418-3.6117-3.7014-4.4521 0.22668-0.22668 1.6303 0.22526 3.1191 1.0043 2.276 1.191 2.4259 1.3768 0.94132 1.1674-2.3419-0.33028-1.426 0.77373 2.2186 2.6743 1.5108 0.78784 4.331 2.5657 6.267 3.9507 1.936 1.385 4.1292 2.5256 4.8737 2.5345 0.74453 0.0089 2.07 0.57963 2.9454 1.2683 1.8309 1.4402 8.1886 4.0735 8.6708 3.5914 0.17791-0.17791-0.57772-0.83646-1.6792-1.4635-1.9073-1.0857-2.6221-2.1-1.4798-2.1 0.29201 0 2.236 1.5233 4.32 3.3851 7.4958 6.6967 12.631 9.8166 19.168 11.647 2.1014 0.58833 5.0416 1.6228 6.5338 2.2988 1.4922 0.676 3.6735 1.2291 4.8473 1.2291s4.417 0.98507 7.207 2.189c2.79 1.204 6.0807 2.3779 7.3127 2.6088 1.232 0.23084 3.104 1.1163 4.16 1.9678 2.2912 1.8474 0.87028 2.0183-1.92 0.23102zm39.619 0.58402c-0.17881-0.28934 0.84185-1.6699 2.2682-3.068 3.49-3.4209 3.5623-5.4941 0.0875-2.5068-1.3782 1.1848-2.5302 2.5124-2.56 2.9502-0.0312 0.45869-0.66437 0.69689-1.4942 0.56215-0.85914-0.13951-1.4042-0.65422-1.3511-1.276 0.12459-1.4607-0.74972-1.2968-2.1224 0.39785-0.98267 1.2131-1.8219 1.4484-5.3264 1.4936-2.288 0.0295-4.808 0.27908-5.6 0.55465-1.0353 0.36021-1.44 0.25521-1.44-0.37362 0-0.90987 1.0413-1.1112 7.1482-1.3818 3.3869-0.15008 6.2918-1.5625 6.2918-3.0591 0-0.74878-5.096-2.4519-8.32-2.7805-1.584-0.16148-2.969-0.31151-3.0778-0.3334-0.10878-0.0219-0.0355-0.30228 0.16272-0.62308 0.94782-1.5336-8.3854-1.4641-10.331 0.077-0.51639 0.409-2.0811-0.12135-4.8-1.627-5.0318-2.7864-11.86-4.8277-16.674-4.9844-2.024-0.0659-3.68-0.31591-3.68-0.5556 0-1.1396-6.0747-6.4104-8.1813-7.0985-1.3084-0.42736-3.8188-1.5675-5.5788-2.5336-4.1139-2.2583-6.6937-3.0111-11.889-3.4691-4.4898-0.39585-7.2776-1.0448-9.2749-2.1591-0.67993-0.37935-3.1104-1.5249-5.4011-2.5456-4.5344-2.0205-5.7367-3.1182-6.7142-6.1302-0.38015-1.1714-1.1617-2.0693-1.9209-2.2068-0.704-0.12752-1.9212-0.99503-2.7049-1.9278-1.1863-1.4119-1.5284-1.5388-2.0434-0.7574-0.40555 0.61537-0.38377 1.2214 0.06324 1.76 0.48947 0.58979 0.4685 0.82147-0.07438 0.82147-0.41588 0-0.56372 0.31133-0.32854 0.69186 0.23518 0.38052 1.0442 0.53866 1.7978 0.35143 0.84185-0.20916 1.9871 0.16399 2.9702 0.96772 1.3012 1.0639 1.361 1.227 0.32 0.87371-0.704-0.23894-2.1223-0.54643-3.1517-0.68331-1.0295-0.13688-2.1671-0.5442-2.528-0.90515-0.93199-0.93199-2.2552-0.81279-3.3717 0.30374-0.528 0.528-0.65527 0.96-0.28283 0.96s1.8123 0.792 3.1997 1.76c1.9602 1.3677 2.4486 2.0707 2.1908 3.1537-0.25579 1.0746 0.11382 1.6241 1.6142 2.4 1.0703 0.55347 2.3923 1.0063 2.9378 1.0063 1.4274 0 1.2219 1.1207-0.29377 1.6018-0.79424 0.25208-2.3008-0.15948-3.9419-1.0769-2.1932-1.226-2.8094-2.015-3.5338-4.5249-0.49064-1.6999-1.2599-3.04-1.7449-3.04-1.3132 0-4.2528-1.6677-3.7774-2.143 0.22934-0.22934 0.26015-0.41698 0.06847-0.41698-0.19168 0-1.3827-0.4321-2.6467-0.96024-1.9982-0.83489-2.2513-0.83807-1.939-0.02438 0.19752 0.51473 0.90852 1.1102 1.58 1.3234 0.67148 0.21312 1.2209 0.77801 1.2209 1.2553 0 0.71007-0.34964 0.6934-1.9235-0.09175-2.5695-1.2818-3.4893-3.0226-2.174-4.1142 0.82377-0.68367 1.3745-0.62228 3.1904 0.35564 3.632 1.956 3.1188 0.67988-0.6645-1.6524-3.5354-2.1794-4.3602-3.5-2.6064-4.173 0.98675-0.37862 4.8179 1.0405 4.8179 1.7846 0 0.23674-0.36 0.58034-0.8 0.76356-1.173 0.48846 1.309 2.3436 2.5159 1.8805 0.59386-0.22788 0.69979-0.52064 0.28186-0.77894-0.36828-0.22761-0.49442-1.0837-0.28032-1.9024 0.35678-1.3643 0.66496-1.4658 3.6911-1.2148 2.79 0.23136 3.9157 0.76335 7.2614 3.4315 2.1778 1.7367 3.9619 3.5557 3.9648 4.0422 0.0076 1.2702 2.5427 5.1955 3.3555 5.1955 0.3772 0 2.5857 0.8986 4.9078 1.9969 5.273 2.494 9.3371 3.7472 12.181 3.7562 3.4809 0.01094 10.392 1.9652 12.841 3.6311 1.232 0.83803 3.366 1.8289 4.7422 2.202 1.5687 0.42522 3.8587 1.9721 6.1379 4.1461 2.0794 1.9834 4.2217 3.4678 5.0048 3.4678 3.5247 0 12.334 2.2791 15.772 4.0802 3.595 1.8837 4.2268 2.0008 10.88 2.0171 6.9787 0.0172 9.2386 0.4853 15.543 3.2198 2.2308 0.96757 2.3939 0.87618 1.5089-0.84583-0.31412-0.61123-0.88394-1.9033-1.2663-2.8713-0.38233-0.968-1.1333-1.76-1.6689-1.76-1.3211 0-1.2292-1.6645 0.16913-3.0628 0.62858-0.62858 1.1429-1.7806 1.1429-2.56 0-1.8671-0.25216-1.7876-1.0875 0.34285-0.68615 1.75-0.69321 1.7518-1.2435 0.32-0.3044-0.792-0.99474-1.44-1.5341-1.44-1.544 0-1.1451-1.6157 0.63405-2.5678 1.8756-1.0038 1.7705-2.1431-0.2248-2.4367-1.6907-0.24878-1.8608-1.3955-0.20703-1.3955 1.0821 0 1.1306-0.30301 0.57006-3.5567-0.6838-3.9689-0.58858-4.2138 1.691-4.3484 1.4988-0.08849 1.5832-0.26905 1.2531-2.6797-0.37431-2.7334 0.47327-4.0711 2.7912-4.4051 0.63349-0.09129 1.2431-0.78217 1.3546-1.5353 0.21953-1.482 2.9479-3.9548 4.3635-3.9548 0.48053 0 0.87369-0.2337 0.87369-0.51932 0-0.28562 0.58722-1.1496 1.3049-1.92 1.2327-1.3231 1.8477-1.4007 11.104-1.4007 5.8783 0 10.666 0.30215 11.966 0.7551 1.9628 0.68422 7.5505 5.6109 7.6769 6.7686 0.26432 2.4212 0.25213 3.9928-0.0308 3.9759-1.1986-0.07151-2.5812-2.0052-2.5812-3.6098 0-3.432-5.5738-6.6098-11.593-6.6098-3.1527 0-3.7698 0.18251-3.7869 1.12-0.0194 1.0667-0.0609 1.0667-0.87056 0-0.62809-0.8274-1.7514-1.1157-4.2996-1.1036-2.8606 0.01357-4.0504 0.40799-6.9694 2.3103-2.6006 1.6948-3.0603 2.1888-1.76 1.8914 0.968-0.22136 1.76-0.145 1.76 0.16971s-0.936 0.76081-2.08 0.99135c-1.5343 0.30918-1.8434 0.5665-1.178 0.98079 0.49608 0.3089 1.3353 0.39534 1.865 0.19208 0.62708-0.24063 0.80159-0.10834 0.50027 0.37921-0.25452 0.41182-1.0048 0.74876-1.6672 0.74876s-1.41 0.3325-1.6611 0.73889c-0.30821 0.49869-0.16445 0.56695 0.44222 0.20998 0.49439-0.29089 0.35026 0.09661-0.3203 0.86112l-1.2192 1.39h2.6444c2.1121 0 2.8548-0.321 3.6892-1.5945 1.351-2.0619 2.247-1.4942 1.5389 0.97497-0.30337 1.0578-0.57014 2.0619-0.59285 2.2314-0.0227 0.16948-0.0633 0.38016-0.0903 0.46816-0.2278 0.74436-0.70693 2.9945-0.89697 4.2124-0.12808 0.82084-0.64738 1.8288-1.154 2.24-2.5168 2.0425-0.85638 5.6681 2.6539 5.7948 1.54 0.05555 1.9168 0.29976 1.5939 1.0328-0.23259 0.528-0.53781 1.968-0.67827 3.2-0.26952 2.3641-0.13759 2.3014 2.2411-1.0646 0.53926-0.76309 0.73845-0.83867 0.56783-0.21544-0.14456 0.528-0.46522 1.68-0.71258 2.56-0.25433 0.90479-0.21731 1.2698 0.0852 0.84004 0.70269-0.99825 3.9763-2.2281 4.7153-1.7714 0.31844 0.1968 0.40416-0.0977 0.19051-0.65449-0.24021-0.62596-0.82653-0.87328-1.5363-0.64801-0.88543 0.28102-1.2468-0.0864-1.5808-1.6072-0.25896-1.1791-0.13735-2.3277 0.30257-2.8577 0.40456-0.48747 0.64603-1.4117 0.53661-2.0538-0.11916-0.69952 0.18588-1.1675 0.76109-1.1675 1.0466 0 0.99252 3.0251-0.0611 3.4133-0.6947 0.25599-0.78512 1.4303-0.0989 1.2851 0.264-0.05587 0.98767 0.12034 1.6082 0.3916 0.63671 0.27836 1.4988 0.18563 1.9789-0.21284 0.46791-0.38833 1.0402-0.51654 1.2719-0.28493 0.23161 0.23162 0.42111 0.05491 0.42111-0.39272 0-0.47228 0.66687-0.18129 1.5889 0.69333 1.8781 1.7814 2.3406 3.9554 0.49106 2.3079-1.0164-0.90535-4.2666-1.0675-5.0806-0.25349-0.69256 0.69256 0.57806 1.6605 2.703 2.0592 1.2428 0.23316 2.2176 0.7997 2.2176 1.289 0 0.67258-0.37677 0.72968-1.6417 0.24877-2.386-0.90715-3.135-0.79272-2.1983 0.33584 0.4382 0.528 1.1935 0.96 1.6784 0.96 0.4849 0 0.88164 0.288 0.88164 0.64 0 0.79139-1.0789 0.84309-1.554 0.0745-0.41601-0.67312-3.5511-0.58274-4.686 0.13508-0.44 0.27829-1.0464 0.3537-1.3476 0.16758-0.30115-0.18613-0.41157 0.37288-0.24539 1.2422 0.16619 0.86935 0.57358 1.5806 0.90532 1.5806s0.42226 0.2927 0.20117 0.65044c-0.2211 0.35774-0.67009 0.48475-0.99777 0.28223s-0.59578-0.0632-0.59578 0.30956c0 0.97878 0.99482 0.83255 1.92-0.28223 1.1236-1.3539 4.7509-1.309 4.2285 0.0523-0.21366 0.55679-0.38847 1.4544-0.38847 1.9946 0 0.66704-0.41059 0.87492-1.2794 0.64773-0.70365-0.184-1.4406-0.0736-1.6378 0.24536-0.65412 1.0584-2.1328 0.60235-4.3451-1.3401-1.2027-1.056-2.5087-1.92-2.9023-1.92-0.88587 0-0.9527 2.9779-0.0789 3.5179 0.3501 0.21638 0.93277 0.94689 1.2948 1.6234 0.54843 1.0248 0.4781 1.1608-0.42155 0.81559-0.72901-0.27975-0.92947-0.17111-0.61704 0.3344 0.27774 0.44939 0.0638 0.74877-0.53501 0.74877-0.54877 0-1.009-0.36-1.0228-0.8-0.0138-0.44-0.41149 0.064-0.88379 1.12-0.47231 1.056-1.461 2.2774-2.1971 2.7142s-1.19 1.1808-1.0087 1.6533c0.3551 0.92537-1.4749 1.226-2.0268 0.33301zm7.5388-14.119c-0.45924-0.45924-0.75733-0.49702-0.75733-0.096 0 0.85426 0.75687 1.6111 1.184 1.184 0.18187-0.18186-0.0101-0.67146-0.42667-1.088zm2.9523-1.7522c-0.88306-1.414-1.5048-1.2378-0.9288 0.26329 0.20844 0.54318 0.67846 0.9876 1.0445 0.9876 0.42122 0 0.37875-0.45917-0.11569-1.2509zm-2.2835-0.78754c0.30237-0.90708-0.8913-5.6416-1.4224-5.6416-0.4712 0-0.69653 5.1569-0.25645 5.869 0.47767 0.77289 1.3864 0.64981 1.6788-0.22738zm7.5339-1.3047c0-0.3486-0.45555-0.45901-1.0124-0.24535-0.55678 0.21366-1.2938 0.38847-1.6378 0.38847-0.34399 0-0.46415 0.26096-0.26702 0.57992 0.45435 0.73515 2.9171 0.12473 2.9171-0.72304zm-17.28-5.6169c0-0.352-0.305-0.64-0.67777-0.64-0.37278 0-0.49978 0.288-0.28223 0.64s0.52255 0.64 0.67777 0.64c0.15523 0 0.28223-0.288 0.28223-0.64zm-1.6927-1.5892c0.22562-0.58796 0.77879-0.79014 1.4535-0.53124 0.73724 0.28291 0.93968 0.17601 0.62646-0.33079-0.25452-0.41182-0.15777-0.74876 0.21501-0.74876 0.37277 0 0.67777-0.29065 0.67777-0.64588 0-0.35524-1.0044 0.0045-2.2321 0.8-2.1567 1.397-2.8596 2.4059-1.6764 2.4059 0.31434 0 0.73543-0.42714 0.93577-0.94921zm-0.95897-1.5406c0.63363-0.40149 0.66859-0.67364 0.12935-1.0069-0.91688-0.56666-2.5977 0.02643-2.5977 0.91663 0 0.79826 1.2773 0.84498 2.4683 0.09028zm-0.10231-3.1319c-0.92605-0.19681-1.003-0.42722-0.38948-1.1664 0.62167-0.74907 0.56823-0.84586-0.28602-0.51805-0.58414 0.22415-1.0505 0.0886-1.0505-0.30535 0-0.38966-0.432-0.70847-0.96-0.70847s-0.96 0.46281-0.96 1.0285c0 0.68525 0.34611 0.89565 1.0371 0.63049 0.7766-0.29801 0.95935-0.10055 0.7275 0.78605-0.25747 0.98458-0.0279 1.1263 1.3629 0.84131 1.25-0.25615 1.381-0.40469 0.51852-0.588zm5.9858-4.6183c1.3905 0 2.5282-0.288 2.5282-0.64s-0.432-0.64-0.96-0.64-0.96-0.30263-0.96-0.67251c0-0.74982-4.801-0.49983-5.592 0.29118-0.2684 0.2684-0.056 0.392 0.472 0.27466 0.71372-0.1586 0.91691 0.27922 0.79203 1.7067-0.13979 1.598-0.0539 1.7321 0.5118 0.8 0.46306-0.76293 1.4858-1.12 3.208-1.12zm4.4482-2.24c0.86483-1.0421 0.65796-1.1723-0.90765-0.57153-0.5568 0.21366-1.0124 0.64566-1.0124 0.96 0 0.88527 1.037 0.67545 1.92-0.38847zm-9.28-0.96c0.21755-0.352 0.10754-0.64-0.24446-0.64s-0.81799 0.288-1.0355 0.64-0.10754 0.64 0.24446 0.64 0.81799-0.288 1.0355-0.64zm-105.4-6.7957c-0.56965-0.56965-1.3561-0.83775-1.7476-0.59578-1.0418 0.64389-0.19197 1.6315 1.4039 1.6315 1.2709 0 1.2979-0.08143 0.34364-1.0357zm2.5629-0.72428c-0.13568-0.71546-0.90392-1.1854-2.1269-1.301l-1.9145-0.18095 1.6 1.2867c1.98 1.5923 2.7176 1.6513 2.4415 0.19518zm172.07 44.853c-0.23467-0.23466-0.42667-0.72426-0.42667-1.088 0-0.40102 0.29809-0.36324 0.75733 0.096 0.41654 0.41654 0.60854 0.90614 0.42667 1.088-0.18187 0.18187-0.52267 0.13867-0.75733-0.096zm-57.707-0.85333c-0.21755-0.352-0.0905-0.64 0.28223-0.64 0.37277 0 0.67777 0.288 0.67777 0.64s-0.127 0.64-0.28223 0.64c-0.15522 0-0.46022-0.288-0.67777-0.64zm59.84 0.0922c0-0.26231 1.7997-1.1245 3.9994-1.9159 2.1997-0.79145 3.7117-1.1853 3.36-0.87515-1.0358 0.91347-7.3594 3.3117-7.3594 2.7911zm-62.08-1.0522c0-0.528 0.288-0.96 0.64-0.96s0.64 0.432 0.64 0.96-0.288 0.96-0.64 0.96-0.64-0.432-0.64-0.96zm19.136-0.16c-0.035-0.264-0.17664-1.7373-0.31471-3.274-0.21734-2.4189-0.12287-2.6876 0.70367-2.0016 0.52509 0.43578 0.95471 1.1198 0.95471 1.52 0 0.40022 0.576 1.0874 1.28 1.5271 1.4995 0.93646 1.6856 2.0685 0.34008 2.0685-0.51694 0-0.79786-0.37018-0.62424-0.82262 0.18899-0.49249-0.21688-0.86273-1.0113-0.92258-1.0393-0.0783-1.2415 0.16944-0.93263 1.1426 0.21691 0.68342 0.23097 1.2426 0.0312 1.2426-0.19972 0-0.39178-0.216-0.4268-0.48zm-64.193-1.2598c-1.745-0.44647-7.5512-4.1053-7.1505-4.506 0.18512-0.18512 0.74578 3e-3 1.2459 0.41809 0.50013 0.41507 2.5951 1.5913 4.6555 2.6138 3.5855 1.7794 3.9019 2.1528 1.2491 1.4741zm52.53-0.69542c-0.59008-0.65204-1.0729-1.5228-1.0729-1.9351 0-1.0714 1.446-0.63642 2.4741 0.74432 1.2396 1.6649-0.0106 2.7274-1.4012 1.1908zm70.897-0.0758c0.58957-0.95393 6.2376-2.5532 8.6702-2.4551 1.3479 0.0544 3.9612-0.72294 6.5617-1.9518 2.3769-1.1232 4.7695-2.0421 5.3168-2.0421 1.2486 0 5.7022-2.4716 10.738-5.9589 2.1291-1.4746 6.7675-4.1211 10.308-5.8811 6.6437-3.3031 7.9441-4.7881 5.9547-6.8002-1.5248-1.5422-1.644-2.8012-0.40962-4.3256 1.0221-1.2622 1.2605-1.3309 1.595-0.4591 0.21632 0.56371 0.22753 1.4569 0.0249 1.9849-0.20261 0.528-0.0894 0.96 0.25152 0.96 0.34096 0 0.61992-0.432 0.61992-0.96 0-0.5425 0.57309-0.96 1.3178-0.96 0.72478 0 1.1398 0.288 0.92223 0.64-0.62574 1.0125 0.71703 0.74391 1.6-0.32 0.52556-0.63326 0.55907-0.96 0.0985-0.96-0.38405 0-0.5325-0.432-0.32989-0.96 0.20262-0.528 0.0396-0.96-0.36215-0.96-0.4018 0 0.12946-0.84068 1.1806-1.8682 1.249-1.2209 2.3426-1.7553 3.1566-1.5425 1.9066 0.49858 3.9364-0.8895 3.9364-2.6919 0-0.87316 0.37401-1.5775 0.83768-1.5775 0.46072 0 1.3967-0.42389 2.08-0.94198 1.1055-0.83825 0.92516-0.85122-1.6377-0.1178-2.0401 0.58383-2.8284 1.1244-2.703 1.8537 0.24899 1.4485-0.83908 1.9361-1.7828 0.79902-0.56535-0.68121-0.59647-1.1872-0.10913-1.7744 1.2594-1.5175-0.0848-2.3961-1.7474-1.142-1.3983 1.0547-1.4105 3.1196-0.0134 2.2561 0.32767-0.20252 0.59578-0.06323 0.59578 0.30956 0 0.37278-0.54074 0.67777-1.2016 0.67777s-1.5602 0.432-1.9984 0.96c-0.88939 1.0716-3.84 1.3175-3.84 0.32 0-0.352 0.55244-0.64 1.2276-0.64 1.6417 0 3.2524-0.65121 3.2524-1.315 0-0.56657-3.4814 0.54431-5.1238 1.635-0.53008 0.352-1.7371 1.6785-2.6823 2.9479-1.2626 1.6956-2.7897 2.6975-5.7562 3.7767-2.2207 0.80783-4.9243 1.9942-6.0079 2.6364-1.0836 0.64221-5.4693 1.8789-9.7461 2.7482-6.3392 1.2885-8.92 2.1809-13.968 4.8301-3.4058 1.7872-7.2928 4.2437-8.6378 5.4589-1.345 1.2152-3.1008 2.3493-3.9016 2.5204-0.80087 0.17107-3.1767 0.64421-5.2797 1.0514-2.103 0.4072-4.263 0.86887-4.8 1.0259-0.53704 0.15705-0.25643-0.1267 0.62357-0.63057s3.184-1.2674 5.12-1.6966c5.5883-1.2391 5.6357-1.2613 9.4701-4.4373 5.2161-4.3204 12.441-7.5342 20.29-9.0258 5.1225-0.97341 7.6918-1.7695 11.52-3.5693 1.76-0.82747 4.5682-2.0761 6.2405-2.7746 2.0475-0.85534 3.4657-1.9908 4.3424-3.4767 0.90478-1.5335 2.32-2.6384 4.6395-3.6221 1.8357-0.77854 4.0576-2.0587 4.9376-2.8447 1.5573-1.3911 9.158-3.2668 10.322-2.5474 0.29232 0.18066 1.0832 0.03322 1.7575-0.32767 0.89491-0.47894 1.4155-0.42783 1.9277 0.18929 0.88023 1.0606 0.28717 1.6877-1.5961 1.6877-0.80056 0-1.6611 0.3325-1.9122 0.73889-0.30033 0.48595-0.14894 0.57895 0.44223 0.27167 0.49439-0.25697-0.18111 0.44647-1.5011 1.5632-1.32 1.1167-2.4 2.4136-2.4 2.8819 0 0.46831-0.72965 1.4254-1.6214 2.1269-0.89179 0.70148-1.3493 1.4436-1.0167 1.6492 0.69337 0.42852 4.1925-1.3343 5.9383-2.9917 0.64887-0.616 1.5398-1.1244 1.9798-1.1298 0.54898-0.0067 0.50836-0.19429-0.12944-0.59777-0.5112-0.32339-1.2312-0.42072-1.6-0.21631-0.46178 0.25594-0.46507 0.14689-0.0106-0.35023 0.363-0.39704 1.6353-0.91695 2.8274-1.1554 1.8857-0.37713 2.1119-0.28869 1.74 0.68035-0.23507 0.61261-0.42741 1.376-0.42741 1.6964 0 0.54873-2.1626 1.8387-6.8362 4.0778-1.1199 0.53654-2.24 1.3052-2.4891 1.7082-0.24907 0.403-0.19676 0.60462 0.11623 0.44805 0.313-0.15657 1.5051-0.6541 2.6491-1.1056 1.144-0.45153 2.08-1.0808 2.08-1.3984 0-0.31756 0.576-0.57739 1.28-0.57739 2.015 0 1.688 2.9138-0.48 4.2778-0.968 0.60902-2.5741 1.7677-3.5691 2.5748-0.995 0.80709-2.3622 1.4674-3.0382 1.4674-0.67598 0-2.3448 1.008-3.7085 2.24-1.7294 1.5624-3.09 2.24-4.4978 2.24-3.0383 0-19.861 8.8964-25.652 13.565-1.2242 0.98704-2.5415 1.7946-2.9273 1.7946-0.38581 0-3.0275 1.008-5.8705 2.24-3.4769 1.5067-6.185 2.2492-8.2727 2.2681-1.707 0.0154-4.2557 0.44312-5.6637 0.95037-3.0004 1.0809-3.7307 1.1602-3.2302 0.35047zm54.74-23.722c1.939-1.3807 2.9214-3.9728 2.0773-5.481-0.43146-0.77096-0.87059-0.58922-2.378 0.98419-1.0169 1.0614-2.155 1.9389-2.5291 1.9501-1.3799 0.04128-2.9394 1.7451-2.5429 2.7783 0.54665 1.4246 3.2079 1.3099 5.3727-0.23159zm4.22-7.3252c-0.25775-1.3739-0.79854-2.2819-1.3591-2.2819-1.141 0-1.1747 1.1589-0.131 4.5044 0.69236 2.2193 0.87523 2.3958 1.3591 1.3119 0.3075-0.68884 0.36645-2.2793 0.131-3.5344zm5.9766 0.44024c0.14666-0.08919 0.14036-0.28846-0.014-0.44282-0.55272-0.55272-4.4127 1.7389-4.4127 2.6198 0 0.65788 0.55825 0.50818 2.08-0.55777 1.144-0.80135 2.2-1.53 2.3467-1.6192zm-9.2681-1.3769c-0.40173-0.40172-1.5441 1.2237-1.5284 2.1747 6e-3 0.352 0.43042 0.08502 0.94358-0.59328 0.51317-0.6783 0.77635-1.39 0.58485-1.5815zm6.4324-9.3827c1.313-0.54862 2.2338-1.1511 2.0461-1.3388-0.46577-0.46577-4.9171 1.1862-4.9171 1.8248 0 0.68502 0.11469 0.6656 2.871-0.48606zm-89.295 39.373c1.2187-1.0424 2.5867-1.8952 3.04-1.8952 0.45329 0 0.82417-0.288 0.82417-0.64s-0.288-0.64-0.64-0.64-0.64-0.31922-0.64-0.70938c0-0.43774 0.61479-0.55508 1.6055-0.30642 0.94316 0.23672 2.3822 1e-3 3.4882-0.57062 1.0355-0.53547 2.401-0.9621 3.0345-0.94808 0.68249 0.0151 0.14689 0.52714-1.3145 1.2567-1.3565 0.67714-2.7965 1.5029-3.2 1.8351-0.40353 0.33216-2.4617 1.4835-4.5737 2.5586l-3.84 1.9546zm-34.526-0.45523c5e-3 -0.264 0.28898-0.912 0.6302-1.44 0.50168-0.77629 0.62227-0.68444 0.6302 0.48 5e-3 0.792-0.2782 1.44-0.6302 1.44s-0.63559-0.216-0.6302-0.48zm-71.431-2.88-1.2192-1.44 1.44 1.2192c1.3532 1.1457 1.7314 1.6608 1.2192 1.6608-0.12144 0-0.76944-0.648-1.44-1.44zm68.367-2.52c0.13933-0.418 0.59553-0.87407 1.0138-1.0135 0.46768-0.15589 0.61071 0.1367 0.37152 0.76-0.44641 1.1633-1.7693 1.4054-1.3853 0.25348zm-73.747-3.08c0-0.704 0.12045-1.28 0.26765-1.28 0.14722 0 0.72322-0.17481 1.28-0.38847 0.5568-0.21366 1.0124-0.0697 1.0124 0.32 0 0.38966-0.42296 0.70847-0.93992 0.70847-0.57253 0-0.79592 0.37523-0.57152 0.96 0.20261 0.528 0.0496 0.96-0.34009 0.96-0.38966 0-0.70847-0.576-0.70847-1.28zm162.56-8.0761c0.80439-1.288 3.1629-3.1065 3.4865-2.6882 0.087 0.11239-0.84943 1.0634-2.0809 2.1135-1.6308 1.3905-2.0126 1.5466-1.4057 0.57476zm-98.556-2.1155c0-0.30329 0.432-0.71721 0.96-0.91983 0.528-0.20261 0.96-0.12024 0.96 0.18306 0 0.30329-0.432 0.71721-0.96 0.91983-0.528 0.20261-0.96 0.12024-0.96-0.18306zm118.72-0.68838c0.21755-0.352 1.0266-0.63559 1.7978-0.6302 1.14 8e-3 1.2227 0.12582 0.44223 0.6302-1.2609 0.81484-2.7436 0.81484-2.24 0zm-107.52-0.64c0.21755-0.352 0.52255-0.64 0.67777-0.64 0.15523 0 0.28223 0.288 0.28223 0.64s-0.305 0.64-0.67777 0.64c-0.37278 0-0.49978-0.288-0.28223-0.64zm93.76-0.64c0.528-0.34122 1.248-0.6204 1.6-0.6204s0.208 0.27918-0.32 0.6204-1.248 0.6204-1.6 0.6204-0.208-0.27918 0.32-0.6204zm11.84 0c0.21755-0.352 0.82754-0.64 1.3555-0.64s0.78201 0.288 0.56446 0.64-0.82754 0.64-1.3555 0.64-0.78201-0.288-0.56446-0.64zm-220.64-1.0812c-0.616-0.16097-1.12-0.55956-1.12-0.88575 0-0.85924 0.85556-0.72906 2.2777 0.34657 1.2449 0.94159 0.93482 1.086-1.1577 0.53918zm100.99-0.7543c-0.58244-1.8351 0.74945-4.772 1.9544-4.3096 0.55189 0.21179 2.1319 0.38506 3.5111 0.38506 2.833 0 3.0541 0.45407 1.2398 2.546-1.0113 1.1661-1.3407 1.2722-1.6276 0.5246-0.19781-0.5155-0.7747-0.93728-1.282-0.93728-0.74416 0-0.76974 0.18532-0.13246 0.9595 0.68132 0.82765 0.53265 0.8954-1.0819 0.49309-1.6484-0.41075-1.7727-0.34706-1.0416 0.53384 0.69221 0.83406 0.66478 1.0002-0.16511 1.0002-0.54738 0-1.166-0.53796-1.3747-1.1955zm15.447 0.07547c0.32172-0.91428 0.23574-0.97306-0.46808-0.32-1.3096 1.2151-2.126 0.9628-3.0042-0.92844-1.0653-2.294-0.23129-2.7952 4.4185-2.655 4.0111 0.12095 4.2873 0.81027 1.436 3.5834-1.7677 1.7192-2.9294 1.8753-2.3822 0.32zm104.85-0.16c0.21755-0.352 0.68354-0.64 1.0355-0.64s0.46201 0.288 0.24446 0.64-0.68354 0.64-1.0355 0.64-0.46201-0.288-0.24446-0.64zm-94.69-0.59204c-0.44935-0.72706 0.92424-3.888 1.6895-3.888 0.30454 0 0.12579 0.82749-0.39721 1.8389-0.523 1.0114-0.7704 2.0194-0.54977 2.24 0.22063 0.22063 0.22614 0.40114 0.0122 0.40114-0.21389 0-0.55355-0.26642-0.7548-0.59204zm-128.99-3.888c0-0.352 0.305-0.64 0.67777-0.64 0.37277 0 0.49978 0.288 0.28223 0.64s-0.52255 0.64-0.67777 0.64c-0.15522 0-0.28223-0.288-0.28223-0.64zm-13.957-1.968c0.12613-0.3784 0.50293-0.688 0.83733-0.688s0.7112 0.3096 0.83733 0.688c0.12613 0.3784-0.25067 0.688-0.83733 0.688s-0.96347-0.3096-0.83733-0.688zm135.9-0.54778c-0.20252-0.32768-0.0755-0.77668 0.28223-0.99777 0.35774-0.22109 0.65044 0.04698 0.65044 0.59578 0 1.1242-0.38404 1.2897-0.93267 0.402zm-138.59-1.9642c-0.82732-0.53466-0.81043-0.62175 0.12223-0.6302 0.59523-0.0051 1.2602 0.2782 1.4778 0.6302 0.5006 0.80998-0.34664 0.80998-1.6 0zm137.75-2.56c-0.53936-0.86365-0.57208-1.28-0.10061-1.28 0.38431 0 0.57599-0.36 0.42593-0.8-0.15005-0.44-0.92553-0.70456-1.7233-0.58792-0.91548 0.13386-1.2927-0.0432-1.0227-0.48 0.62944-1.0185 2.631-0.84201 3.5927 0.3167 0.65213 0.78577 0.66467 1.1154 0.0567 1.4912-0.42928 0.26531-0.59595 0.96336-0.37037 1.5512 0.55855 1.4556 0.11437 1.3463-0.85827-0.21117zm-11.589-1.0905c-1.0942-0.43453-3.4556-2.7506-2.8-2.7463 0.264 0.0019 1.344 0.71139 2.4 1.577 1.9355 1.5865 2.0118 1.8094 0.4 1.1693zm2.6818-0.58675c-0.55211-1.4388 0.20898-1.7559 1.7029-0.70947l1.3475 0.94381-1.3452 0.35179c-0.84639 0.22134-1.4787 0.0038-1.7052-0.58613zm11.958-0.07695c0-1.6123-1.2287-2.7258-3.008-2.7258-0.8096 0-1.472-0.288-1.472-0.64 0-0.83132 0.8471-0.8098 2.7793 0.07057 1.7635 0.80349 3.2877 3.5041 2.3166 4.1043-0.33873 0.20935-0.61587-0.15477-0.61587-0.80914zm-11.52-3.3658c0-0.352 0.288-0.64 0.64-0.64s0.64 0.288 0.64 0.64-0.288 0.64-0.64 0.64-0.64-0.288-0.64-0.64zm-4.32-1.7212c0.616-0.16097 1.624-0.16097 2.24 0 0.616 0.16098 0.112 0.29269-1.12 0.29269s-1.736-0.13171-1.12-0.29269z" stroke-width=".64"/>
<!--
		<circle cx="180.95" cy="180.95" r="180.45" fill="none" stroke="#000"/>
		<rect x="33.184" y="62.208" width="294.32" height="300" fill="none" stroke="#000"/>
-->
</svg>
