<?xml version="1.0" encoding="UTF-8"?>
<!-- Generated by Pixelmator Pro 2.4.5 -->
<svg width="1404" height="1872" viewBox="0 0 1404 1872" xmlns="http://www.w3.org/2000/svg" xmlns:xlink="http://www.w3.org/1999/xlink">
    <path id="LeftFoot" fill="#000000" stroke="none" visibility="hidden" d="M 458.583282 1067.213135 C 458.583282 1067.213135 458.583282 1067.213135 458.583282 1067.213135 C 463.657898 1066.575928 469.101959 1067.306274 473.811432 1065.298828 C 475.340881 1064.680908 473.560364 1061.737549 474.56488 1060.441895 C 481.25116 1051.671021 492.263 1045.861328 496.475677 1035.682373 C 503.980438 1017.475281 507.839447 997.549316 508.649719 977.912842 C 509.422394 959.077271 504.956207 940.316895 501.130981 921.873779 C 500.723328 919.94519 497.579498 920.064331 496.331024 918.580322 C 495.182129 917.213257 494.56781 915.420532 494.241913 913.720337 C 491.632477 900.384644 488.658356 887.039795 487.494049 873.486206 C 486.972748 867.31311 487.022064 860.752319 489.204681 854.899658 C 493.726501 842.973267 499.176178 830.986328 507.277466 821.119873 C 517.845825 808.215942 532.423279 799.186768 544.378967 787.553589 C 549.236755 782.817993 553.750793 777.697632 557.677734 772.186523 C 562.514587 765.365601 567.319336 758.348755 570.540466 750.611206 C 572.171387 746.760376 572.200806 742.300171 571.93866 738.115601 C 571.047546 724.085571 571.614502 709.571411 567.122253 696.263794 C 565.023987 690.047485 558.644531 685.92688 553.113892 682.353149 C 545.118286 677.211426 535.054199 675.782959 527.148193 670.500244 C 525.820801 669.623657 527.555725 667.196045 528.470093 665.884521 C 531.831665 660.968384 537.951233 657.710938 539.782959 652.051758 C 542.809204 642.666382 543.030396 632.425293 542.442383 622.616455 C 542.32312 620.676147 538.47699 620.921875 537.776794 619.111572 C 537.095032 617.346191 539.174072 615.407593 538.942383 613.565063 C 538.512024 610.285156 537.384033 607.130615 535.846619 604.193237 C 534.685913 601.99353 532.98053 599.961426 530.997681 598.408081 C 526.078613 594.534912 521.104797 590.474365 515.321289 588.049072 C 510.507935 586.069214 505.071594 585.021484 499.865753 585.450562 C 497.334869 585.687988 495.152985 587.825439 493.610474 589.861572 C 491.767334 592.280396 490.412781 595.235107 490.089783 598.243286 C 488.99588 608.837036 495.548859 621.468506 489.366852 630.088745 C 485.879059 634.95166 479.621033 622.985352 474.144043 620.593384 C 469.7995 618.686035 464.716583 615.663452 460.285461 617.349609 C 456.659332 618.709961 455.555573 623.917236 455.190674 627.780273 C 454.25589 637.472412 455.53775 647.315063 456.494751 657.027222 C 458.105347 673.330444 471.083588 691.581787 462.898285 705.773315 C 451.242462 725.971191 423.904358 731.417725 405.38501 745.597412 C 401.786316 748.359619 398.736237 752.104126 396.912506 756.241699 C 394.892609 760.878174 395.645752 766.329834 394.198303 771.15271 C 392.715668 776.199463 389.03241 780.513428 388.171936 785.675415 C 386.508118 795.609619 385.007843 805.948608 386.73584 815.872314 C 387.636597 821.003052 394.321564 823.587158 395.649872 828.597534 C 401.20459 849.533813 405.166626 871.009521 407.083862 892.578613 C 408.424316 907.630493 406.630005 922.797729 405.366608 937.854614 C 404.868835 943.655151 403.780914 949.484497 401.81778 954.986572 C 400.189423 959.517334 395.69165 962.851563 394.721619 967.587036 C 392.501831 978.269043 391.378021 989.397339 392.445984 1000.268738 C 394.0914 1017.133362 398.646912 1033.607422 402.797424 1050.087769 C 404.028839 1054.980103 405.156921 1060.33252 408.48822 1064.062866 C 414.60498 1070.957642 422.18927 1076.68457 430.292053 1081.050415 C 432.530518 1082.239258 435.630524 1081.143921 437.846832 1079.881836 C 439.501495 1078.952026 439.225433 1076.028198 440.852905 1075.057007 M 437.13385 1065.204346 C 437.13385 1065.204346 437.13385 1065.204346 437.13385 1065.204346 C 429.654663 1057.028076 420.454803 1050.123169 414.701111 1040.674194 C 407.873566 1029.461182 403.068542 1016.907776 399.992706 1004.178955 C 398.809357 999.32019 401.02594 994.238281 402.288727 989.4375 C 407.290375 970.358032 414.307556 951.824707 418.754517 932.602661 C 420.379242 925.667236 421.36264 918.310059 420.401276 911.216064 C 415.500427 874.944702 405.57074 839.449951 401.278015 803.142456 C 400.122925 793.509644 399.757294 782.878296 404.169067 774.293091 C 411.493835 759.979126 423.142181 748.051758 435.028656 737.231567 C 437.669128 734.856567 442.627289 738.34729 445.679688 736.538452 C 453.007233 732.113281 457.786743 724.321655 464.738068 719.315186 C 467.416382 717.447998 470.832825 716.695557 474.079346 716.273682 C 475.961456 716.036377 477.865082 718.09314 479.642181 717.42749 C 481.405762 716.767334 481.286346 713.570679 483.049927 712.910522 C 484.827026 712.244995 486.749054 714.399048 488.612762 714.064453 C 491.93985 713.505249 495.368866 712.434082 498.023834 710.366821 C 503.423615 706.092041 507.155029 700.031982 512.346924 695.527466 C 513.671753 694.364258 515.542358 693.399048 517.277649 693.640137 C 521.045349 694.158691 524.852051 695.550659 527.940918 697.75647 C 533.206543 701.541992 538.505188 705.784912 541.884827 711.326416 C 547.026978 719.766602 550.947327 729.171875 552.971802 738.819336 C 553.988586 743.641235 552.704895 748.921265 550.743042 753.429565 C 546.836609 762.33313 542.033569 771.076538 535.716736 778.495361 C 534.491821 779.931763 531.492737 776.329834 530.118591 777.616943 C 523.415283 783.988525 519.902039 793.204712 513.352234 799.723145 C 506.425812 806.708008 496.839844 810.685181 490.044495 817.77417 C 488.266998 819.643433 490.090149 823.14563 488.841217 825.429199 C 484.986206 832.21936 478.92337 837.598877 475.036835 844.401855 C 471.503937 850.538818 468.900848 857.241699 466.721649 863.983398 C 464.96109 869.455933 463.467133 875.135132 463.275391 880.86438 C 462.743225 897.5625 463.12558 914.30957 464.56601 930.942871 C 464.847961 934.282715 466.512482 937.534668 468.432159 940.317627 C 469.536865 941.912109 473.076538 941.633057 473.281555 943.591064 C 474.349304 954.043457 470.192352 964.723145 471.953461 975.05249 C 472.827057 980.141846 480.07489 982.655762 480.83139 987.739868 C 482.113037 996.222168 479.742157 1004.924377 477.689911 1013.236633 C 477.05484 1015.900024 473.780212 1017.275452 472.919464 1019.820557 C 471.069763 1025.486938 471.586884 1031.714111 469.718994 1037.335571 C 468.80484 1040.059326 466.812866 1042.381836 464.788422 1044.455566 C 458.903046 1050.338867 452.755951 1056.015137 446.097137 1061.007446 M 382.807037 767.540039 C 382.807037 767.540039 382.807037 767.540039 382.807037 767.540039 C 383.993896 762.978882 386.280396 758.54895 386.345215 753.813721 C 386.401276 750.494507 384.727966 747.29834 383.168152 744.370117 C 382.111725 742.390015 380.903534 739.529175 378.659576 739.388916 C 376.762817 739.266113 376.979248 743.207886 375.224854 743.916748 C 373.402802 744.600464 370.973938 741.762085 369.473694 742.996094 C 365.835022 745.983276 362.381134 750.20459 361.888367 754.903809 C 361.42572 759.172363 364.102997 763.532227 366.92984 766.786011 C 368.910767 769.072876 372.25705 770.180054 375.280212 770.319214 M 404.1008 737.69165 C 404.1008 737.69165 404.1008 737.69165 404.1008 737.69165 C 408.006409 728.578979 414.896667 720.248047 415.826477 710.349121 C 416.461548 703.865356 412.991333 696.895142 408.429657 692.144897 C 404.641266 688.234009 397.938477 684.401123 392.991211 686.713623 C 386.573395 689.673218 383.750275 697.87793 381.566193 704.568604 C 379.596588 710.75415 380.318481 717.578979 380.993744 724.00354 C 381.226715 726.212036 382.679779 728.241333 384.243927 729.807373 C 387.399139 732.980225 391.133484 735.604858 394.903229 738.006348 C 396.266693 738.868408 397.900024 739.62146 399.51239 739.545532 M 436.123383 707.381348 C 436.123383 707.381348 436.123383 707.381348 436.123383 707.381348 C 439.376373 698.42749 445.140259 690.028687 445.900238 680.564331 C 446.352539 674.573364 443.447754 668.316284 439.571503 663.812256 C 436.672302 660.431274 431.503387 659.85083 427.197784 658.765259 C 422.765625 657.625366 418.090149 656.427246 413.583496 657.149292 C 412.007477 657.367065 411.375793 659.663086 411.183167 661.258667 C 410.344818 667.66687 409.971222 674.202148 410.547577 680.666748 C 410.851959 683.997437 411.989594 687.305298 413.760895 690.148071 C 415.59079 693.071411 419.62262 694.373047 421.061401 697.506836 C 422.495911 700.642944 420.006012 704.893188 421.862976 707.805542 C 423.479889 710.344116 427.038605 711.627441 430.015778 711.523193 M 490.527252 675.040161 C 490.527252 675.040161 490.527252 675.040161 490.527252 675.040161 C 490.581207 672.401978 490.039948 669.637695 490.648163 667.037476 C 491.136688 665.008789 492.18808 662.961548 493.705597 661.510986 C 494.204132 661.04834 495.31839 661.539673 495.653809 662.136841 C 496.69632 663.965942 497.437836 666.073242 497.512787 668.188477 C 497.756439 674.788086 498.324982 681.570068 496.57663 687.92749 C 495.900726 690.450928 493.018036 691.876831 490.674957 692.980713 C 487.42807 694.554443 480.227905 699.2948 480.201843 695.694458 M 511.415802 645.250732 C 511.415802 645.250732 511.415802 645.250732 511.415802 645.250732 C 511.271118 647.664307 513.201111 653.425415 510.963409 652.445801 C 507.458069 650.983765 505.225739 646.391113 505.176605 642.591187 C 505.155426 640.350098 508.691925 637.874268 510.780762 638.757568"/>
    <path id="RightFoot" fill="#000000" stroke="none" d="M 855.616943 1625.259644 C 855.616943 1625.259644 855.616943 1625.259644 855.616943 1625.259644 C 859.547791 1563.787109 868.378601 1502.485107 867.410034 1440.841309 C 866.790222 1401.720093 851.350098 1363.790527 850.972656 1324.736938 C 850.442566 1270.525024 858.430115 1216.512695 864.636658 1162.55542 C 866.961487 1142.759277 875.197327 1123.7146 876.539063 1103.819336 C 877.063416 1095.004639 867.749939 1086.69165 870.213135 1078.416992 C 876.080444 1057.849609 893.371338 1042.095581 900.094604 1021.845154 C 907.551208 999.642456 903.4328 974.341614 912.201599 952.60199 C 914.093994 948.033142 923.488281 959.124268 926.893555 955.432251 C 953.967468 926.959595 982.61908 897.847351 998.544861 861.968323 C 1013.989136 826.944336 1016.642273 787.161011 1018.460999 749.039551 C 1019.988159 716.99292 1015.68811 684.485596 1008.34552 653.209595 C 1006.929077 647.164673 995.45343 647.996704 993.353333 642.062134 C 989.715149 631.787231 995.981323 619.659546 992.783936 609.206665 C 990.436035 601.552856 983.90686 595.588135 977.638916 590.842896 C 969.499268 584.535156 956.498474 584.826172 950.403442 576.701538 C 946.697754 571.746826 956.794739 563.531372 953.415894 558.444702 C 941.905823 540.928467 910.48291 534.930786 909.171875 514.119995 C 907.786865 492.512573 947.117554 483.239502 947.270142 461.671631 C 947.346741 446.751831 924.185364 441.057251 909.647461 437.66626 C 901.395691 435.872925 893.23175 442.975586 886.356201 447.904175 C 882.74762 450.519409 882.860779 462.71521 879.716492 459.518555 C 854.964294 434.28479 841.838135 398.726318 815.255554 375.554932 C 809.569763 370.57251 800.861755 380.873657 794.982117 385.565674 C 791.502258 388.294067 791.34491 400.433594 788.414124 397.150757 C 761.678894 367.092773 749.609131 323.830322 717.950134 298.904541 C 708.068542 291.151123 693.868835 307.310181 683.683777 314.734009 C 679.436096 317.772949 677.134949 323.500732 676.625671 328.668945 C 673.531067 360.357422 664.132935 393.436279 672.911438 423.966675 C 677.105957 438.483276 696.145447 446.342285 711.077576 448.415039 C 724.370056 450.156738 737.341736 441.276855 748.924683 434.446533 C 758.461548 428.939453 763.891663 417.977417 773.027283 411.804688 C 774.846558 410.574707 778.182739 411.872192 779.343872 413.885132 C 784.629822 422.83374 789.647827 432.550903 791.335999 442.953247 C 792.268127 448.862671 786.105957 454.329224 786.753357 460.353638 C 787.622681 468.770386 788.572266 479.637085 795.637573 484.225952 C 808.084595 492.432007 824.217896 496.004395 839.023132 494.652954 C 845.159363 494.158936 844.165588 482.650146 849.467041 479.516602 C 855.606201 475.877319 865.047791 471.731567 870.617432 476.098511 C 876.801086 481.045532 875.65564 491.599121 874.557678 499.48645 C 873.613037 506.319824 871.512268 516.597046 864.722351 517.520874 C 812.838806 524.753784 759.703796 528.685303 707.731812 522.884033 C 691.874939 521.019287 683.404846 501.283203 668.72876 495.134888 C 645.325867 485.402588 619.847656 481.13855 595.06311 475.601074 C 579.741943 472.196899 564.222778 469.038696 548.555176 468.420044 C 543.114014 468.136841 537.423706 469.939087 532.905518 472.923584 C 523.841064 479.067871 518.882996 490.830444 508.916046 495.354126 C 503.427002 497.737549 497.163239 490.341187 491.32959 491.706421 C 475.917786 495.120239 460.25589 500.125488 447.341614 509.147461 C 430.635132 521.024658 416.791168 536.876465 404.47229 553.266968 C 389.091095 573.708008 371.290466 594.300415 364.767639 618.936646 C 358.316864 643.875122 368.163574 670.334961 367.141541 695.893188 C 366.867371 702.952637 356.952881 710.431641 361.046265 716.223511 C 397.167145 767.137817 445.47522 808.827148 482.733215 858.953491 C 514.639954 901.976624 541.417664 948.395081 567.996094 994.893799 C 575.905273 1008.737671 583.590149 1023.500305 585.852295 1039.294678 C 588.888916 1060.730957 579.069092 1083.226318 583.585205 1104.394287 C 585.930847 1115.358887 603.986145 1118.980713 605.321655 1130.1875 C 608.433289 1157.052246 603.84552 1185.0448 596.002991 1210.876709 C 583.332275 1253.217163 563.903137 1293.158813 544.316528 1332.669312 C 537.768494 1345.90271 521.033936 1353.820923 518.022278 1368.272705 C 513.049805 1392.282959 526.923767 1417.777954 521.651978 1441.743164 C 517.600098 1460.254272 495.692719 1471.255859 491.299286 1489.739258 C 488.786255 1500.019531 497.352722 1510.453857 502.980957 1519.42981 C 538.30896 1575.957642 569.676025 1635.741455 613.825989 1685.564697 C 641.190613 1716.525757 678.474426 1737.194946 714.177795 1757.840454 C 727.163147 1765.332275 742.915771 1770.050049 757.850403 1768.814331 C 773.554626 1767.598389 790.225037 1761.854858 801.594727 1750.974731 C 813.119751 1739.866577 813.682007 1721.2771 821.779785 1707.417847 C 828.958801 1695.4198 841.87439 1686.891846 847.241455 1673.97229 M 577.357788 1476.972412 C 577.357788 1476.972412 577.357788 1476.972412 577.357788 1476.972412 C 575.653625 1470.215454 576.126465 1462.746948 572.346375 1456.994141 C 569.082275 1452.026611 558.716614 1452.575806 557.514526 1446.775024 C 555.776917 1438.543579 564.16748 1431.017822 565.078064 1422.543945 C 567.219482 1403.482178 562.337463 1383.619141 566.587341 1364.862671 C 570.908142 1346.077637 579.204407 1327.836914 590.229126 1311.968994 C 595.160156 1304.84729 607.910156 1305.9823 612.527466 1298.658813 C 618.873352 1288.815063 618.102356 1275.893555 620.469299 1264.349609 C 623.857666 1247.760742 628.884705 1231.337402 629.880432 1214.557861 C 632.619751 1166.635986 638.688354 1117.864014 631.532043 1070.466797 C 626.110596 1034.773682 608.607239 1001.811646 592.658875 969.380249 C 587.826294 959.588074 574.638245 955.485901 570.017944 945.442139 C 567.507141 940.004883 574.036804 933.893188 573.574707 927.959412 C 573.128357 922.513794 570.746521 917.191711 567.484009 912.883728 C 560.846313 904.152039 550.16095 898.873108 544.404114 889.620056 C 538.918762 880.751831 536.219421 870.263489 534.616882 859.991943 C 533.23407 851.122559 542.037292 839.459839 535.620728 833.118408 C 525.760864 823.372681 506.516022 830.319824 495.748688 821.766479 C 467.044312 798.790405 437.037415 773.858398 420.531708 740.989868 C 411.625977 723.24707 421.105316 701.055054 425.410767 681.781494 C 430.289917 659.792114 437.677429 638.11377 447.732544 617.839844 C 454.80545 603.899902 463.699921 589.884277 476.199127 580.36731 C 488.72699 570.839111 504.338593 563.703613 520.05835 562.812866 C 536.674194 561.889038 553.612793 567.618286 568.3927 575.210693 C 591.048462 586.901123 605.264099 616.559448 630.581909 619.730835 C 680.161743 625.67041 729.446228 603.938843 779.365662 600.975098 C 790.99823 600.245361 802.731384 603.941528 813.45636 608.540161 C 824.381531 613.225464 833.622498 621.070801 843.146301 628.141846 C 854.783325 636.840698 868.84845 643.564941 876.750732 655.590332 C 880.115295 660.682861 872.605286 667.521606 873.039185 673.632446 C 873.457397 679.089722 875.881897 684.394531 879.130005 688.707886 C 885.667725 697.314453 899.126343 701.473022 902.011292 712.052124 C 913.954102 755.861328 926.844971 801.605957 922.158997 846.675293 C 918.92218 878.421326 896.870972 905.527161 879.347412 932.128418 C 868.863098 947.943176 848.511902 956.000244 839.21344 972.660889 C 831.909241 985.536926 836.996033 1002.671814 831.732056 1016.543518 C 823.675232 1037.997192 807.216125 1055.563965 799.657593 1077.145386 C 787.72821 1111.411865 778.40918 1146.773804 773.577698 1182.639404 C 766.525696 1235.445923 770.144653 1289.237549 764.161499 1342.109131 C 761.979309 1361.684326 749.352173 1379.523926 749.235596 1399.258057 C 748.925537 1437.264648 761.374023 1474.585571 762.858032 1512.529785 C 764.835388 1561.193359 763.466248 1609.886353 759.589539 1658.433105 C 757.922058 1678.462769 754.076599 1698.875244 746.350952 1717.545776 C 744.415588 1722.132324 737.46051 1724.611084 732.557678 1723.449829 C 716.281372 1719.769409 701.059631 1712.02417 686.433533 1703.870483 C 670.681885 1695.182495 655.096741 1685.433105 641.909485 1673.224731 C 623.278992 1655.938232 605.782471 1637.036133 591.639099 1615.95105 C 582.74939 1602.668945 575.390076 1587.443604 573.740295 1571.567505 M 651.782227 384.199097 C 651.782227 384.199097 651.782227 384.199097 651.782227 384.199097 C 649.025391 373.567139 644.717346 363.231689 643.511536 352.304565 C 640.643555 326.002563 647.908997 297.921997 639.575745 272.834961 C 636.467834 263.503906 622.711975 259.798096 613.002502 260.577515 C 597.441101 261.736816 580.625854 267.04126 569.599243 278.11377 C 557.152222 290.421387 556.924744 311.026001 547.562744 325.891846 C 545.381348 329.419434 538.022217 334.543579 536.22937 330.802124 C 531.582031 321.099609 537.121887 308.935181 534.494385 298.583374 C 529.412048 278.634521 524.796509 257.670532 513.302002 240.643677 C 501.292145 222.83252 485.778809 205.113037 465.997864 197.058105 C 447.073242 189.31958 422.40976 185.884888 404.643585 196.040527 C 380.083405 209.93457 359.477112 234.802734 351.524994 262.001709 C 341.248932 296.592529 350.052979 334.391968 353.082703 370.38916 C 353.944885 380.793823 357.285858 391.519897 363.19751 400.214844 C 381.004547 426.43689 401.837708 450.608276 423.379303 473.832153 C 429.52655 480.447754 436.795227 490.41394 445.720276 489.124268 C 469.520538 485.960205 496.129059 479.510742 512.273682 461.738037 C 528.518372 443.92688 510.763794 399.983032 533.723877 392.691528 C 553.084839 386.523071 549.36908 432.028442 564.766296 445.162231 C 576.078674 454.818237 593.253052 454.662231 608.040894 456.296509 C 613.4552 456.922119 619.000549 454.515991 623.690613 451.793335 C 630.654602 447.656738 639.142334 443.565308 642.292603 436.171875 M 456.469635 229.527344 C 456.469635 229.527344 456.469635 229.527344 456.469635 229.527344 C 457.505463 236.718018 466.362091 248.689941 459.520538 250.958374 C 446.604828 255.349609 430.14035 250.752563 419.58606 242.113281 C 414.687592 238.136963 429.253479 233.244507 435.270447 231.144653"/>
</svg>
