<?xml version="1.0" ?>
<svg xmlns="http://www.w3.org/2000/svg" xmlns:ev="http://www.w3.org/2001/xml-events" xmlns:xlink="http://www.w3.org/1999/xlink" baseProfile="full" height="600px" version="1.1" viewBox="159.11603794740714 66.21535937499996 472.5213821962285 481.03803125000036" width="590px">
	<defs/>
	<path d="M 284.0625,106.46875 C 280.8815,106.46875 278.062277,107.904246 276.15625,110.15625 L 267.15625,108.75 C 264.83625,108.38 262.749991,110.151 262.75,112.5 L 262.75,113.0625 L 257.15625,113.0625 C 239.38625,113.0625 222.783045,120.98351 211.625,134.8125 C 200.468,148.6415 196.242981,166.540243 200.0,183.90625 L 222.90625,289.84375 C 221.46125,290.24775 220.225272,291.134305 219.40625,292.40625 C 218.51925,293.78325 218.216518,295.399979 218.5625,297.0 L 229.75,348.78125 C 235.683,376.20725 260.346247,396.093709 288.40625,396.09375 L 294.625,396.09375 L 294.625,449.6875 C 294.625,481.2995 321.473735,506.99998 354.46875,507.0 C 378.49275,507.0 400.10731,493.326253 409.53125,472.15625 L 409.8125,471.5625 L 467.21875,271.03125 C 472.39275,255.01025 488.450464,243.812525 506.3125,243.8125 C 528.8315,243.8125 547.156281,261.020284 547.15625,282.15625 L 547.15625,331.78125 C 532.199251,335.93525 521.218786,349.626208 521.21875,365.90625 C 521.21875,385.479251 537.084269,401.343801 556.65625,401.34375 C 576.229251,401.34375 592.093699,385.478231 592.09375,365.90625 C 592.09575,349.62525 581.113216,335.935277 566.15625,331.78125 L 566.15625,282.15625 C 566.15625,250.54425 539.307536,224.81248 506.3125,224.8125 C 479.813499,224.8125 456.796478,241.116984 449.0625,265.375 L 391.90625,465.0 C 385.39525,478.996 370.775731,487.99999 354.46875,488.0 C 331.94975,488.0 313.62499,470.823568 313.625,449.6875 L 313.625,396.09375 L 319.84375,396.09375 C 347.901751,396.09375 372.565013,376.207357 378.5,348.78125 L 389.6875,297.0 C 390.0335,295.398 389.730726,293.784221 388.84375,292.40625 C 388.02475,291.13525 386.786824,290.247757 385.34375,289.84375 L 408.28125,183.90625 C 412.03825,166.54025 407.782995,148.64152 396.625,134.8125 C 385.467,120.9835 368.863647,113.06249 351.09375,113.0625 L 345.53125,113.0625 L 345.53125,112.5 C 345.53125,110.151 343.413757,108.379993 341.09375,108.75 L 332.09375,110.15625 C 330.18775,107.90425 327.399736,106.46877 324.21875,106.46875 C 315.61975,106.46875 315.619756,127.24999 324.21875,127.25 C 327.39975,127.25 330.187784,125.783234 332.09375,123.53125 L 341.09375,124.96875 C 343.41375,125.33875 345.531239,123.5365 345.53125,121.1875 L 345.53125,120.65625 L 351.09375,120.65625 C 366.55475,120.65625 381.0097,127.559738 390.71875,139.59375 C 400.42675,151.62575 404.112823,167.170258 400.84375,182.28125 L 377.9375,288.21875 C 374.7585,287.72875 371.688066,289.785745 371.0,292.96875 L 359.8125,344.71875 C 355.7705,363.40675 338.963818,376.968745 319.84375,376.96875 L 288.4375,376.96875 C 269.3165,376.96875 252.479533,363.406799 248.4375,344.71875 L 237.25,292.96875 C 236.903,291.36775 235.970774,289.980721 234.59375,289.09375 C 233.32075,288.27475 231.794525,287.988728 230.3125,288.21875 L 207.40625,182.28125 C 204.13725,167.17025 207.854524,151.625743 217.5625,139.59375 C 227.2705,127.56075 241.695221,120.65625 257.15625,120.65625 L 262.75,120.65625 L 262.75,121.1875 C 262.75,123.5365 264.836263,125.338757 267.15625,124.96875 L 276.15625,123.53125 C 278.06225,125.78325 280.881453,127.250001 284.0625,127.25 C 292.6615,127.25 292.661494,106.46876 284.0625,106.46875 M 547.15625,343.21875 L 547.15625,353.34375 C 543.51325,356.18275 541.156228,360.597532 541.15625,365.5625 C 541.15625,374.1085 548.11027,381.06252 556.65625,381.0625 C 565.20225,381.0625 572.15625,374.108439 572.15625,365.5625 C 572.15625,360.5975 569.799235,356.181676 566.15625,353.34375 L 566.15625,343.21875 C 574.83325,346.92375 580.906217,355.547574 580.90625,365.5625 C 580.90625,378.9465 570.0413,389.84374 556.65625,389.84375 C 543.27125,389.84375 532.375,378.946472 532.375,365.5625 C 532.375,355.5475 538.479207,346.922691 547.15625,343.21875" fill="black"/>
</svg>
