<?xml version="1.0" ?>
<svg xmlns="http://www.w3.org/2000/svg" xmlns:ev="http://www.w3.org/2001/xml-events" xmlns:xlink="http://www.w3.org/1999/xlink" baseProfile="full" height="600px" version="1.1" viewBox="204.78498148691665 65.2221468382588 381.61897660853793 479.46184838459897" width="478px">
	<defs/>
	<path d="M 361.5625,105.34375 C 361.1245,105.65875 360.472968,105.683776 360.0,105.96875 C 358.631,106.79475 357.245979,108.098252 356.875,109.90625 C 356.627,111.11425 357.625484,112.025223 357.9375,112.78125 C 358.5835,114.34825 358.203801,117.434519 357.21875,118.1875 C 353.33175,121.1595 351.119147,114.060994 347.15625,116.5 C 344.34625,118.229 344.313121,122.839478 341.5,124.5625 C 338.561,126.3625 334.460265,123.208754 332.28125,126.34375 C 331.00325,128.18275 332.114462,130.289747 331.5625,132.71875 C 331.1475,134.54375 330.386257,135.967507 328.78125,136.5625 C 326.39525,137.4465 324.63126,135.728984 323.03125,135.125 C 321.75925,134.645 320.051745,134.271257 318.46875,134.28125 C 317.36675,135.36825 316.116028,136.61425 314.375,137.03125 C 312.29,137.53025 309.920994,136.338249 308.5,137.40625 C 305.891,138.34425 307.55274,143.294488 306.09375,145.3125 C 305.51375,146.1145 304.332756,146.616005 303.21875,146.875 C 302.17575,147.117 301.228763,146.683988 300.59375,147.25 C 299.11975,147.758 299.826277,149.512769 299.28125,150.96875 C 298.58425,152.83175 296.621232,153.593247 295.65625,155.15625 C 295.34925,155.65425 295.161512,156.550511 295.5625,157.0625 C 296.6405,160.0155 301.624747,157.234977 303.84375,158.75 C 305.57675,159.933 304.190498,162.014246 304.1875,164.03125 C 304.4675,164.39125 304.751257,164.764997 305.03125,165.125 C 306.61525,166.314 308.482299,166.904512 308.28125,169.5625 C 307.61725,170.1865 307.156732,170.736992 306.09375,171.0 C 304.44175,171.408 302.498482,170.605244 301.3125,170.28125 C 297.9635,169.36725 293.062768,169.622777 291.46875,171.84375 C 289.70575,174.30175 292.371255,177.334992 292.90625,179.5 C 292.86625,180.82 292.821255,182.148731 292.78125,183.46875 C 292.78025,184.71375 293.193514,186.23049 292.5625,187.0625 C 292.1175,188.2935 290.442496,188.079977 289.4375,188.75 C 288.2465,189.544 287.737511,190.896276 286.0625,191.28125 C 284.3245,191.68125 283.521519,189.996964 282.9375,189.125 C 281.9465,187.646 279.034781,183.576492 276.09375,184.3125 C 274.88975,184.6135 273.556743,185.421753 273.09375,186.46875 C 272.69775,187.36475 273.008032,188.331731 272.75,189.46875 C 272.404,190.99275 271.804715,192.528512 270.71875,193.3125 C 269.89875,193.9035 268.163057,194.322249 266.75,193.90625 C 266.217,193.74925 265.364727,193.312499 264.46875,193.5625 C 263.39875,193.8605 262.612743,194.925767 261.71875,195.46875 C 260.36475,196.29275 258.602035,196.490265 257.375,197.40625 C 257.039,197.65725 256.928229,198.14873 256.65625,198.46875 C 256.65625,198.96875 256.680257,199.192525 256.90625,199.4375 C 257.22925,200.2885 258.057731,200.236025 258.84375,200.625 C 259.88675,201.141 260.591021,201.729233 261.0,202.90625 C 261.172,203.40025 261.325997,203.979709 261.0,204.46875 C 260.536,206.79975 256.967491,206.219538 256.1875,208.3125 C 255.0385,211.3945 258.934053,214.382266 260.875,214.90625 C 262.558,215.36125 263.691727,214.174781 264.71875,213.84375 C 265.39775,213.62475 266.069014,213.80171 266.75,213.84375 C 267.11,214.12375 267.483686,214.407496 267.84375,214.6875 C 268.98975,216.3685 267.594752,218.309772 267.21875,219.84375 C 266.79275,221.58375 267.919454,222.396496 268.1875,223.4375 C 268.4475,224.4465 267.644774,225.423513 267.46875,226.1875 C 267.30975,226.8755 267.612746,227.644983 267.71875,228.125 C 268.11075,229.9 267.104262,231.470811 266.15625,231.96875 C 262.60325,233.83575 260.679204,229.344255 257.15625,230.15625 C 255.15825,230.61625 252.550268,232.057492 253.65625,235.0625 C 254.29125,236.7875 257.467019,240.301985 260.375,239.625 C 261.854,239.281 263.886246,237.636213 265.65625,238.78125 C 267.95525,240.26825 266.728276,244.327269 269.28125,245.40625 C 272.50725,246.76925 279.706738,246.58219 279.46875,250.78125 C 278.75975,251.44725 278.346457,251.977958 277.1875,252.25 C 275.1275,252.733 272.878509,251.591733 271.1875,252.34375 C 269.3475,253.16175 269.424046,256.305271 266.5,257.03125 C 264.386,257.55625 263.05445,255.653021 261.9375,255.0 C 260.4055,254.104 257.94225,255.087774 256.90625,255.84375 C 256.54725,256.10575 256.371486,256.588281 256.0625,256.90625 C 256.0625,257.26625 256.0625,257.639956 256.0625,258.0 C 256.4565,258.391 256.70527,258.983506 257.15625,259.3125 C 257.89525,259.8505 260.329502,261.218524 259.1875,262.6875 C 258.3965,265.0275 253.181812,263.226262 252.21875,266.03125 C 251.42275,267.16425 252.437479,268.839969 252.9375,269.5 C 253.5425,270.298 255.558525,271.616288 256.4375,272.28125 C 257.9645,273.43625 258.913261,275.136714 260.15625,276.59375 C 260.17025,279.31275 257.888478,278.771767 256.3125,279.84375 C 255.0105,280.72975 254.302757,282.290737 252.71875,282.96875 C 251.34775,283.55575 249.256247,282.969505 247.90625,283.5625 C 247.49025,285.2345 248.451018,285.958993 248.75,287.5 C 249.103,289.322 247.32621,290.918278 248.28125,292.78125 C 249.08625,294.35225 250.935762,294.06272 252.84375,294.59375 C 253.92375,294.99375 254.98248,295.381303 256.0625,295.78125 C 256.8355,295.97325 258.254741,295.814459 258.84375,295.6875 C 259.80375,295.6075 260.758755,295.51751 261.71875,295.4375 C 262.90475,295.1255 264.270526,294.667718 265.4375,294.34375 C 268.0415,293.62075 271.170304,293.359509 272.28125,295.5625 C 272.43425,295.8655 272.699015,296.716731 272.5,297.34375 C 272.056,298.74175 270.401224,299.59902 269.15625,300.25 C 266.86825,301.447 261.717999,303.291285 260.375,305.15625 C 258.69,307.49725 260.704234,310.981988 257.15625,311.875 C 253.37925,312.825 252.390227,307.15227 248.28125,308.40625 C 247.77725,308.56025 247.13276,308.94298 246.71875,309.25 C 245.72375,309.989 244.887562,311.689508 244.5625,313.0625 C 244.1015,315.0155 244.848496,316.539013 243.9375,318.0 C 243.3365,318.963 242.133492,319.799286 240.9375,320.15625 C 239.6895,320.52825 238.403774,320.360979 237.59375,321.125 C 237.09675,321.594 236.365045,322.783017 237.0,323.625 C 237.446,324.874 238.997779,325.060519 240.21875,325.5625 C 241.87575,326.2435 244.117259,327.132506 244.90625,328.6875 C 246.28125,331.3975 242.717753,332.492275 243.46875,335.28125 C 244.01875,337.32325 246.065706,338.122711 246.84375,339.96875 C 247.34875,341.16675 247.319274,342.604464 248.28125,343.3125 C 249.75425,344.3965 254.204476,343.497476 256.1875,343.0625 C 258.2615,342.6075 260.664754,343.315097 261.09375,344.625 C 261.38075,345.018 261.257741,345.300742 261.21875,345.84375 C 260.91675,346.15775 260.736015,346.659263 260.375,346.90625 C 258.658,348.07625 255.932189,347.987725 254.03125,348.96875 C 252.50025,349.75875 251.262743,351.029738 249.59375,351.71875 C 247.54275,352.56475 243.804301,353.447095 244.78125,356.75 C 245.38925,358.804 248.048052,359.227441 248.625,361.3125 C 249.152,363.2165 247.129213,364.524015 248.28125,366.25 C 249.92625,368.713 255.995237,367.010427 257.03125,370.0625 C 258.15625,371.5645 256.493713,373.266333 255.71875,374.03125 C 253.84075,375.88525 249.537248,378.996272 251.28125,383.15625 C 251.99925,384.86825 254.515227,386.403464 257.15625,385.3125 C 258.06525,384.9375 258.769477,384.116048 259.5625,383.625 C 260.3705,383.125 261.293736,382.923543 261.84375,382.1875 C 262.42075,381.4155 262.80402,380.419299 263.625,379.90625 C 264.288,379.49225 265.058246,379.632562 265.90625,379.6875 C 266.43225,380.1965 267.153752,380.532929 267.46875,381.25 C 268.11975,382.734 267.825281,384.071812 269.28125,384.71875 C 270.12125,384.95875 270.941209,385.197532 271.78125,385.4375 C 274.04425,385.9575 276.367495,383.775001 277.5625,386.5 C 278.1295,387.793 277.51323,389.4825 277.90625,391.0625 C 278.46725,393.3145 280.818032,394.582434 278.75,397.3125 C 277.812,398.5505 275.390244,398.543748 274.65625,399.96875 C 273.55825,402.09975 275.381726,404.8758 276.71875,405.46875 C 279.67775,406.78075 283.211526,403.943936 286.3125,405.25 C 288.4435,406.147 289.445503,408.21093 292.4375,408.0 C 292.8315,407.61 293.422047,407.357302 293.75,406.90625 C 294.259,406.20625 294.600475,405.35306 295.3125,404.875 C 296.2985,404.213 297.762279,404.115387 298.78125,403.5625 C 299.87425,402.9695 301.551991,402.023469 303.0,403.0625 C 304.804,404.3575 304.429732,407.873507 306.34375,409.0625 C 309.01275,410.7215 311.813014,407.900764 314.5,408.71875 C 316.76,409.40675 317.111469,412.109593 319.5625,412.6875 C 321.4175,413.1255 323.796736,409.902459 324.84375,409.0625 C 325.41275,408.6065 326.695781,407.840846 327.59375,408.46875 C 332.23475,409.36275 326.20248,418.959076 331.0625,420.25 C 332.5415,420.643 334.004288,419.535341 334.90625,419.15625 C 335.98625,418.79625 337.07624,418.422463 338.15625,418.0625 C 340.28925,417.1395 341.624718,415.579024 342.84375,413.75 C 343.71475,412.444 345.621733,409.406231 348.34375,410.15625 C 350.96775,410.87925 351.534171,414.846038 352.90625,416.875 C 353.49925,417.751 354.539092,419.022449 356.375,418.5625 C 357.851,418.1925 358.63254,416.668334 359.3125,415.15625 C 366.7535,423.25825 379.062476,437.593709 379.0625,437.59375 C 379.0625,437.59375 383.9375,442.313456 383.9375,448.4375 C 383.9375,456.9765 383.9375,469.790899 383.9375,474.0 C 383.9375,488.456999 373.593709,504.531214 373.59375,504.53125 C 373.59375,504.53125 416.114319,504.557495 418.40625,504.5625 C 415.82025,504.5525 407.187465,483.089419 407.1875,471.3125 C 407.1875,469.6925 407.1875,459.277222 407.1875,446.15625 C 407.1875,443.82525 425.174276,425.619268 439.28125,412.40625 C 440.11125,413.56225 441.086494,414.664574 441.9375,415.1875 C 443.3965,416.0835 444.751199,415.126673 445.65625,414.46875 C 446.93425,413.53875 447.672302,412.055002 449.03125,411.25 C 449.91925,410.724 450.847251,410.768998 452.03125,410.5 C 452.33425,410.431 453.104752,410.292357 453.59375,410.40625 C 455.01875,410.73825 455.99279,411.380211 456.34375,412.78125 C 456.78375,414.53625 455.545786,415.922688 456.71875,417.34375 C 457.36875,418.13175 459.368628,418.29081 460.5625,417.84375 C 462.3905,417.15975 463.230989,415.638751 464.625,414.59375 C 465.005,414.30875 465.473734,414.175055 465.84375,413.875 C 467.58275,413.915 470.622695,415.723036 471.09375,417.0 C 471.46875,418.015 470.765747,419.072019 471.09375,420.25 C 471.41375,421.401 472.713001,422.310998 473.875,422.625 C 475.276,423.004 476.500777,422.280346 477.21875,421.90625 C 479.77075,420.57825 482.324755,418.117379 483.34375,415.3125 C 483.79975,414.0575 483.346654,412.135031 483.84375,410.875 C 484.59275,408.976 487.34006,408.562248 488.5,407.03125 C 489.219,406.08225 489.802243,404.568318 491.03125,404.15625 C 492.37525,403.23725 493.662961,405.438634 494.75,405.71875 C 496.308,406.11975 497.647476,404.250797 499.0625,405.34375 C 501.1815,406.09775 499.915785,409.487275 501.84375,410.15625 C 503.25675,411.13625 505.109251,409.509667 505.65625,408.71875 C 507.77725,405.64975 503.158029,400.62038 506.75,398.40625 C 509.673,396.60425 513.347754,399.192192 516.71875,398.40625 C 517.67875,398.18225 518.511766,397.751448 519.21875,397.3125 C 519.98975,396.8335 520.723292,396.56102 521.03125,395.625 C 521.16825,395.425 521.167169,395.058525 521.15625,394.6875 C 520.39125,393.8935 519.705101,392.836929 518.5,392.5 C 517.111,392.112 515.814504,392.940041 514.5625,392.5 C 513.8545,392.251 513.534922,391.593534 513.0,391.1875 C 512.619,388.1035 513.764194,388.616986 514.90625,386.75 C 515.37325,385.988 515.258058,384.863938 515.625,384.0 C 516.187,382.676 517.401251,381.846334 517.78125,380.28125 C 518.25825,378.31725 516.149007,376.6119 515.75,375.125 C 515.297,373.438 516.888212,370.831496 517.65625,370.3125 C 519.86325,368.8225 523.940229,371.440814 526.65625,369.46875 C 527.63825,368.75575 528.123758,367.458771 528.84375,366.46875 C 529.59975,365.42875 531.077766,364.996751 531.84375,363.96875 C 533.04875,362.35075 533.296292,361.368525 536.03125,361.5625 C 536.37925,361.9115 536.928719,362.099992 537.21875,362.5 C 537.81375,363.322 538.280238,364.745 538.78125,365.625 C 539.28325,365.755 539.725683,366.163024 540.46875,366.0 C 542.40975,365.574 545.985308,363.940389 545.28125,361.0625 C 544.87625,359.4075 542.611374,356.623276 541.1875,356.03125 C 539.4245,355.29825 537.98478,355.818963 537.09375,354.125 C 536.78075,353.53 536.67298,352.561722 536.875,351.84375 C 537.39,350.01075 538.762713,348.842946 540.34375,348.125 C 541.63875,347.537 543.052747,347.375539 543.59375,346.0625 C 544.36875,344.1805 542.42177,341.904587 543.34375,340.5625 C 543.72375,338.4635 547.850768,338.353499 549.71875,337.5625 C 551.02975,337.0075 551.379738,336.163258 552.21875,335.15625 C 552.13875,331.82425 548.472995,332.81325 548.75,328.90625 C 549.267,328.40325 549.606479,327.681983 550.1875,327.25 C 551.5335,326.248 551.876579,325.858708 552.9375,324.59375 C 552.9605,321.28075 549.458497,321.896023 547.3125,320.75 C 546.8225,320.488 546.598753,319.936489 546.21875,319.5625 C 546.21875,319.2425 546.21875,318.913748 546.21875,318.59375 C 546.63675,318.16475 546.906491,317.599301 547.4375,317.28125 C 549.0765,316.29925 551.356761,316.323956 552.84375,315.25 C 553.90575,314.483 555.069261,311.884508 554.03125,310.1875 C 553.20425,308.8345 551.294694,307.897514 549.59375,307.4375 C 546.34475,306.5585 544.233264,308.751738 542.03125,309.46875 C 540.59125,309.70875 539.158682,309.947532 537.71875,310.1875 C 536.65975,310.5335 534.706215,311.586255 533.15625,310.90625 C 532.59125,310.65825 532.423534,310.054724 532.0625,309.59375 C 532.1675,306.71075 535.34001,306.632301 536.75,305.03125 C 537.687,303.96725 537.420416,301.700722 538.1875,300.46875 C 539.0855,299.02575 540.909221,298.34101 541.90625,297.0 C 543.64825,294.656 545.205055,288.905704 543.0,285.84375 C 542.114,284.61275 539.662734,283.205291 537.09375,283.78125 C 535.95275,284.03725 534.355341,284.796251 532.78125,284.40625 C 531.31825,284.04425 529.913442,282.864972 529.1875,281.75 C 528.9525,281.389 528.966774,280.902496 528.71875,280.5625 C 528.92575,278.2575 531.327233,278.117481 532.78125,277.0625 C 534.11025,276.0975 534.233438,274.375015 534.9375,272.75 C 535.5015,271.449 536.608014,270.351258 537.0,268.90625 C 537.266,267.92725 536.838018,266.759241 536.5,266.28125 C 536.0,265.57525 533.635417,263.797958 532.1875,264.125 C 530.8045,264.437 528.890277,265.311733 527.15625,264.59375 C 525.22425,263.79475 525.054498,261.246008 522.9375,260.75 C 522.0975,260.553 521.024429,261.071997 520.4375,261.25 C 518.7155,261.772 517.05898,262.254509 515.375,262.6875 C 514.112,263.0125 511.882953,262.647001 512.375,261.0 C 512.899,259.247 515.870594,259.143002 517.3125,258.25 C 518.5785,257.466 519.708135,256.328749 521.15625,255.71875 C 522.23625,255.47875 523.29499,255.24004 524.375,255.0 C 525.349,254.497 525.771236,253.185726 526.65625,252.59375 C 527.52425,252.01275 529.054245,252.206039 529.90625,251.625 C 530.64525,251.121 530.940769,249.982014 531.46875,249.25 C 532.69475,247.552 534.449719,247.204496 534.46875,244.1875 C 533.98275,243.6905 533.724273,243.047001 533.03125,242.75 C 530.46425,241.649 528.212743,242.431476 528.46875,238.6875 C 528.84375,238.2925 529.109538,237.650729 529.5625,237.34375 C 530.3825,236.78875 531.791208,236.519265 532.65625,236.03125 C 533.25825,233.44725 530.438843,233.295483 528.84375,232.1875 C 528.43475,231.9035 528.228,231.346988 527.875,231.0 C 527.897,228.076 530.000704,225.391242 531.84375,224.28125 C 532.79975,223.70525 533.948705,223.583765 534.84375,222.96875 C 535.52675,222.49975 536.938288,220.671705 536.03125,219.46875 C 535.32425,217.53675 531.868284,219.025302 530.28125,218.03125 C 528.29225,216.78525 529.512722,214.365958 528.34375,212.625 C 527.20175,210.924 523.50371,211.575973 522.21875,210.0 C 521.30775,208.882 521.93705,206.511703 521.875,204.71875 C 521.84,203.71075 521.353013,202.570778 522.0,201.84375 C 522.532,200.47275 524.52353,201.01999 526.0625,200.625 C 527.8955,200.155 529.323233,199.367986 530.15625,197.875 C 530.49225,197.273 530.984003,195.687979 530.375,194.875 C 529.716,193.016 526.600559,193.963995 525.9375,191.5 C 525.3365,189.267 528.793078,186.848728 527.5,183.34375 C 526.955,181.86675 525.518908,181.486715 524.375,180.59375 C 521.679,180.69275 522.143782,183.581529 519.71875,184.0625 C 517.32575,184.5375 516.287535,180.822717 514.3125,180.34375 C 512.5565,179.91775 510.240207,182.136698 508.65625,180.71875 C 506.75525,180.05575 507.815792,177.687492 507.21875,175.6875 C 507.05975,175.1545 506.636081,174.764751 506.375,174.34375 C 503.411,173.68475 500.86011,176.150557 499.65625,178.0625 C 498.60025,179.7395 498.135743,181.577522 495.59375,181.4375 C 495.01475,180.8805 494.296164,180.496992 493.90625,179.75 C 490.16625,172.583 499.626831,171.842 501.59375,167.5 C 502.97375,164.455 500.489318,163.012235 500.03125,160.78125 C 499.85525,159.92525 500.407003,159.022033 500.625,158.5 C 501.238,157.03 501.792975,155.013738 501.0,153.46875 C 500.735,152.95175 500.518272,152.421261 500.03125,152.15625 C 498.04025,151.07025 496.565664,152.954769 495.71875,153.84375 C 495.13875,154.45175 494.33652,155.00725 493.4375,155.28125 C 492.7385,155.49425 492.253011,155.393005 491.75,155.75 C 490.704,156.492 490.636738,158.085009 489.21875,158.5 C 488.72475,158.842 487.733528,158.773998 487.1875,158.5 C 486.2375,158.023 485.631543,156.944743 484.5625,156.59375 C 483.5625,156.55375 482.5625,156.508755 481.5625,156.46875 C 480.8625,156.29275 480.393058,155.837006 479.875,155.5 C 479.479,153.742 479.831742,152.104744 480.59375,150.84375 C 481.07775,150.04275 482.042556,148.741984 481.4375,147.25 C 480.8925,145.908 479.447497,144.980762 477.9375,144.59375 C 476.9955,144.35275 476.249527,144.549978 475.5625,144.125 C 474.5715,143.512 474.538972,142.337996 474.0,141.25 C 473.008,139.245 470.447533,137.342021 472.5625,134.625 C 473.8165,133.014 476.079744,133.834757 477.46875,132.84375 C 477.68075,132.69275 477.751467,132.311977 477.9375,132.125 C 477.9175,129.519 475.511091,128.04078 473.875,126.96875 C 473.344,126.62075 472.430702,125.835975 471.34375,126.125 C 470.02675,126.475 469.396723,127.804259 468.09375,128.15625 C 466.08475,128.69925 463.638091,126.701749 461.375,126.71875 C 461.059,127.02875 460.573509,127.202474 460.3125,127.5625 C 459.7335,128.3605 459.440084,129.423758 458.625,129.96875 C 458.139,130.29275 457.245676,130.400493 456.59375,130.1875 C 453.95375,129.3255 453.984235,126.302741 454.90625,123.71875 C 455.08325,123.22375 455.351306,122.274505 455.15625,121.5625 C 454.83925,120.4065 453.887853,119.231518 453.34375,118.1875 C 452.40375,116.3855 451.70397,114.789986 449.875,113.875 C 449.299,113.586 448.011703,113.254989 447.34375,113.75 C 445.52375,114.409 446.937715,117.859509 444.59375,118.5625 C 443.89175,119.0335 442.654456,118.680499 442.0625,118.3125 C 441.3155,117.8475 440.785323,116.970006 440.03125,116.5 C 437.16325,114.71 431.214025,114.591244 431.5,119.03125 C 431.687,119.21525 431.802903,119.587018 432.0,119.75 C 432.603,120.246 433.470243,120.293756 434.15625,120.71875 C 434.60625,120.99775 434.892749,121.491249 435.34375,121.78125 C 435.53675,122.58825 435.639764,123.051775 435.59375,123.96875 C 434.96975,124.62175 434.64515,125.317983 433.65625,125.625 C 432.70025,125.922 431.373601,125.581999 430.5625,126.0 C 430.2425,126.32 429.913728,126.648762 429.59375,126.96875 C 429.25675,127.21775 428.826048,127.303489 428.5,127.5625 C 425.412,127.4615 424.889598,124.769275 421.5625,125.03125 C 421.2825,125.23125 420.998703,125.425011 420.71875,125.625 C 419.94775,126.75 420.210058,128.914505 419.375,130.0625 C 418.959,130.6335 417.750019,131.363237 416.5,131.03125 C 415.973,130.89125 415.335783,130.318504 414.46875,130.5625 C 413.59475,130.8085 413.14047,131.785999 412.3125,132.125 C 410.8035,132.743 408.892791,131.500504 408.34375,130.6875 C 406.33775,127.7165 410.452243,125.802015 409.90625,123.125 C 409.70025,122.115 409.212753,121.714515 408.71875,121.0625 C 405.37875,120.9025 405.087255,124.38349 401.15625,124.1875 C 400.53525,123.6075 399.800813,123.386986 399.46875,122.5 C 399.20475,121.796 399.608714,120.806997 399.34375,120.0 C 399.22675,119.641 398.820051,119.340261 398.625,119.03125 C 392.879,117.57325 394.074761,122.633509 390.59375,124.0625 C 389.51875,124.5035 388.316988,124.149498 387.0,124.4375 C 385.512,124.7635 382.748814,125.564474 381.34375,124.6875 C 380.15075,123.9425 380.086758,121.810526 378.84375,121.1875 C 377.84375,121.1075 376.84375,121.04876 375.84375,120.96875 C 375.09875,120.75775 374.723205,120.128002 374.15625,119.75 C 374.05225,119.253 373.696233,118.476759 373.90625,117.71875 C 374.06025,117.16475 374.558072,116.563234 374.75,116.03125 C 375.269,114.58825 374.316517,112.9085 373.3125,112.5625 C 371.6795,111.5865 369.641375,114.709257 367.78125,113.28125 C 366.92925,112.96925 366.042623,111.688231 366.34375,110.28125 C 366.44575,109.80825 366.75179,108.99074 366.59375,108.34375 C 366.09975,106.31975 364.158597,105.331753 361.5625,105.34375 M 381.09375,402.71875 C 382.09875,402.94875 383.022541,403.578535 383.9375,404.3125 C 383.9375,409.8455 383.9375,415.836708 383.9375,421.34375 C 383.9365,421.34275 382.560539,424.850192 379.4375,421.90625 C 377.5205,420.09925 367.650157,410.273349 366.65625,409.28125 C 367.58225,408.04925 368.40684,406.600445 369.84375,406.0625 C 371.66675,405.3795 372.974032,407.071477 374.875,406.5625 C 376.965,406.0035 378.710801,402.174721 381.09375,402.71875 M 415.4375,406.0625 C 416.8555,406.3805 417.722287,407.230035 418.78125,407.875 C 420.79325,409.1 425.344578,410.758508 428.9375,409.9375 L 411.78125,426.5625 C 411.78125,426.5625 407.1875,429.207235 407.1875,424.65625 C 407.1875,418.99425 407.1875,413.395945 407.1875,408.25 C 409.0535,407.724 410.771535,407.337602 412.5625,406.6875 C 413.2325,406.4445 414.435519,405.837478 415.4375,406.0625" fill="black"/>
</svg>
