<?xml version="1.0" encoding="UTF-8"?>
<!-- Generated by Pixelmator Pro 3.2.3 -->
<svg width="802" height="820" viewBox="0 0 802 820" xmlns="http://www.w3.org/2000/svg" xmlns:xlink="http://www.w3.org/1999/xlink">
    <path id="Shape" fill="black" stroke="none" stroke-width="3" stroke-linecap="round" stroke-linejoin="round" d="M 265.5 779.521301 C 248.866287 779.699646 234.386139 779.434204 233 778.925537 C 231.625 778.420898 227.800003 777.829895 224.5 777.612183 C 221.199997 777.394409 216.587494 776.71759 214.25 776.108154 C 211.912506 775.498657 208.199997 774.549988 206 774 C 203.800003 773.450012 200.3125 772.609314 198.25 772.131836 C 196.1875 771.654358 190 769.684021 184.5 767.753296 C 179 765.822571 169.791229 762.146545 164.036087 759.584351 C 158.280945 757.022156 153.330933 754.550537 153.036087 754.091858 C 152.741241 753.63324 149.574997 751.79187 146 750 C 142.425003 748.20813 139.274994 746.41748 139 746.020752 C 138.725006 745.624023 137.375 744.714661 136 744 C 134.625 743.285339 133.274994 742.420044 133 742.077209 C 132.725006 741.734314 131.325638 740.707703 129.89032 739.795776 C 128.454987 738.88385 126.645691 737.502808 125.869675 736.726807 C 125.093658 735.950806 123.343018 734.719971 121.97937 733.991638 C 120.615715 733.263306 118.375 731.467041 117 730 C 115.625 728.532959 113.439606 726.766357 112.14357 726.074158 C 110.847534 725.382019 106.027954 721.056519 101.433388 716.461975 C 95.50647 710.535034 92.051292 706.066162 89.539818 701.079102 C 86.271538 694.589111 86 693.361206 86 685.072021 C 86 680.134155 86.408966 675.060425 86.908813 673.797058 C 87.408661 672.533691 88.379128 669.999146 89.065414 668.164795 C 89.751694 666.330444 90.846657 664.296204 91.498665 663.644165 C 92.150665 662.992188 93.276268 661.352295 94 660 C 94.723732 658.647705 95.816589 657.040527 96.428574 656.428589 C 97.040558 655.816589 98.656982 654.727417 100.020638 654.00824 C 101.384285 653.289063 102.724998 652.376953 103 651.981445 C 103.275002 651.585938 105.847542 650.078247 108.716759 648.631165 C 113.319305 646.309814 115.117737 646 123.991722 646 C 133.539139 646 134.41095 646.181824 141.158875 649.580017 C 145.588745 651.810852 150.407135 655.3396 153.944489 658.943481 C 157.066666 662.124329 160.718903 665.313171 162.060577 666.029785 C 163.402252 666.746338 165.625 668.532959 167 670 C 168.375 671.467041 170.625 673.259583 172 673.983398 C 173.375 674.707214 174.725006 675.614685 175 676 C 175.274994 676.385315 176.625 677.285339 178 678 C 179.375 678.714661 180.725006 679.626526 181 680.026306 C 181.274994 680.426147 187.09642 683.554321 193.936493 686.977783 C 200.776566 690.401367 209.101563 694.114563 212.436493 695.229492 C 215.771423 696.344421 220.637497 697.648865 223.25 698.128296 C 225.862503 698.607727 230.362503 699.521973 233.25 700.160034 C 236.461533 700.869629 248.012848 701.311462 263 701.297974 C 276.475006 701.285889 290.200012 700.798157 293.5 700.214172 C 296.799988 699.630188 301.299988 698.721313 303.5 698.194519 C 305.700012 697.667664 311.615692 695.861938 316.645996 694.181763 C 321.67627 692.501587 329.55127 689.241577 334.145996 686.937256 C 338.740692 684.632935 342.725006 682.421753 343 682.023499 C 343.274994 681.625244 344.625 680.714661 346 680 C 347.375 679.285339 348.725006 678.385315 349 678 C 349.274994 677.614685 350.625 676.711426 352 675.992737 C 353.375 675.274048 355.174988 673.927307 356 673 C 356.825012 672.072693 358.555359 670.754517 359.845245 670.070801 C 361.135132 669.387085 368.183868 662.834351 375.509094 655.509094 C 382.83432 648.183838 389.38382 641.135132 390.063538 639.845215 C 390.743256 638.555359 391.614685 637.275024 392 637 C 392.385315 636.724976 393.285339 635.375 394 634 C 394.714661 632.625 395.614685 631.275024 396 631 C 396.385315 630.724976 397.285339 629.375 398 628 C 398.714661 626.625 399.625244 625.275024 400.023499 625 C 400.421722 624.724976 402.632904 620.740723 404.937256 616.145996 C 407.241577 611.55127 410.501587 603.67627 412.181763 598.645996 C 413.861908 593.615723 415.66156 587.700012 416.180939 585.5 C 416.700317 583.299988 417.583527 579.25 418.143616 576.5 C 418.703674 573.75 419.60022 567 420.135925 561.5 C 420.671631 556 421.148834 548.125 421.196411 544 C 421.243958 539.875 420.792969 532.450012 420.194183 527.5 C 419.595398 522.549988 418.659943 516.25 418.115387 513.5 C 417.570831 510.75 416.700317 506.700012 416.180939 504.5 C 415.66156 502.299988 413.85907 496.37561 412.175446 491.334686 C 410.491791 486.293732 407.680511 479.318756 405.928162 475.834686 C 404.175781 472.350616 402.410522 469.274994 402.005341 469 C 401.600189 468.725006 400.247772 466.475006 399 464 C 397.752228 461.524994 396.409149 459.274994 396.015381 459 C 395.621582 458.725006 394.711395 457.375 393.992737 456 C 393.274048 454.625 391.927338 452.825012 391 452 C 390.072662 451.174988 388.739868 449.417236 388.038239 448.093872 C 387.336578 446.770477 382.819366 441.778259 378 437 C 373.180634 432.221741 368.668335 427.248779 367.972656 425.948944 C 367.277008 424.649078 364.589325 421.522064 362 419 C 359.410675 416.477936 356.70578 413.308685 355.989105 411.957214 C 355.27243 410.605743 353.927338 408.825012 353 408 C 352.072662 407.174988 350.722687 405.375 350 404 C 349.277313 402.625 347.921234 400.825012 346.98645 400 C 346.051697 399.174988 344.261871 396.475006 343.009094 394 C 341.756348 391.524994 340.409149 389.274994 340.015381 389 C 339.621582 388.725006 338.714661 387.375 338 386 C 337.285339 384.625 336.374329 383.274994 335.975586 383 C 335.576843 382.725006 333.092529 378.225006 330.454895 373 C 327.817291 367.774994 324.384583 360.012909 322.826721 355.750946 C 321.26886 351.488953 319.123901 345.41394 318.060181 342.250946 C 316.996429 339.087921 315.371399 334.024994 314.448975 331 C 313.52655 327.975006 312.338867 323.700012 311.809723 321.5 C 311.280579 319.299988 310.411926 314.799988 309.879456 311.5 C 309.346954 308.200012 308.432861 301.900024 307.848083 297.5 C 307.263306 293.099976 306.778992 278.924988 306.77179 266 C 306.764587 253.075012 307.247253 239.349976 307.84433 235.5 C 308.441406 231.650024 309.36142 225.799988 309.888794 222.5 C 310.416138 219.200012 311.331909 214.587524 311.923798 212.25 C 312.515717 209.912476 313.390686 206.3125 313.868164 204.25 C 314.345642 202.1875 316.317139 196 318.249268 190.5 C 320.181396 185 322.644775 178.25 323.72345 175.5 C 324.802155 172.75 327.837036 166.224976 330.467651 161 C 333.098267 155.775024 335.586151 151.275024 335.996307 151 C 336.406464 150.724976 338.109619 147.799988 339.781128 144.5 C 341.452637 141.200012 343.699829 137.571655 344.774872 136.437012 C 345.849884 135.302368 347.310974 133.277344 348.021698 131.937012 C 348.732452 130.59668 350.072662 128.825012 351 128 C 351.927338 127.174988 353.281525 125.375 354.009338 124 C 354.737152 122.625 356.532959 120.375 358 119 C 359.467041 117.625 361.231354 115.44397 361.920654 114.153198 C 362.609985 112.862488 368.716278 106.264099 375.490204 99.490173 C 382.26413 92.716248 388.862488 86.609985 390.153229 85.920654 C 391.443939 85.231323 393.625 83.467041 395 82 C 396.375 80.532959 398.625 78.737122 400 78.009338 C 401.375 77.281555 403.174988 75.927307 404 75 C 404.825012 74.072693 406.625 72.725952 408 72.007263 C 409.375 71.288574 410.725006 70.380737 411 69.989807 C 411.274994 69.598938 412.950073 68.536133 414.722412 67.628113 C 416.49472 66.720093 419.644714 64.8573 421.722412 63.488525 C 423.800079 62.119751 426.242493 60.437378 427.149994 59.749939 C 428.057495 59.0625 432.782471 56.634277 437.649994 54.354004 C 442.517487 52.07373 448.75 49.27356 451.5 48.13147 C 454.25 46.98938 461.450012 44.408569 467.5 42.396301 C 473.549988 40.384033 480.299988 38.318481 482.5 37.806213 C 484.700012 37.293884 488.75 36.432373 491.5 35.891724 C 494.25 35.351074 499.200012 34.443542 502.5 33.874939 C 505.799988 33.306335 514.575012 32.460266 522 31.994812 C 529.424988 31.529297 537.45813 30.83844 539.85144 30.459534 C 542.446899 30.048584 545.069824 30.21283 546.35144 30.866455 C 547.533142 31.469238 554.125 32.160095 561 32.401794 C 567.875 32.643433 576.650024 33.287598 580.5 33.833252 C 584.349976 34.378845 589.525024 35.342773 592 35.975281 C 594.474976 36.607788 598.525024 37.48053 601 37.914673 C 603.474976 38.348816 610.450012 40.352051 616.5 42.366333 C 622.549988 44.380554 631.325012 47.788269 636 49.939026 C 640.674988 52.089783 646.000854 54.40387 647.835144 55.08136 C 649.669495 55.75885 651.722717 56.865601 652.397888 57.54071 C 653.072998 58.21582 655.622192 59.780823 658.062683 61.018433 C 660.503235 62.256042 662.724976 63.597778 663 64 C 663.275024 64.402222 665.525024 65.756348 668 67.009094 C 670.474976 68.261841 673.174988 70.051697 674 70.98645 C 674.825012 71.921204 676.625 73.277344 678 74 C 679.375 74.722656 681.174988 76.072693 682 77 C 682.825012 77.927307 684.625 79.281555 686 80.009338 C 687.375 80.737122 689.625 82.532959 691 84 C 692.375 85.467041 694.564514 87.23584 695.86554 87.930725 C 697.166565 88.625549 701.060425 92.023376 704.518494 95.481506 C 707.976624 98.939575 711.370667 102.824158 712.060913 104.113831 C 712.75116 105.403503 713.849304 106.992188 714.501343 107.644165 C 715.15332 108.296204 716.248291 110.330505 716.93457 112.164856 C 717.62085 113.999146 718.59137 116.533691 719.091187 117.797058 C 719.591064 119.060425 719.993469 123.110413 719.985474 126.797058 C 719.977417 130.483704 719.290222 135.454346 718.458313 137.843018 C 717.626404 140.231628 716.026978 143.987 714.903992 146.188171 C 713.781006 148.389404 710.927734 152.124878 708.563416 154.489197 C 706.199097 156.853577 703.192566 159.353088 701.882324 160.043701 C 700.572021 160.734314 699.269958 161.647217 698.98877 162.072388 C 698.707642 162.497498 696.457642 163.548584 693.98877 164.408081 C 691.28186 165.350525 686.125854 165.970886 681 165.970886 C 675.874146 165.970886 670.71814 165.350525 668.01123 164.408081 C 665.542358 163.548584 663.292358 162.497498 663.01123 162.072388 C 662.730042 161.647217 661.375 160.707214 660 159.983398 C 658.625 159.259583 656.375 157.467041 655 156 C 653.625 154.532959 651.394226 152.742065 650.042786 152.020264 C 648.691345 151.298401 645.522095 148.589294 643 146 C 640.477905 143.410706 637.308655 140.709045 635.957214 139.996399 C 634.605774 139.283691 633.275024 138.385315 633 138 C 632.724976 137.614685 631.375 136.714661 630 136 C 628.625 135.285339 627.275024 134.385315 627 134 C 626.724976 133.614685 625.375 132.714661 624 132 C 622.625 131.285339 621.275024 130.374756 621 129.976501 C 620.724976 129.578247 616.740662 127.367065 612.145996 125.062744 C 607.55127 122.758423 599.67627 119.498413 594.645996 117.818237 C 589.615723 116.138062 583.700012 114.33844 581.5 113.819092 C 579.299988 113.299683 575.25 112.412842 572.5 111.848328 C 569.75 111.283813 561.467041 110.524475 554.093384 110.16095 C 546.719788 109.797424 535.244812 109.799622 528.593384 110.165833 C 521.942017 110.531982 514.25 111.291321 511.5 111.853149 C 508.75 112.415039 504.587494 113.352905 502.25 113.937378 C 499.912506 114.52179 496.3125 115.384827 494.25 115.855164 C 492.1875 116.325562 488.700012 117.500793 486.5 118.466797 C 484.299988 119.432861 478.493225 122.08551 473.596069 124.361633 C 468.698883 126.637756 464.170685 129.010376 463.533386 129.634094 C 462.896057 130.257874 460.377838 131.784912 457.937317 133.027527 C 455.496796 134.270203 452.825012 136.051697 452 136.98645 C 451.174988 137.921204 449.383575 139.278137 448.019043 140.001831 C 446.65448 140.725525 443.954498 142.94812 442.019043 144.94104 C 440.083557 146.933899 436.924988 149.66748 435 151.015686 C 433.075012 152.363892 430.088837 154.870544 428.364075 156.58606 C 426.639313 158.301575 424.655365 160.775452 423.955292 162.083557 C 423.255188 163.391663 421.02533 166.054077 419 168 C 416.97467 169.945923 414.72876 172.65448 414.009094 174.019043 C 413.289429 175.383545 412.385315 176.724976 412 177 C 411.614685 177.275024 410.714661 178.625 410 180 C 409.285339 181.375 408.378418 182.724976 407.984619 183 C 407.590851 183.275024 406.256073 185.496765 405.018463 187.937317 C 403.780823 190.377808 402.215851 192.927002 401.54071 193.602112 C 400.86557 194.277283 399.752991 196.330505 399.068298 198.164856 C 398.383606 199.999146 396.977142 203.525024 395.94281 206 C 394.908508 208.474976 392.857025 214.099976 391.383972 218.5 C 389.91095 222.900024 388.296387 228.75 387.796112 231.5 C 387.295807 234.25 386.411072 239.650024 385.830048 243.5 C 385.248993 247.349976 384.77359 257.924988 384.77359 267 C 384.77359 276.075012 385.235229 286.650024 385.799438 290.5 C 386.363647 294.349976 387.314606 299.412476 387.912628 301.75 C 388.510681 304.087524 389.399872 307.6875 389.888611 309.75 C 390.37735 311.8125 391.681793 316.228577 392.787415 319.563507 C 393.893036 322.898438 397.598663 331.22345 401.022186 338.063507 C 404.445709 344.903564 407.573883 350.725006 407.973694 351 C 408.373474 351.274994 409.288605 352.625 410.007263 354 C 410.725952 355.375 412.072662 357.174988 413 358 C 413.927338 358.825012 415.264832 360.591583 415.97226 361.92572 C 416.679657 363.259857 420.292145 367.343292 424 371 C 427.707855 374.656708 431.307861 378.706726 432 380 C 432.692139 381.293274 436.292145 385.343292 440 389 C 443.707855 392.656708 447.320343 396.740143 448.02774 398.07428 C 448.735168 399.408417 450.072662 401.174988 451 402 C 451.927338 402.825012 453.277313 404.625 454 406 C 454.722687 407.375 456.072662 409.174988 457 410 C 457.927338 410.825012 459.274048 412.625 459.992737 414 C 460.711395 415.375 461.621582 416.725006 462.015381 417 C 462.409149 417.274994 463.752228 419.524994 465 422 C 466.247772 424.475006 467.602448 426.725006 468.010437 427 C 468.418396 427.274994 471.353485 432.674988 474.532837 439 C 477.712219 445.325012 481.194611 452.75 482.271515 455.5 C 483.348419 458.25 485.362152 463.649994 486.746429 467.5 C 488.130737 471.350006 489.654114 476.1875 490.131683 478.25 C 490.609253 480.3125 491.47818 483.912506 492.062653 486.25 C 492.647095 488.587494 493.567627 492.75 494.108276 495.5 C 494.648895 498.25 495.547363 503.200012 496.104828 506.5 C 496.662292 509.799988 497.572174 517 498.126801 522.5 C 498.681427 528 499.128876 537.224976 499.121155 543 C 499.113403 548.775024 498.657318 558.900024 498.107574 565.5 C 497.557861 572.099976 496.673065 580.650024 496.141388 584.5 C 495.609711 588.349976 494.660797 593.525024 494.032684 596 C 493.404572 598.474976 492.499176 602.299988 492.020752 604.5 C 491.542297 606.700012 490.715668 610.075012 490.183807 612 C 489.651917 613.924988 487.850494 619.603638 486.180603 624.619141 C 484.510742 629.634644 479.906799 640.209656 475.949677 648.119141 C 471.992554 656.028625 468.420502 662.724976 468.01178 663 C 467.603058 663.275024 466.247772 665.525024 465 668 C 463.752228 670.474976 462.409149 672.724976 462.015381 673 C 461.621582 673.275024 460.711395 674.625 459.992737 676 C 459.274048 677.375 457.927338 679.174988 457 680 C 456.072662 680.825012 454.722687 682.625 454 684 C 453.277313 685.375 451.927338 687.174988 451 688 C 450.072662 688.825012 448.735168 690.591553 448.02774 691.92572 C 447.320343 693.259888 443.649689 697.400635 439.870789 701.127441 C 436.091858 704.854248 433 708.407349 433 709.023132 C 433 709.638977 432.428223 710.714661 431.72937 711.413513 C 431.030518 712.112366 429.376434 713.263367 428.05365 713.971313 C 426.730865 714.679199 422.656708 718.292114 419 722 C 415.343292 725.707886 411.259857 729.320313 409.92572 730.027771 C 408.591583 730.735168 406.825012 732.072693 406 733 C 405.174988 733.927307 403.375 735.277344 402 736 C 400.625 736.722656 398.825012 738.072693 398 739 C 397.174988 739.927307 395.375 741.274048 394 741.992737 C 392.625 742.711426 391.274994 743.621582 391 744.015381 C 390.725006 744.40918 388.475006 745.752197 386 747 C 383.524994 748.247803 381.274994 749.602478 381 750.010437 C 380.725006 750.418396 375.325012 753.359253 369 756.545593 C 362.674988 759.731934 354.125 763.565247 350 765.064026 C 345.875 766.562805 341.149994 768.260925 339.5 768.837585 C 337.850006 769.414307 334.024994 770.638123 331 771.557129 C 327.975006 772.476196 323.700012 773.655029 321.5 774.176697 C 319.299988 774.698425 315.25 775.567627 312.5 776.108276 C 309.75 776.648926 304.799988 777.565613 301.5 778.145447 C 298.200012 778.72522 282 779.34436 265.5 779.521301 Z"/>
</svg>
