<?xml version="1.0" ?>
<svg xmlns="http://www.w3.org/2000/svg" xmlns:ev="http://www.w3.org/2001/xml-events" xmlns:xlink="http://www.w3.org/1999/xlink" baseProfile="full" height="600px" version="1.1" viewBox="155.79999999999998 65.33124999998451 480.40000000000003 480.4000000000169" width="600px">
	<defs/>
	<path d="M 396.0,105.53125 C 285.720001,105.53125 196.000041,195.251241 196.0,305.53125 C 196.0,415.811249 285.719981,505.53125 396.0,505.53125 C 506.279999,505.53125 595.999959,415.811239 596.0,305.53125 C 596.0,195.251251 506.279989,105.531209 396.0,105.53125 M 418.09375,122.90625 C 457.517751,127.64425 493.113708,144.889483 520.84375,170.5625 C 508.916751,181.6105 495.771698,190.922755 481.71875,198.34375 C 480.13575,195.34175 478.501169,192.370497 476.78125,189.4375 C 461.67725,163.670499 441.680771,141.048218 418.09375,122.90625 M 373.03125,123.0 C 349.502251,141.124001 329.543793,163.719518 314.46875,189.4375 C 312.80875,192.2685 311.220485,195.136236 309.6875,198.03125 C 295.855501,190.66325 282.915278,181.450526 271.15625,170.5625 C 298.677251,145.0865 333.964213,127.889018 373.03125,123.0 M 387.96875,131.84375 L 387.96875,219.25 C 365.716751,218.302 344.184306,213.430499 324.15625,204.9375 C 325.48425,202.4505 326.852266,199.968264 328.28125,197.53125 C 343.40625,171.728251 363.812703,149.323792 387.96875,131.84375 M 404.03125,132.40625 C 427.853251,149.80425 447.972453,172.001211 462.9375,197.53125 C 464.4185,200.05825 465.846732,202.637728 467.21875,205.21875 C 447.37175,213.54775 426.066223,218.312988 404.03125,219.25 L 404.03125,132.40625 M 259.84375,181.96875 C 272.881749,194.10975 287.263245,204.326797 302.65625,212.46875 C 290.81325,239.20875 284.137522,268.099253 283.0625,297.53125 L 212.21875,297.53125 C 214.13175,253.152252 231.830739,212.801727 259.84375,181.96875 M 532.15625,181.96875 C 560.167249,212.80175 577.868317,253.153269 579.78125,297.53125 L 508.1875,297.53125 C 507.1165,268.219251 500.470727,239.430196 488.71875,212.78125 C 504.34175,204.58625 518.943181,194.275747 532.15625,181.96875 M 317.125,219.375 C 339.323001,228.9 363.245656,234.34348 387.96875,235.3125 L 387.96875,297.53125 L 299.125,297.53125 C 300.186,270.496249 306.300027,243.958974 317.125,219.375 M 474.21875,219.65625 C 484.96575,244.16025 491.067988,270.60022 492.125,297.53125 L 404.03125,297.53125 L 404.03125,235.3125 C 428.532249,234.3545 452.206716,229.009236 474.21875,219.65625 M 212.21875,313.5625 L 283.03125,313.5625 C 284.01325,343.4705 290.802245,372.880229 302.90625,400.03125 C 287.72525,408.03525 273.496785,418.046522 260.59375,429.9375 C 232.142751,398.999499 214.148733,358.339508 212.21875,313.5625 M 299.09375,313.5625 L 387.96875,313.5625 L 387.96875,377.3125 C 363.337751,378.2775 339.505015,383.697251 317.375,393.15625 C 306.285,368.155251 300.064774,341.08253 299.09375,313.5625 M 404.03125,313.5625 L 492.15625,313.5625 C 491.18925,340.9785 484.978758,367.921692 473.96875,392.84375 C 452.026751,383.55575 428.439301,378.267479 404.03125,377.3125 L 404.03125,313.5625 M 508.21875,313.5625 L 579.78125,313.5625 C 577.85125,358.337499 559.853259,399.00059 531.40625,429.9375 C 518.32825,417.8805 503.912079,407.775691 488.5,399.71875 C 500.513,372.65875 507.240641,343.350576 508.21875,313.5625 M 387.96875,393.375 L 387.96875,480.09375 C 363.15375,462.13075 342.273509,438.950531 327.0625,412.3125 C 326.1655,410.7415 325.293465,409.154442 324.4375,407.5625 C 344.3845,399.1425 365.823756,394.31798 387.96875,393.375 M 404.03125,393.375 C 425.960251,394.308 447.171468,399.025243 466.9375,407.28125 C 466.0345,408.96725 465.105225,410.65045 464.15625,412.3125 C 449.10125,438.6775 428.512299,461.645142 404.03125,479.53125 L 404.03125,393.375 M 481.46875,414.15625 C 495.298751,421.43025 508.248235,430.497383 520.03125,441.28125 C 492.722249,466.25825 457.901957,483.127218 419.375,488.03125 C 443.097,469.51225 463.141724,446.466237 478.09375,420.28125 C 479.24975,418.25625 480.376773,416.213179 481.46875,414.15625 M 309.9375,414.46875 C 310.9775,416.41975 312.058221,418.35935 313.15625,420.28125 C 328.074251,446.405251 348.069738,469.409149 371.71875,487.90625 C 333.562749,482.85225 299.058777,466.054359 271.96875,441.28125 C 283.58375,430.65425 296.327474,421.688685 309.9375,414.46875" fill="black"/>
</svg>
